<svg width="202" height="100" viewBox="0 0 202 100" fill="none" xmlns="http://www.w3.org/2000/svg">
<path fill-rule="evenodd" clip-rule="evenodd" d="M188.613 50.3616L189.423 50.1617C184.156 64.6135 172.816 76.4991 155.382 85.8184C137.694 95.2782 117.5 100 94.8144 100C71.9887 100 51.659 95.2026 33.8306 85.6185C16.2778 76.1641 4.99734 64.1435 0 49.5566L1.62076 49.7565C6.89363 53.2682 18.1687 56.1747 35.4568 58.4654C53.015 60.7669 73.0044 61.9122 95.4249 61.9122C117.44 61.9122 137.095 60.8317 154.377 58.6707C171.395 56.5097 182.805 53.7382 188.613 50.3616Z" fill="#D7EAF2"/>
<path fill-rule="evenodd" clip-rule="evenodd" d="M181.122 53.4023C179.906 56.6493 177.945 60.0258 175.244 63.5321C170.111 70.4203 162.143 77.3788 151.332 84.4021C142.828 89.9342 132.358 94.3967 119.927 97.7733C114.125 98.5837 110.878 98.9889 110.208 98.9889C126.545 93.9915 138.301 86.7035 145.46 77.1086C148.561 72.9217 150.527 69.0048 151.327 65.3581C151.737 61.9816 152.007 59.7557 152.137 58.6752C164.714 57.3246 174.368 55.5634 181.122 53.4023Z" fill="#BDD4DE"/>
<g opacity="0.4414" clip-path="url(#clip0_805_1933)">
<path fill-rule="evenodd" clip-rule="evenodd" d="M117.776 61.5108L104.607 99.5986L83.335 99.396C78.7442 98.7194 73.6104 97.5727 67.9378 95.9519C61.9936 94.0597 57.0665 92.0337 53.1483 89.8741C40.4538 82.8521 30.6603 75.0158 23.7721 66.3731C20.3969 62.0497 18.2332 58.4719 17.2891 55.6356L28.4318 57.4589C46.6653 60.4289 69.0196 61.916 95.4907 61.916L117.776 61.5108Z" fill="url(#paint0_linear_805_1933)"/>
</g>
<path fill-rule="evenodd" clip-rule="evenodd" d="M15.3972 68.5952C23.9548 78.7195 34.7653 86.4559 47.8124 91.7936C36.667 87.6769 27.0829 82.3068 19.0493 75.6887C9.72455 67.9901 3.37658 59.2812 0 49.5566L1.62076 49.7565C2.5662 50.4319 3.58188 50.9775 4.66238 51.3773C6.95846 57.0553 10.5349 62.7928 15.3972 68.5952Z" fill="#BDD4DE"/>
<path fill-rule="evenodd" clip-rule="evenodd" d="M160.251 21.5998C178.085 28.3529 186.999 36.4567 186.999 45.9112C186.999 55.3602 178.085 63.3991 160.251 70.0172C142.428 76.7704 120.948 80.147 95.8314 80.147C70.5746 80.147 49.0293 76.7704 31.2064 70.0172C13.3726 63.3991 4.46387 55.3602 4.46387 45.9112C4.46387 36.4567 13.3726 28.3529 31.2064 21.5998C49.0347 14.9817 70.5746 11.6699 95.8314 11.6699C120.948 11.6699 142.428 14.9817 160.251 21.5998Z" fill="url(#paint1_linear_805_1933)"/>
<path fill-rule="evenodd" clip-rule="evenodd" d="M189.225 43.4786H183.347C182.131 35.0993 173.017 28.0112 155.994 22.2035C139.116 16.3958 118.857 13.4946 95.2206 13.4946C71.7196 13.4946 51.5304 16.3958 34.6421 22.2035C17.6295 28.0112 8.51004 35.0993 7.29447 43.4786H0.40625C2.56726 34.2943 12.6268 26.5957 30.5902 20.3828C48.8237 14.1699 70.2339 11.0635 94.8154 11.0635C119.532 11.0635 140.942 14.1699 159.035 20.3828C177.134 26.5957 187.199 34.2943 189.225 43.4786Z" fill="white"/>
<path fill-rule="evenodd" clip-rule="evenodd" d="M182.135 57.4544C176.057 60.9661 167.278 64.8181 155.798 69.0051C139.179 75.0829 124.933 78.1894 113.053 78.3298C100.087 78.4595 85.9051 77.8544 70.5025 76.5038C56.4559 75.1531 45.7211 73.5972 38.2926 71.8468C32.2148 70.3611 26.2666 68.065 20.4589 64.9586C15.3265 62.2573 12.6954 60.3664 12.5604 59.2859C12.4253 58.7457 13.2357 57.7354 14.9915 56.2443C17.0175 54.4885 18.098 53.408 18.233 53.0028C20.394 46.9249 28.9678 41.7223 43.9653 37.4003C47.8821 36.3198 51.8638 33.0728 55.9157 27.6757C59.6974 22.5433 62.8741 19.9069 65.4403 19.7718C78.1363 18.8264 88.5361 18.9614 96.6399 20.177C99.4763 20.5822 103.869 21.9977 109.806 24.4288C114.668 26.4547 118.79 27.4002 122.172 27.2651C125.273 27.1301 132.302 26.5898 143.231 25.6444C153.096 25.0987 159.174 25.9145 161.465 28.0701C164.847 31.317 168.423 35.4337 172.205 40.4311C176.657 46.1037 178.829 49.9557 178.683 51.9817C178.553 53.462 179.839 54.4777 182.535 55.0233C184.291 55.4285 184.161 56.2389 182.135 57.4544Z" fill="url(#paint2_radial_805_1933)"/>
<path fill-rule="evenodd" clip-rule="evenodd" d="M65.4359 19.7745C69.3527 19.0992 69.9632 20.0446 67.262 22.6108C63.8854 25.982 62.6698 28.0782 63.6153 28.8886C64.6958 29.9691 66.9918 29.834 70.4981 28.4834C73.745 27.1328 75.4954 26.7924 75.7709 27.4677C76.3112 28.9534 75.2955 30.2392 72.7293 31.3197C69.893 32.5353 66.1112 32.7406 61.3786 31.9248C56.6514 30.9794 55.3008 28.8183 57.3267 25.4418C59.3581 22.3407 62.0647 20.4498 65.4359 19.7745Z" fill="url(#paint3_radial_805_1933)"/>
<path fill-rule="evenodd" clip-rule="evenodd" d="M69.8991 39.6279C71.925 39.3577 72.9407 40.2329 72.9407 42.2589C72.9407 43.3394 72.6706 45.1654 72.1303 47.7316C71.8602 49.6279 71.1146 51.2433 69.9045 52.5939C68.5538 54.0796 67.0681 54.7495 65.4474 54.6199C63.9617 54.3443 61.4657 54.3443 57.9487 54.6199L53.0918 55.025C53.497 54.2147 54.2371 53.3989 55.3176 52.5939C57.3436 50.8381 59.9098 49.8927 63.0162 49.7576C65.7175 49.4875 67.0033 47.8019 66.8683 44.69C66.8574 41.4539 67.8731 39.7683 69.8991 39.6279Z" fill="url(#paint4_radial_805_1933)"/>
<path fill-rule="evenodd" clip-rule="evenodd" d="M150.532 41.4528C155.383 42.6684 156.469 44.8996 153.773 48.1357C151.072 51.2422 146.95 52.058 141.417 50.5669C136.139 49.2162 135.269 47.1201 138.781 44.2837C142.158 41.3177 146.069 40.3723 150.532 41.4528Z" fill="url(#paint5_radial_805_1933)"/>
<path fill-rule="evenodd" clip-rule="evenodd" d="M170.381 51.1747C167.815 49.8241 164.439 47.8684 160.252 45.2968C155.53 42.3254 152.418 40.4399 150.932 39.6241C146.481 36.9229 139.992 35.9072 131.483 36.5825C127.161 37.2578 123.65 37.7333 120.943 38.0034C116.091 38.5436 112.439 38.2735 110.014 37.193C108.933 36.7932 107.577 35.5723 105.962 33.5463C104.881 32.3307 102.245 31.7959 98.0578 31.9255C94.4057 32.0552 89.4786 33.006 83.2657 34.7619C77.0582 36.5123 72.5957 37.4631 69.8944 37.5928C64.627 37.998 61.0505 38.4734 59.1596 39.0137C55.9127 39.824 53.487 41.4448 51.8608 43.8759C49.2946 47.5226 47.3389 50.024 45.9882 51.3692C43.6922 53.6707 41.126 55.0214 38.2896 55.4211C34.9131 55.9668 31.7364 56.842 28.765 58.0576C25.3884 59.2731 23.6326 60.3536 23.4921 61.2991C23.1139 62.3472 23.1139 63.3953 23.4921 64.438C20.2506 63.1738 18.1598 62.1257 17.2144 61.2991C13.8378 58.4628 14.3781 56.1667 18.8351 54.4109C22.3468 52.9306 26.8741 52.185 32.4117 52.185C36.1935 52.185 39.2297 51.3746 41.5312 49.7539C42.6117 48.9489 44.2324 47.1877 46.3934 44.4864C47.4739 43.1358 49.0245 41.0396 51.0504 38.2033C53.3465 36.0477 56.923 35.032 61.7852 35.1617C66.2423 35.4372 70.5644 34.7619 74.7513 33.1357C76.9069 32.1903 79.7432 30.9801 83.2549 29.489C86.3667 28.684 88.7276 28.2734 90.3484 28.2734C92.6445 28.2734 96.1561 28.8137 100.889 29.8942C102.774 30.2994 105.205 31.65 108.182 33.9461C109.798 35.2967 114.125 35.7019 121.148 35.1617C127.226 34.7619 133.774 34.146 140.797 33.341C145.395 33.4707 149.511 35.0914 153.153 38.1979C155.724 40.3589 160.657 43.1952 167.945 46.7069C173.347 49.2731 175.914 51.2342 175.638 52.5848C175.373 55.5562 174.839 58.3277 174.023 60.8885C172.942 64.2651 171.927 65.2808 170.981 63.9301C170.571 63.2548 171.046 61.164 172.397 57.6524C173.623 54.6864 172.953 52.5254 170.381 51.1747ZM123.985 51.1747C118.987 49.1488 115.546 47.8684 113.655 47.3227C110.413 46.2422 107.847 46.2422 105.962 47.3227C105.151 47.7279 102.245 48.8084 97.2474 50.5697C93.4657 51.9203 90.9697 53.2709 89.7541 54.6216C87.1879 57.728 85.162 60.1592 83.6763 61.915C80.7049 65.4266 78.344 67.4526 76.5828 67.9928C73.8815 68.8032 70.5752 69.2786 66.6583 69.4137C62.2012 69.5434 59.3595 68.9383 58.1493 67.5876C56.5286 65.8372 55.3778 64.7567 54.7025 64.3461C53.3519 63.6708 51.1909 63.2008 48.2195 62.9253C44.978 62.6551 41.7365 63.2656 38.4949 64.7513C35.5127 66.1776 34.3998 67.4256 35.1508 68.4953C32.6278 67.7011 30.3641 66.9555 28.3652 66.2694C28.6785 66.0587 29.0189 65.8264 29.3809 65.5563C32.6224 63.2602 36.6743 61.2343 41.5366 59.4784C46.804 57.4525 50.656 56.7772 53.0872 57.4525C54.3027 57.728 56.1936 59.6135 58.7598 63.1306C60.7858 65.8318 63.4168 66.8475 66.6637 66.1722C71.1154 65.0917 74.157 64.076 75.7832 63.1306C77.539 62.05 79.1598 60.0241 80.6401 57.0527C84.692 49.6242 89.7595 45.9073 95.8374 45.9073C97.5932 45.9073 99.7488 44.9618 102.32 43.071C104.346 41.5853 107.048 41.38 110.424 42.4659C116.367 44.3568 122.65 45.9775 129.268 47.3227C131.834 48.0035 135.411 48.0683 139.998 47.528C143.65 47.1229 146.551 47.6577 148.712 49.1488C151.408 51.1747 152.893 52.6604 153.164 53.6059C153.164 53.876 152.823 55.5616 152.148 58.6735C151.748 60.4239 152.488 63.2008 154.374 66.9772C155.73 69.8135 155.66 71.3046 154.174 71.4342C152.694 71.5639 151.402 71.9799 150.322 72.6498C150.057 72.7849 149.782 72.5201 149.522 71.8448C149.247 70.6239 149.047 68.5331 148.912 65.5617C148.642 62.0554 148.712 59.3542 149.112 57.4579C150.192 52.8657 147.631 50.5751 141.419 50.5751C140.608 50.5751 137.907 51.0505 133.315 51.9959C130.338 52.5254 127.237 52.2553 123.985 51.1747ZM85.0917 74.2706C80.6347 74.6704 77.9334 75.0161 76.988 75.2862C75.3672 75.8265 74.2867 76.1614 73.7464 76.3019C72.9361 76.572 71.0452 76.7017 68.0684 76.7017C66.4692 76.7017 63.9733 76.3343 60.5751 75.5888C62.3687 75.216 65.6751 74.303 70.4995 72.8551C75.3618 71.2343 79.0787 70.424 81.6449 70.424H89.5434C91.8395 70.0188 93.8655 68.733 95.6213 66.572C97.7877 64.0058 101.294 62.05 106.162 60.6994C111.429 59.3488 115.281 59.6189 117.707 61.5044C120.003 63.2602 122.974 64.7513 126.621 65.9615C129.322 66.7719 131.618 67.2473 133.509 67.3823C134.99 67.512 136.816 67.8578 138.977 68.398C141.273 68.9383 142.694 69.4785 143.228 70.0188C144.039 70.559 144.109 71.7098 143.439 73.4656C142.629 75.0863 141.413 75.6914 139.787 75.2916C138.436 74.8865 136.005 73.8059 132.494 72.0447C128.172 69.7486 125.135 68.2683 123.374 67.5876C119.322 65.8372 116.486 64.7567 114.86 64.3461C111.618 63.5357 108.782 63.6708 106.356 64.7513C104.465 65.5563 102.234 66.9069 99.6678 68.8032C97.107 70.5536 95.1459 71.7746 93.8006 72.4499C92.0502 73.1198 89.1436 73.7303 85.0917 74.2706ZM23.5029 64.4434C24.8968 65.0106 26.5175 65.6211 28.3652 66.2694C26.3393 67.4418 24.9238 67.2743 24.1134 65.7616C23.8325 65.324 23.6326 64.8864 23.5029 64.4434ZM35.1508 68.4953C37.1227 69.0949 39.2513 69.7378 41.5366 70.4186C49.5647 72.8335 55.9127 74.5623 60.5805 75.5834C60.3482 75.6212 60.1429 75.659 59.97 75.686C57.1391 76.0912 52.4065 75.2862 45.7884 73.2603C39.7105 71.2343 36.1989 69.6784 35.2588 68.5979L35.1508 68.4953Z" fill="url(#paint6_radial_805_1933)"/>
<path fill-rule="evenodd" clip-rule="evenodd" d="M171.193 37.1966C169.032 34.2252 165.991 32.4046 162.074 31.7293C153.295 29.9734 145.056 28.8929 137.363 28.4823C133.71 28.2122 129.523 26.4564 124.796 23.2149C119.669 19.8383 115.882 17.942 113.451 17.5422C108.454 15.9161 104.737 14.9058 102.306 14.5006C97.9835 13.5552 93.4562 14.5654 88.729 17.5422C82.1109 22.1344 77.4539 25.3111 74.7526 27.0615C70.4306 29.8978 66.7137 31.4537 63.6072 31.7239C62.6618 31.8535 58.2047 31.4483 50.2306 30.5029C44.693 29.9626 40.7059 30.5731 38.2802 32.3289C33.4179 36.5105 29.9063 39.4873 27.7452 41.2377C24.0985 44.4846 22.6128 44.9546 23.2882 42.6586C26.6647 31.8535 32.4725 26.451 40.7113 26.451H48.4153C60.4359 27.8016 68.4695 26.7265 72.5214 23.2095C77.3837 19.1576 82.381 15.781 87.5134 13.0797C95.212 8.89277 101.425 7.33684 106.152 8.42275C109.394 9.22773 114.121 11.9344 120.334 16.5265C126.277 20.8486 131.744 23.3445 136.741 24.0199C147.952 25.5056 153.894 26.3213 154.575 26.451C160.107 27.3964 164.429 28.6822 167.53 30.303C171.317 32.4586 174.359 34.8951 176.65 37.5964C179.221 40.4327 180.367 42.9989 180.102 45.295C179.832 47.7262 177.466 50.2923 173.008 52.999C168.411 55.8299 163.349 57.5209 157.811 58.0666C153.759 58.4664 149.367 60.4275 144.64 63.9391C140.177 67.3157 137.006 69.0067 135.11 69.0067H128.432C127.622 68.8771 127.217 68.5313 127.217 67.991C127.217 67.0456 129.243 65.7652 133.294 64.1444C136.536 62.9235 143.759 60.2924 154.969 56.2405C164.964 52.4588 170.707 49.2172 172.193 46.516C173.959 43.4095 173.619 40.3031 171.193 37.1966Z" fill="url(#paint7_radial_805_1933)"/>
<path fill-rule="evenodd" clip-rule="evenodd" d="M169.779 35.5743C167.477 32.6029 164.441 30.7822 160.659 30.1015C151.875 28.3511 143.641 27.2706 135.937 26.86C132.296 26.5899 128.104 24.834 123.382 21.5925C118.249 18.2159 114.397 16.3197 111.826 15.9145C106.828 14.2937 103.122 13.2834 100.68 12.8728C96.4987 11.9328 92.0417 12.9431 87.309 15.9145C80.5559 20.512 75.8989 23.6833 73.3327 25.4391C69.0107 28.2754 65.2289 29.8314 61.982 30.0961C61.0419 30.2312 56.6497 29.826 48.8106 28.8805C43.138 28.3403 39.1563 28.9508 36.8602 30.7066C31.998 34.8881 28.4863 37.8649 26.3253 39.6154C22.6894 42.8731 21.2037 43.3431 21.879 41.047C25.2556 30.242 31.0633 24.8394 39.3076 24.8394H47.0008C59.0214 26.1901 67.055 25.1798 71.1069 21.7978C75.4289 17.8756 80.4316 14.4342 86.0989 11.4682C93.7975 7.28122 100.01 5.7253 104.732 6.8058C107.839 7.61618 112.571 10.3174 118.914 14.9096C124.862 19.237 130.329 21.733 135.332 22.4083C146.807 23.894 152.755 24.7098 153.155 24.8394C158.563 25.7849 162.815 27.0653 165.921 28.6914C169.703 30.8471 172.809 33.2836 175.241 35.9849C177.812 38.8212 178.958 41.3874 178.682 43.6835C178.417 46.1146 176.056 48.6808 171.588 51.3821C166.867 54.2184 161.799 55.9094 156.391 56.4496C152.21 56.8548 147.817 58.8159 143.22 62.3276C138.768 65.7042 135.527 67.3952 133.501 67.3952H127.012L131.475 63.7485C135.256 60.9121 139.168 58.6809 143.22 57.0655C146.472 55.8446 151.799 54.159 159.227 51.998C165.44 49.972 169.292 47.6057 170.784 44.9044C172.545 41.7926 172.204 38.6807 169.779 35.5743Z" fill="url(#paint8_radial_805_1933)"/>
<path fill-rule="evenodd" clip-rule="evenodd" d="M170.18 39.0196C165.728 39.0196 161.201 37.1935 156.608 33.5468C154.172 31.3912 150.866 27.8741 146.679 23.0119C144.242 20.0405 140.055 18.7601 134.112 19.1653C128.845 19.4354 124.258 20.7158 120.341 23.0119C115.209 25.9833 111.357 28.6899 108.785 31.1157C105.279 34.6273 106.289 36.1832 111.827 35.778C113.053 35.778 117.705 34.6975 125.809 32.5311C129.731 31.4506 133.513 32.5311 137.154 35.778C140.131 38.609 143.443 41.9855 147.084 45.9078C150.061 48.3335 153.772 49.279 158.229 48.7387C163.767 48.0634 168.429 49.414 172.211 52.7906C176.128 56.3022 175.253 59.2736 169.575 61.7048C164.577 63.8604 161.471 64.6762 160.255 64.1359L160.05 62.9257L165.117 59.8841C167.689 57.588 167.343 55.8322 164.102 54.6167C161.941 53.6712 158.424 53.0661 153.572 52.7906C149.785 52.6609 146.884 51.7101 144.858 49.9597C141.481 46.3076 138.915 43.6063 137.154 41.8559C134.053 38.609 131.011 36.8585 128.034 36.583C125.609 36.3129 122.297 36.6533 118.115 37.5987C113.113 38.5441 108.856 39.0196 105.349 39.0196C103.323 39.0196 99.3417 39.6246 93.3935 40.8456C90.5572 41.5209 88.5366 40.7105 87.3156 38.4145C86.9158 37.6041 85.2897 33.7575 82.4588 26.8639C80.2977 21.5964 78.4717 18.3549 76.986 17.1393C74.1497 14.5731 70.9081 13.0172 67.2614 12.4823C62.3992 11.807 59.4278 14.2382 58.3473 19.7758C57.4018 25.1783 59.0928 29.9757 63.4148 34.1573C65.846 36.5884 69.6278 39.7651 74.7656 43.6819C81.7834 51.1104 84.1497 56.0429 81.8591 58.4687C79.1578 61.1753 77.4668 62.7259 76.7915 63.131C73.6796 64.6113 69.5629 64.5465 64.4305 62.9257C59.4332 61.305 53.8956 58.7442 47.8177 55.2271C41.875 51.5804 38.0284 49.2195 36.2725 48.1336C33.5713 46.5129 29.7193 45.9078 24.7219 46.3076C19.8597 46.8532 17.0882 48.0634 16.4128 49.9597C15.8726 51.8506 16.9531 53.6064 19.6598 55.2271C22.0909 56.7128 25.4026 57.8582 29.5842 58.674C32.2855 59.2142 35.3271 59.7545 38.7037 60.2947C41.6751 60.6999 44.8518 61.5751 48.2283 62.9257C49.3088 63.3309 53.1608 66.4374 59.7789 72.2505C64.236 76.1673 68.6229 77.1074 72.9503 75.0814C75.3814 74.0063 79.4982 70.0841 85.3059 63.3309C90.0331 57.7933 95.5059 54.6221 101.713 53.8063C107.121 53.266 112.183 52.6609 116.911 51.9856C119.747 52.1153 124.069 53.6064 129.877 56.4373C134.604 58.7388 138.861 60.2191 142.643 60.8944C144.799 61.2996 146.149 61.9749 146.695 62.9203C147.91 65.0814 152.162 67.6476 159.45 70.6189L150.331 73.2554C150.471 72.5747 150.131 71.7697 149.315 70.8242C147.835 68.928 144.998 67.1775 140.811 65.5514C140.136 65.2812 136.014 63.4552 128.456 60.084C124.404 58.3282 120.687 57.3125 117.31 57.0424C113.388 56.7669 109.136 57.1721 104.544 58.258C100.222 59.2034 96.6458 60.554 93.8095 62.3099C91.7835 63.5254 89.2173 65.9566 86.1109 69.6033C82.8693 73.385 81.0433 75.411 80.6381 75.6811C75.7812 79.733 70.1734 80.8135 63.8254 78.928C60.9891 78.1177 57.7476 76.2268 54.1009 73.2554C50.5892 70.284 47.0074 68.3229 43.3661 67.3774C36.1969 65.627 30.9294 64.2764 27.5529 63.3309C21.475 61.7102 17.153 60.0894 14.5922 58.4687C8.37928 54.5518 5.40789 50.7701 5.67802 47.1233C6.21827 42.5312 10.4052 39.5598 18.2389 38.2092C26.0726 36.8639 32.4908 37.8094 37.4881 41.0455C40.7296 43.2011 45.0516 46.5831 50.4542 51.1752C55.9918 54.957 62.4748 57.3827 69.9033 58.4687C77.7369 59.5492 79.3577 57.1883 74.7656 51.3751C73.2799 49.4843 67.8071 44.0817 58.3527 35.1676C53.0852 30.1702 50.2489 25.7834 49.8437 21.9962C49.4439 17.8146 51.74 13.6223 56.7319 9.44071C61.5942 5.51847 66.9319 4.7135 72.7396 7.00957C78.0071 9.17058 82.2589 13.2225 85.5004 19.1653C85.7705 19.5705 86.9861 24.2328 89.1471 33.1416C89.8224 35.9779 92.7938 35.5727 98.0613 31.926C109.407 24.2274 117.04 19.3652 120.946 17.3392C130.406 12.4823 137.629 11.1263 142.632 13.2873C146.814 15.1782 149.456 17.4094 150.536 19.9702C152.151 23.4819 154.113 26.1831 156.403 28.074C163.162 33.8818 170.796 35.6376 179.299 33.3469C181.871 32.5365 185.242 33.7521 189.429 36.9936C193.616 40.2351 195.977 41.7911 196.522 41.6506C198.948 40.8456 200.504 40.7051 201.185 41.2454C201.449 41.5209 201.52 41.8559 201.385 42.2611C201.385 45.7727 200.369 47.5339 198.343 47.5339C197.533 47.5339 195.977 46.313 193.681 43.8872C191.385 41.1806 189.359 39.5598 187.603 39.025C185.712 38.6198 183.486 38.4847 180.925 38.6198C175.922 38.8845 172.341 39.0196 170.18 39.0196Z" fill="url(#paint9_radial_805_1933)"/>
<path fill-rule="evenodd" clip-rule="evenodd" d="M168.964 37.8043C164.502 37.8043 159.98 35.908 155.382 32.1262C153.092 30.2353 149.78 26.7939 145.463 21.7966C143.027 18.8252 138.84 17.5448 132.897 17.9446C127.495 18.2201 122.902 19.5005 119.126 21.7966C113.848 24.768 110.007 27.4693 107.57 29.9004C104.193 33.277 105.204 34.8329 110.612 34.5574C111.827 34.5574 116.56 33.4769 124.793 31.3159C128.716 30.2354 132.427 31.3159 135.939 34.5574C138.915 37.3937 142.216 40.7703 145.869 44.6871C148.975 47.1183 152.692 48.0637 157.014 47.5234C162.546 46.7131 167.214 48.0637 170.996 51.5753C174.913 54.9519 174.037 57.8531 168.359 60.2842C163.362 62.4398 160.255 63.3258 159.04 62.9152L158.835 61.7105L163.902 58.6689C166.468 56.3674 166.128 54.5467 162.887 53.1961C160.59 52.2506 157.144 51.6456 152.557 51.37C148.635 51.2404 145.728 50.3544 143.843 48.739C140.466 45.0923 137.9 42.3208 136.139 40.4353C132.897 37.1884 129.861 35.438 127.019 35.1625C124.593 35.0328 121.217 35.3677 116.889 36.1781C112.038 37.2586 107.77 37.8043 104.134 37.8043C102.108 37.8043 98.121 38.4094 92.1782 39.6249C89.3419 40.1652 87.3159 39.3548 86.1004 37.1938C85.8302 36.6536 84.2095 32.807 81.2381 25.6486C79.0825 20.5162 77.2564 17.2693 75.7707 15.9186C72.9344 13.2174 69.6929 11.6669 66.0408 11.2617C61.1839 10.4567 58.2071 12.8824 57.132 18.5605C56.1866 23.828 57.8722 28.5552 62.1996 32.7421C64.6307 35.1679 68.4125 38.3445 73.5449 42.2614C80.4331 49.9654 82.794 54.8925 80.6384 57.0535C78.2073 59.7548 76.5217 61.3755 75.5709 61.9104C72.4644 63.3961 68.3477 63.3312 63.2153 61.7105C58.2179 59.9547 52.6803 57.3831 46.6025 54.0119C40.6597 50.2301 36.8077 47.799 35.0519 46.7131C32.3506 45.2274 28.504 44.6871 23.5013 45.0923C18.6444 45.6326 15.8729 46.8481 15.1976 48.739C14.6573 50.6353 15.7378 52.3857 18.4391 54.0119C20.8702 55.4922 24.182 56.6429 28.369 57.4533C31.0702 57.9989 34.1118 58.5338 37.4884 59.0794C40.4598 59.4792 43.6365 60.3598 47.0131 61.7105C48.2286 62.1157 52.0807 65.1573 58.5637 70.8299C63.0154 74.8818 67.4076 75.8975 71.7351 73.8716C74.1608 72.6506 78.2829 68.7392 84.0906 62.1211C88.8178 56.5835 94.2906 53.4068 100.498 52.5964C110.498 51.3754 115.56 50.7704 115.695 50.7704C118.397 50.7704 122.724 52.256 128.661 55.2274C133.389 57.5235 137.64 59.0092 141.428 59.6845C143.583 60.0897 144.934 60.765 145.48 61.7105C146.695 63.7364 150.947 66.3026 158.235 69.4091L149.11 71.8402C149.245 71.1649 148.91 70.3545 148.094 69.4091C146.614 67.5128 143.772 65.7624 139.591 64.1416C133.643 61.57 129.526 59.8142 127.235 58.8688C123.183 57.1183 119.466 56.1026 116.09 55.8271C112.038 55.557 107.775 55.8974 103.324 56.8428C99.0016 57.9233 95.4197 59.2739 92.5834 60.8947C90.5575 62.1157 87.9913 64.5414 84.8902 68.1935C81.6433 72.1103 79.8226 74.2011 79.4175 74.4712C74.5552 78.5231 68.9473 79.6037 62.6048 77.7128C59.9035 76.9078 56.6566 74.9413 52.8748 71.8402C49.3632 68.8688 45.7813 66.9779 42.14 66.1676C34.9817 64.4117 29.7142 63.0611 26.3376 62.1157C20.2598 60.3598 15.9377 58.6688 13.3715 57.0481C7.02357 53.1313 4.05218 49.4197 4.45737 45.9081C4.99762 41.3105 9.18458 38.3445 17.0182 36.9939C24.8519 35.5082 31.2647 36.3888 36.2675 39.6249C39.509 41.786 43.831 45.2274 49.2281 49.96C54.7657 53.7363 61.2487 56.1081 68.6826 57.0535C76.5163 58.134 78.137 55.8325 73.5395 50.1653C72.0538 48.269 66.581 42.8719 57.132 33.9577C51.8591 28.9604 49.0282 24.5033 48.623 20.5864C48.2178 16.3995 50.5139 12.2773 55.5113 8.22545C60.3681 4.30862 65.7058 3.49823 71.5135 5.79431C76.7864 7.95532 81.0382 11.9424 84.2743 17.7501C84.5445 18.1553 85.76 22.8177 87.9264 31.7318C88.6017 34.5628 91.5677 34.2278 96.8406 30.7162C108.456 22.8825 116.09 18.0148 119.731 16.1293C129.191 11.132 136.414 9.78137 141.417 12.0774C145.598 13.9683 148.235 16.1942 149.31 18.7604C150.936 22.272 152.892 24.9679 155.188 26.8642C162.076 32.8123 169.71 34.4925 178.084 31.9317C181.185 31.1214 184.162 31.3267 186.998 32.5368C189.694 33.7578 191.52 35.5082 192.465 37.8097C193.681 40.7811 196.247 41.8616 200.169 41.0512C200.169 44.4278 199.154 46.1188 197.128 46.1188C196.317 46.1188 194.761 44.9032 192.465 42.4721C190.169 39.7708 188.143 38.2149 186.388 37.8151C184.497 37.4099 182.265 37.2694 179.699 37.4099C174.702 37.6692 171.125 37.8043 168.964 37.8043Z" fill="url(#paint10_radial_805_1933)"/>
<path fill-rule="evenodd" clip-rule="evenodd" d="M172.204 43.8866C175.856 45.5073 178.352 47.2578 179.698 49.154C181.459 51.4501 181.794 54.3513 180.713 57.8629C180.173 59.6187 179.498 61.1098 178.687 62.32L172.21 65.7668L176.461 57.663C178.358 54.2864 176.661 50.7748 171.394 47.1281C170.178 46.3177 165.386 43.7515 157.012 39.4295C153.231 36.1826 150.324 34.2269 148.298 33.5515C145.057 32.7466 138.849 34.7725 129.665 39.6294C121.015 44.3566 112.177 46.7229 103.128 46.7229H88.5407C86.5148 47.6684 83.0031 47.2632 78.0058 45.5073C72.198 43.4814 67.4708 42.536 63.8241 42.671C59.0969 42.8061 55.1153 44.4971 51.8683 47.7386C51.3281 48.4139 49.4426 51.1152 46.1957 55.8424C45.2502 57.3281 43.5647 59.354 41.1281 61.9202C39.3723 64.2217 39.1022 66.7825 40.3231 69.6188C41.5387 72.4551 45.0503 74.8917 50.8527 76.9176C53.689 77.8631 56.3903 78.5384 58.9565 78.9436C57.0656 79.3488 52.0736 78.5384 43.9698 76.5125C33.2998 73.6761 30.1934 68.9489 34.6451 62.3308C35.731 60.7101 37.1464 59.2244 38.9023 57.8737C40.388 56.7932 42.0087 54.6322 43.7591 51.3907C46.7305 46.1232 51.3227 42.2064 57.541 39.6402C65.1045 36.3987 72.8031 36.6688 80.6314 40.4506C83.0625 41.5311 85.4937 42.201 87.9302 42.4765C89.2808 42.6062 92.182 42.6764 96.6391 42.6764C107.039 42.6764 114.332 41.6607 118.519 39.6348C120.275 38.9595 124.397 37.1334 130.875 34.162C137.088 31.5958 141.75 30.3154 144.857 30.3154C148.363 30.3154 151.334 30.9907 153.771 32.3414C155.251 33.0167 158.093 35.0426 162.274 38.4192C164.441 40.1696 167.753 41.9957 172.204 43.8866Z" fill="url(#paint11_radial_805_1933)"/>
<path fill-rule="evenodd" clip-rule="evenodd" d="M171.194 41.8562C174.701 43.4769 177.202 45.2273 178.688 47.1236C180.314 49.4197 180.584 52.3209 179.498 55.8325C178.958 57.5883 178.283 59.0794 177.472 60.2896L170.995 63.9363L175.246 55.8325C177.137 52.3209 175.446 48.739 170.179 45.0977C168.828 44.1522 164.031 41.586 155.797 37.3991C152.015 34.1521 149.109 32.2667 147.083 31.7264C143.841 30.916 137.628 32.942 128.45 37.8043C119.8 42.3964 110.962 44.6871 101.912 44.6871C92.4525 44.6871 87.5903 44.7573 87.3201 44.8924C85.2942 45.8378 81.7826 45.4326 76.7906 43.6714C70.8424 41.6454 66.1206 40.6298 62.609 40.6298C57.8818 40.7648 53.9649 42.5261 50.8531 45.9026C49.0973 47.6531 47.1415 50.2895 44.9805 53.8011C44.0351 55.2868 42.3495 57.3128 39.913 59.879C38.2922 62.3101 38.0869 64.9466 39.3079 67.7829C40.5234 70.6138 43.9649 72.9855 49.6375 74.8764C52.4738 75.9515 55.1751 76.6971 57.7413 77.1023C55.8504 77.5074 50.8531 76.6268 42.7493 74.4712C32.2198 71.6349 29.1079 66.9077 33.4299 60.2896C34.5104 58.8039 35.9259 57.383 37.6817 56.0378C39.1674 54.8168 40.7936 52.591 42.544 49.3495C45.5154 44.082 50.1075 40.1652 56.3204 37.599C63.884 34.4925 71.5826 34.768 79.4163 38.4093C81.8474 39.6249 84.2731 40.3002 86.7097 40.4353C87.6551 40.5649 90.5563 40.6352 95.4185 40.6352C105.683 40.6352 112.982 39.6897 117.304 37.8043C119.06 37.1235 123.182 35.3029 129.66 32.3315C135.873 29.7653 140.6 28.4795 143.841 28.4795C147.348 28.4795 150.26 29.0846 152.556 30.3055C154.171 31.1105 157.078 33.2067 161.259 36.5833C163.426 38.3445 166.737 40.1003 171.194 41.8562Z" fill="url(#paint12_radial_805_1933)"/>
<path fill-rule="evenodd" clip-rule="evenodd" d="M175.249 55.8355C172.413 51.5135 168.496 46.3811 163.493 40.4383C160.927 37.602 158.971 35.8462 157.626 35.1654C155.6 34.0849 153.234 34.2902 150.533 35.7759C147.021 37.8019 143.979 40.1628 141.413 42.8694C138.307 46.2406 136.951 49.3471 137.361 52.1888C138.977 62.1889 139.787 68.4666 139.787 71.0274C139.787 77.5105 129.258 80.3522 108.182 79.5364C106.286 79.5364 105.956 76.0896 107.167 69.2068C108.517 61.5028 106.691 56.3704 101.688 53.8042C96.5615 51.238 91.9693 51.3028 87.9174 54.0095C81.9692 57.9263 78.0578 60.0171 76.1615 60.2872C71.1696 61.2326 66.5072 63.0587 62.1852 65.76C58.2683 68.056 55.5671 70.4169 54.0814 72.8535C52.3255 75.8249 50.0943 76.9702 47.3984 76.3003C47.9387 74.8146 48.8841 73.1236 50.2294 71.2327C52.9306 67.4509 56.1721 64.6092 59.9539 62.7237C61.5801 62.0484 66.3721 60.1575 74.3409 57.0511C79.8784 54.7496 83.6602 52.7939 85.6862 51.1731C88.1173 49.0175 91.4291 47.7966 95.6106 47.5264C99.803 47.3914 103.379 48.2666 106.351 50.1575C112.029 53.9392 114.854 59.882 114.854 67.9858C114.854 72.4429 114.925 74.8092 115.065 75.0793C115.465 76.3003 117.491 77.0404 121.143 77.3106C125.735 77.5807 129.647 76.7001 132.888 74.6741C136.54 72.3781 137.75 69.3418 136.54 65.5547C134.514 60.6978 133.158 57.1807 132.488 55.0251C131.537 51.373 132.148 48.0018 134.314 44.8954C137.821 39.4929 142.418 35.3707 148.085 32.5344C155.519 28.758 161.257 29.8332 165.309 35.7813C169.496 41.7241 172.337 45.5059 173.823 47.1266C174.223 47.5318 175.303 48.407 177.065 49.7577C178.82 50.9786 179.69 54.1499 179.69 59.2823L176.865 61.8161C177.486 60.3736 176.946 58.3855 175.249 55.8355Z" fill="url(#paint13_radial_805_1933)"/>
<path fill-rule="evenodd" clip-rule="evenodd" d="M62.6053 7.61816C63.8209 7.61816 63.8209 8.02335 62.6053 8.83373C59.769 10.4599 58.078 11.4702 57.5377 11.8754C54.8365 13.7716 53.4858 17.9532 53.4858 24.4362C53.4858 25.7869 53.0807 25.722 52.2649 24.2363C51.5896 22.7506 51.3194 20.7247 51.4599 18.1585C51.5896 15.3222 52.9456 12.8208 55.5118 10.6598C57.8079 8.63384 60.1742 7.61816 62.6053 7.61816Z" fill="white"/>
<path fill-rule="evenodd" clip-rule="evenodd" d="M17.8289 38.4189C20.8003 38.4189 23.3665 38.8944 25.5275 39.8398C27.6885 40.7853 27.9587 41.2553 26.3379 41.2553C25.7976 41.2553 23.5718 41.8009 19.655 42.8814C15.8732 43.8269 13.1017 44.2267 11.3459 44.097C8.92014 43.9673 8.77968 43.0165 10.9461 41.2607C13.1017 39.359 15.3978 38.4189 17.8289 38.4189Z" fill="white"/>
<path fill-rule="evenodd" clip-rule="evenodd" d="M84.2811 21.1917C85.5021 24.7033 85.702 26.4591 84.8916 26.4591C83.9461 26.4591 83.2006 25.3138 82.6603 23.0123C82.2551 20.9864 82.2551 19.706 82.6603 19.1657C83.0655 18.7605 83.6058 19.4358 84.2811 21.1917Z" fill="white"/>
<path fill-rule="evenodd" clip-rule="evenodd" d="M102.714 8.43022C104.475 8.55988 105.82 9.2352 106.766 10.4562C107.576 11.6717 107.041 11.9419 105.15 11.2611C103.935 10.856 102.044 10.7911 99.4722 11.0613C96.906 11.3314 95.3554 11.3314 94.8152 11.0613C93.7347 10.7911 94.3398 10.2509 96.6358 9.4405C98.9373 8.63012 100.963 8.28976 102.714 8.43022Z" fill="white"/>
<path fill-rule="evenodd" clip-rule="evenodd" d="M138.575 12.4842C140.331 13.0244 141.141 13.6997 141.001 14.5101C140.871 15.3151 139.926 15.3853 138.164 14.71C136.949 14.1698 134.723 14.4399 131.487 15.5204C128.51 16.4658 126.689 16.736 126.009 16.3308C124.934 15.6555 126.284 14.71 130.061 13.4999C133.713 12.2789 136.549 11.9439 138.575 12.4842Z" fill="white"/>
<path fill-rule="evenodd" clip-rule="evenodd" d="M97.8565 32.7423C100.282 32.0616 101.157 32.537 100.482 34.1577C99.8122 35.7839 98.2563 36.5889 95.8252 36.5889C93.5291 36.5889 92.9888 36.0486 94.2044 34.9681C95.1498 33.8876 96.3654 33.1421 97.8565 32.7423Z" fill="white"/>
<path fill-rule="evenodd" clip-rule="evenodd" d="M181.523 33.3476C184.905 33.4773 185.645 34.0229 183.749 34.9683C181.863 35.7787 180.037 36.1137 178.281 35.984C176.801 35.8544 176.59 35.3789 177.671 34.5632C178.622 33.6177 179.908 33.2125 181.523 33.3476Z" fill="white"/>
<path fill-rule="evenodd" clip-rule="evenodd" d="M67.8731 37.1933C70.5744 37.7389 71.1848 38.1387 69.6991 38.4142C68.2135 38.6843 66.4522 38.6141 64.4263 38.2089C63.0757 37.9388 60.7796 38.2792 57.5435 39.2246C55.2474 39.7703 54.3668 39.8351 54.907 39.4299C55.9929 38.4845 57.9487 37.8091 60.785 37.4039C63.6159 36.8583 65.9768 36.7935 67.8731 37.1933Z" fill="white"/>
<path fill-rule="evenodd" clip-rule="evenodd" d="M33.6322 27.2737C35.5285 26.8685 36.7441 26.7982 37.2843 27.0684C37.8246 27.3439 37.2843 27.7491 35.6582 28.2893C34.5777 28.6945 33.1622 29.9101 31.4064 31.936C29.9207 33.5568 28.9104 34.0916 28.3648 33.5568C27.6894 32.8815 28.1649 31.7361 29.7856 30.11C31.2713 28.4892 32.5517 27.5438 33.6322 27.2737Z" fill="white"/>
<path fill-rule="evenodd" clip-rule="evenodd" d="M104.137 50.5713C105.212 51.1115 106.433 52.057 107.778 53.4022C109.004 54.8879 109.739 56.2385 110.015 57.4541C110.414 59.48 109.134 58.5346 106.163 54.6232C105.352 53.4022 103.726 52.4621 101.3 51.7868C98.7287 50.9819 97.3186 50.4362 97.0485 50.1661C96.3732 49.4908 96.8432 49.1504 98.464 49.1504C100.22 49.2801 102.111 49.7555 104.137 50.5713Z" fill="white"/>
<path fill-rule="evenodd" clip-rule="evenodd" d="M119.331 52.19C121.757 52.3196 122.572 52.7951 121.757 53.6108C120.946 54.2862 119.801 54.351 118.315 53.8107C117.1 53.2705 116.689 52.8653 117.1 52.5952C117.37 52.19 118.115 52.0603 119.331 52.19Z" fill="white"/>
<path fill-rule="evenodd" clip-rule="evenodd" d="M90.5571 57.2581C92.7235 55.9074 92.3777 56.988 89.5414 60.4996C86.7051 63.8762 84.9492 65.297 84.2739 64.7568C83.5986 64.2165 84.2091 63.001 86.1 61.1101C87.5857 59.4839 89.0714 58.2035 90.5571 57.2581Z" fill="white"/>
<path fill-rule="evenodd" clip-rule="evenodd" d="M146.068 34.7673C147.824 33.9569 147.759 34.427 145.868 36.1828C143.032 38.7544 141.071 40.5102 139.99 41.4556C138.64 42.8063 137.624 44.4973 136.949 46.5232C136.138 49.0894 135.668 50.44 135.533 50.5751C134.723 52.1959 134.517 50.9155 134.923 46.7231C135.058 44.8322 136.678 42.4713 139.785 39.6296C142.362 37.0634 144.453 35.4426 146.068 34.7673Z" fill="white"/>
<path fill-rule="evenodd" clip-rule="evenodd" d="M166.527 51.7802C166.667 52.3205 165.927 52.2556 164.301 51.5803C162.145 50.6349 160.449 50.0946 159.233 49.9595C152.615 49.5544 148.563 48.8088 147.078 47.7283C146.537 47.3231 146.808 47.188 147.888 47.3231C149.914 47.7283 151.605 47.8688 152.956 47.7283C155.792 47.5986 158.763 48.0687 161.87 49.1492C164.847 50.0946 166.397 50.9752 166.527 51.7802Z" fill="white"/>
<path fill-rule="evenodd" clip-rule="evenodd" d="M161.468 62.316C159.988 62.316 159.583 61.8406 160.253 60.8952C160.928 59.8147 162.008 59.2744 163.494 59.2744C168.227 59.4041 169.572 59.9497 167.546 60.8952C165.66 61.8406 163.635 62.316 161.468 62.316Z" fill="white"/>
<path fill-rule="evenodd" clip-rule="evenodd" d="M46.3943 38.2063C49.2252 38.3414 49.4359 38.9518 46.9994 40.0324C44.7033 41.2479 43.0825 41.3128 42.1371 40.2323C40.5163 38.6169 41.9372 37.9416 46.3943 38.2063Z" fill="#EFDFA1"/>
<path fill-rule="evenodd" clip-rule="evenodd" d="M27.3518 47.3252C29.5128 47.3252 31.3335 47.7304 32.8246 48.5462C34.1752 49.3511 34.6452 50.0319 34.2454 50.5721C33.9753 51.1124 32.4896 51.5176 29.7884 51.7877C27.0871 52.0632 25.0612 51.993 23.7105 51.5878C22.2248 51.3123 21.9547 50.5073 22.9001 49.1567C23.7051 47.9357 25.1908 47.3252 27.3518 47.3252Z" fill="#EFDFA1"/>
<path fill-rule="evenodd" clip-rule="evenodd" d="M62.6057 44.0834C65.1719 43.9538 66.1822 44.4886 65.6473 45.7042C64.972 46.6496 63.6862 47.3249 61.7953 47.7301C59.7694 48.5405 58.2837 49.0808 57.3383 49.3509C55.8526 49.8965 54.4317 49.9614 53.0865 49.5562C51.6008 49.0159 52.2059 48.0057 54.9071 46.5146C57.6084 45.0289 60.1746 44.2185 62.6057 44.0834Z" fill="#EFDFA1"/>
<path fill-rule="evenodd" clip-rule="evenodd" d="M75.9749 47.5286C78.0008 49.9597 78.2709 50.9754 76.7852 50.5702C75.1591 50.165 73.8787 49.2844 72.9332 47.9391C72.1228 46.8586 72.0526 46.1131 72.7333 45.7079C73.5383 45.2973 74.6242 45.9078 75.9749 47.5286Z" fill="white"/>
<path fill-rule="evenodd" clip-rule="evenodd" d="M62.3988 56.2406C66.7208 57.3211 69.0169 58.1369 69.287 58.6717C69.5572 58.9418 68.5415 59.1471 66.2454 59.2768C64.3545 59.5469 62.1935 59.1471 59.7624 58.0612C57.3312 57.1158 55.7807 56.1055 55.1054 55.0196C54.7002 54.0741 55.1702 53.8689 56.5263 54.4091C60.173 55.6355 62.1287 56.2406 62.3988 56.2406Z" fill="white"/>
<path fill-rule="evenodd" clip-rule="evenodd" d="M83.2612 47.124C84.7469 47.124 85.2223 47.7993 84.6821 49.15C84.0068 50.3655 82.9911 50.7005 81.6405 50.1657C80.2898 49.6254 79.8846 48.9501 80.4249 48.1397C80.9651 47.459 81.916 47.124 83.2612 47.124Z" fill="white"/>
<path fill-rule="evenodd" clip-rule="evenodd" d="M96.6359 22.0006C100.283 22.5463 101.974 23.2216 101.698 24.0266C101.568 24.837 100.623 25.2476 98.8726 25.2476C97.3869 25.2476 95.6257 25.0423 93.5997 24.6425C91.3037 24.2373 89.9584 23.7619 89.5478 23.2216C88.8725 22.5463 89.2777 22.0709 90.7688 21.8007C92.3842 21.536 94.3399 21.6008 96.6359 22.0006Z" fill="white"/>
<path fill-rule="evenodd" clip-rule="evenodd" d="M116.09 28.6904C123.648 28.6904 125.809 29.0902 122.567 29.906C118.38 30.9865 115.614 31.4565 114.264 31.3269C112.778 31.1918 112.303 30.7218 112.837 29.906C113.523 29.0902 114.604 28.6904 116.09 28.6904Z" fill="#EFDFA1"/>
<path fill-rule="evenodd" clip-rule="evenodd" d="M120.143 37.3997C122.839 36.3192 123.514 36.384 122.169 37.5996C120.813 38.6801 119.063 39.7606 116.891 40.8465C115.14 41.6515 112.369 42.1917 108.587 42.4673C105.211 42.7374 102.709 42.7374 101.094 42.4673C99.8783 42.3322 100.618 41.8622 103.32 41.0464C106.021 40.3711 108.452 40.0307 110.613 40.0307C112.509 40.0307 114.195 39.7606 115.681 39.2203C116.496 38.9502 117.977 38.3451 120.143 37.3997Z" fill="white"/>
<path fill-rule="evenodd" clip-rule="evenodd" d="M122.369 68.8063C123.039 68.8063 123.72 69.3465 124.395 70.427C124.935 71.5075 124.595 72.2531 123.379 72.6529C122.023 72.923 120.608 72.7879 119.127 72.2531C117.642 71.5723 116.691 70.6269 116.291 69.4167C115.881 68.6064 116.156 68.2012 117.102 68.2012C120.078 68.5956 121.829 68.8063 122.369 68.8063Z" fill="#EFDFA1"/>
<path fill-rule="evenodd" clip-rule="evenodd" d="M104.541 67.5847C106.837 66.2395 106.637 67.9899 103.942 72.8576C103.396 73.803 102.18 74.3433 100.29 74.4783C98.5337 74.608 97.1831 74.2082 96.2376 73.2628C95.5623 72.582 96.2376 71.7068 98.2636 70.6263C99.6142 70.0861 101.7 69.0704 104.541 67.5847Z" fill="#EFDFA1"/>
<path fill-rule="evenodd" clip-rule="evenodd" d="M49.0304 64.3456C51.3265 65.6962 51.2562 66.2419 48.8251 65.9663C46.3994 65.6962 44.7732 65.0209 43.9682 63.9404C43.1578 62.995 43.2929 62.5195 44.3734 62.5195C45.4539 62.66 47.0044 63.2651 49.0304 64.3456Z" fill="white"/>
<path fill-rule="evenodd" clip-rule="evenodd" d="M59.9699 62.7272C61.8662 62.322 61.7959 63.0675 59.77 64.953C57.8791 66.7088 56.1881 67.9244 54.7024 68.5997C53.4869 69.0049 53.6867 68.1999 55.3075 66.174C56.9283 64.148 58.4842 62.9919 59.9699 62.7272Z" fill="white"/>
<path fill-rule="evenodd" clip-rule="evenodd" d="M150.118 29.7041C156.066 31.4545 159.578 34.091 160.658 37.6026C159.578 36.3871 156.941 34.9014 152.754 33.1455C148.292 31.3951 146.001 30.4443 145.866 30.3146C145.191 29.9094 145.396 29.6393 146.477 29.5042C147.557 29.2287 148.767 29.2989 150.118 29.7041Z" fill="white"/>
<path fill-rule="evenodd" clip-rule="evenodd" d="M129.46 41.2493C133.242 42.1947 133.982 43.0753 131.686 43.8857C129.525 44.8312 127.234 45.1013 124.798 44.6907C122.907 44.2855 122.772 43.5454 124.398 42.4648C126.154 41.2493 127.834 40.8495 129.46 41.2493Z" fill="#EFDFA1"/>
<path fill-rule="evenodd" clip-rule="evenodd" d="M82.2523 35.3755C84.0081 35.1 84.7537 35.7159 84.4835 37.1961C84.3485 38.6818 83.6029 39.2923 82.2523 39.0222C81.0367 38.8925 80.4316 38.2767 80.4316 37.1961C80.4316 36.2507 81.0367 35.6456 82.2523 35.3755Z" fill="white"/>
<path fill-rule="evenodd" clip-rule="evenodd" d="M73.7468 19.7716C74.9624 19.3664 75.1623 19.7014 74.3519 20.7873C73.5415 21.7327 72.3908 22.6133 70.9051 23.4183C67.2584 25.5793 64.4221 26.4599 62.3961 26.0494C61.3156 25.9197 61.4507 25.5091 62.8013 24.8338C64.0169 24.2935 65.2973 23.9532 66.6533 23.8181C67.4583 23.8181 68.474 23.2779 69.6949 22.1974C71.0456 20.9872 72.3962 20.1822 73.7468 19.7716Z" fill="white"/>
<path fill-rule="evenodd" clip-rule="evenodd" d="M183.351 43.4785H189.229C189.499 44.1538 189.629 45.1695 189.629 46.5201C189.629 56.3743 180.38 64.7537 161.876 71.6365C143.372 78.5247 121.017 81.9715 94.8144 81.9715C68.6067 81.9715 46.2564 78.5247 27.7528 71.6365C9.24913 64.7537 0 56.3743 0 46.5201L0.405189 43.4785H7.29341V45.0993C7.29341 53.8784 15.8726 61.3069 33.0257 67.3847C50.1787 73.5922 70.9136 76.7041 95.225 76.7041C119.671 76.7041 140.471 73.5976 157.63 67.3847C174.783 61.3069 183.356 53.8784 183.356 45.0993L183.351 43.4785Z" fill="white"/>
<path fill-rule="evenodd" clip-rule="evenodd" d="M50.3011 18.6978C48.9342 19.2003 47.8645 20.0485 47.092 21.2478L53.5102 20.4699C52.2946 19.7081 51.2249 19.1084 50.3011 18.6978ZM57.789 26.8016C57.9295 26.9043 60.7874 28.1414 66.3466 30.5078C70.9117 32.4635 72.9809 33.9059 72.5541 34.8352C71.9814 35.8563 68.9128 36.6342 63.3482 37.1475C58.2104 37.3528 54.6447 37.6661 52.6512 38.0767C49.226 38.7952 46.6598 40.9022 44.9472 44.4031C44.6608 45.0189 44.596 46.872 44.7311 49.9569C44.8715 52.3232 44.0882 54.079 42.3756 55.2081C38.3777 57.7851 36.3842 56.7532 36.3842 52.1233C36.3842 51.1994 37.5241 48.8818 39.8094 45.181C40.9493 43.4306 39.4528 41.4263 35.3145 39.1572C30.463 37.5094 27.0378 36.121 25.0443 34.9919C21.3327 32.8308 22.6185 30.7725 28.8963 28.8114C30.3225 28.4008 33.8882 28.968 39.5933 30.5078C44.4447 31.8476 47.5836 31.5883 49.0099 29.7352C47.7295 26.337 46.8002 23.5115 46.2276 21.2478C45.4388 17.9037 46.7894 17.0555 50.2903 18.6978C50.6955 18.5358 51.1223 18.4007 51.5761 18.3142C53.575 17.9036 55.574 18.1089 57.5675 18.9301C56.1466 22.7389 56.2223 25.3591 57.789 26.8016Z" fill="#B54624"/>
<path fill-rule="evenodd" clip-rule="evenodd" d="M118.783 16.6114L113.862 14.4504C116.8 15.8658 115.731 18.8534 110.647 23.4024C105.655 27.827 106.228 30.9173 112.36 32.6677C110.22 35.8552 106.012 36.6277 99.7339 34.9854C90.3119 32.4084 85.2497 31.1226 84.5366 31.1226C83.3967 27.6271 84.8932 25.3635 89.0315 24.3316C91.3114 23.7157 95.0985 23.143 100.377 22.6352C98.6642 18.0052 100.658 14.607 106.363 12.4514C112.219 10.1824 116.357 11.5708 118.783 16.6114Z" fill="#B54624"/>
<path fill-rule="evenodd" clip-rule="evenodd" d="M130.556 26.4958C129.843 23.0976 131.836 21.2932 136.547 21.0933C140.102 20.9906 143.533 21.6875 146.818 23.1732C149.6 22.3845 152.096 21.5795 154.311 20.7853C155.743 20.58 157.66 21.6605 160.086 24.0322C162.75 28.6784 163.965 30.6665 163.727 29.975C164.035 30.753 164.965 31.4013 166.51 31.9037C167.363 32.2117 167.363 33.1841 166.51 34.8373C164.797 38.3273 162.301 39.1539 159.022 37.3063C155.591 34.3187 153.241 32.4656 151.955 31.7471C149.097 30.0993 145.748 28.7649 141.896 27.733C137.763 26.7011 133.981 26.2905 130.556 26.4958Z" fill="#B54624"/>
<path fill-rule="evenodd" clip-rule="evenodd" d="M97.3833 49.7996C91.246 49.389 87.6047 48.8758 86.4648 48.2599C83.6069 46.5095 84.5361 44.8131 89.2417 43.1653C93.2396 41.8309 97.0213 41.215 100.587 41.3123C102.3 41.3123 105.584 41.9281 110.43 43.1653C113.569 43.8893 116.352 43.5273 118.777 42.0848C121.344 39 123.197 36.9956 124.342 36.0664C125.909 34.7536 128.972 35.0345 133.542 36.9146L129.474 35.1426C135.466 36.4824 137.681 38.2814 136.114 40.5451C133.402 44.6618 132.186 47.2334 132.473 48.2653C132.759 49.2972 135.255 50.8855 139.966 53.052C143.818 54.797 144.812 56.9634 142.964 59.535C141.533 61.7986 138.826 62.1552 134.828 60.6101C130.263 58.3464 127.059 57.0606 125.201 56.7527C119.636 56.7527 115.638 56.6446 113.213 56.4447C108.934 56.0287 107.864 54.0784 110.004 50.5776C109.296 50.4695 105.087 50.2156 97.3833 49.7996Z" fill="#B54624"/>
<path fill-rule="evenodd" clip-rule="evenodd" d="M160.52 42.0807C162.519 42.4967 164.01 43.3179 165.015 44.5497L165.123 44.7064L160.52 42.0807ZM165.226 44.9441C165.901 46.084 166.042 47.3914 165.658 48.8825C161.941 49.0878 158.165 48.8285 154.313 48.11C149.029 46.9754 146.749 45.225 147.462 42.8587C148.176 40.4924 150.952 40.0278 155.809 41.4649C158.251 42.2428 161.39 43.4044 165.226 44.9441Z" fill="#B54624"/>
<path fill-rule="evenodd" clip-rule="evenodd" d="M141.149 68.0173C141.435 68.4495 141.754 68.9627 142.116 69.557C139.404 71.8261 134.342 73.3658 126.919 74.187C120.063 74.9109 114.574 74.8029 110.436 73.8736C111.435 73.3604 114.001 71.4047 118.14 68.0119C121.138 65.5375 123.85 64.1005 126.276 63.6845C129.701 63.0686 132.98 63.5818 136.119 65.2296C137.373 65.9319 139.047 66.8557 141.149 68.0173Z" fill="#B54624"/>
<path fill-rule="evenodd" clip-rule="evenodd" d="M56.9341 58.7518C61.0724 59.573 64.4976 59.3136 67.2097 57.9792C67.496 57.8712 69.6354 55.6129 73.6279 51.1882C75.9077 48.6112 78.9061 48.3033 82.6177 50.259C85.1893 51.8041 85.1893 53.5491 82.6177 55.5103C81.0509 56.5367 78.4091 58.2385 74.703 60.5994C76.7019 63.9976 78.1228 65.9533 78.9818 66.4666C80.1217 67.0825 83.0499 67.4444 87.7555 67.5471C95.0327 67.7524 98.9549 67.9037 99.5276 68.0117C103.671 68.7303 105.454 70.8913 104.876 74.4893C87.3287 74.6946 74.1303 74.6946 65.2864 74.4893C59.7218 74.2894 54.2274 73.3062 48.8087 71.5558C41.1533 69.0868 36.3396 67.5471 34.3623 66.9312C37.7389 67.8388 40.3429 67.0609 42.169 64.6135C45.0215 60.9074 47.0204 58.8544 48.1604 58.4384C49.7271 57.8225 52.6553 57.9306 56.9341 58.7518Z" fill="#B54624"/>
<path fill-rule="evenodd" clip-rule="evenodd" d="M75.9785 59.8351H74.9088C76.3351 56.7503 79.1174 55.4591 83.2557 55.9777C84.3957 59.5758 83.0397 62.2014 79.1877 63.8492C79.6145 64.0491 80.2573 64.6704 81.1109 65.7023C82.1104 66.6261 82.8938 67.2474 83.4665 67.5553C81.1812 69.2031 78.2584 68.6305 74.6927 65.859C71.1271 63.0767 71.5593 61.0723 75.9785 59.8351Z" fill="#782E18"/>
<path fill-rule="evenodd" clip-rule="evenodd" d="M54.5788 64.4658L53.5091 65.2384C54.3681 65.341 56.1455 66.0596 58.863 67.3994C56.5777 69.663 54.6544 70.1223 53.0877 68.7878C51.5102 67.448 52.0126 66.0055 54.5788 64.4658Z" fill="#782E18"/>
<path fill-rule="evenodd" clip-rule="evenodd" d="M118.787 47.4817H118.576C118.997 49.2321 121.282 51.4417 125.421 54.1214C129.138 56.385 132.487 57.9788 135.48 58.908C132.768 60.0372 129.489 59.9831 125.637 58.7513C120.791 57.3089 117.43 56.639 115.583 56.747C116.15 60.6584 115.226 62.2036 112.795 61.377C110.369 60.653 108.516 59.0107 107.23 56.4391C106.231 53.0409 105.453 50.9285 104.875 50.1073C104.162 49.0808 101.309 48.1516 96.3174 47.325C97.3169 44.9587 100.596 44.2402 106.166 45.1694C109.159 45.7907 113.362 46.5578 118.787 47.4817Z" fill="#782E18"/>
<path fill-rule="evenodd" clip-rule="evenodd" d="M132.7 43.6231L128.416 42.8506C134.98 43.0559 136.552 44.3903 133.127 46.8593C132.122 47.6804 131.204 47.8911 130.345 47.4751C129.199 46.9619 128.913 45.6761 129.486 43.6177C130.204 43.5259 131.274 43.5259 132.7 43.6231Z" fill="#782E18"/>
<path fill-rule="evenodd" clip-rule="evenodd" d="M139.542 27.7272C137.402 27.0086 135.835 26.0794 134.836 24.9503C137.262 24.1291 140.401 23.9724 144.253 24.4856C145.711 24.6801 147.564 24.9395 149.817 25.2582C149.882 25.6148 150.093 26.2361 150.46 27.1167C150.887 28.1432 151.027 28.9697 150.887 29.5856C155.166 30.5095 158.234 32.5678 160.087 35.7607C161.795 39.0509 159.731 39.5695 153.885 37.3058C152.313 36.7872 150.817 35.6581 149.39 33.9077C147.678 31.8493 146.327 30.5095 145.322 29.8936C144.328 29.2723 142.399 28.5483 139.542 27.7272Z" fill="#782E18"/>
<path fill-rule="evenodd" clip-rule="evenodd" d="M80.4727 28.5749C81.456 28.2183 82.8174 28.0887 84.5408 28.1913L82.9363 28.4236C83.2226 28.51 83.4765 28.6343 83.6818 28.8072C84.5408 29.5311 84.395 30.8115 83.255 32.67C79.403 32.562 77.8363 31.7408 78.544 30.201C78.7547 29.6392 79.1437 29.2016 79.7218 28.8882L79.1869 28.9693C79.6408 28.791 80.0621 28.6613 80.4727 28.5749Z" fill="#782E18"/>
<path fill-rule="evenodd" clip-rule="evenodd" d="M65.9277 29.8876C68.4939 31.0222 73.1293 32.7672 79.8392 35.1389C76.8408 36.268 72.6322 37.2999 67.2135 38.2237C61.3626 39.3529 57.0838 40.3361 54.3717 41.1573C50.5197 42.3945 47.4511 45.582 45.1658 50.7252C42.8859 55.6631 40.6709 58.3914 38.5315 58.91C38.1047 52.2217 38.9583 47.1757 41.0977 43.7775C43.8098 39.6608 48.9476 36.9325 56.5111 35.5981C52.7942 32.9185 50.7304 29.6769 50.3036 25.8682C51.1788 25.8682 52.389 26.0734 53.9395 26.4894C54.7121 24.4851 55.2847 22.994 55.6521 22.0107C58.0778 25.4089 61.503 28.04 65.9277 29.8876Z" fill="#782E18"/>
<path fill-rule="evenodd" clip-rule="evenodd" d="M74.1663 16.6953L73.8422 16.6143C77.6942 16.9222 79.6175 18.262 79.6175 20.6283C79.477 22.892 77.624 23.5619 74.0529 22.6327C70.6277 21.7088 69.558 20.2177 70.8438 18.1594C71.5731 17.0465 72.6807 16.5656 74.1663 16.6953Z" fill="#782E18"/>
<path fill-rule="evenodd" clip-rule="evenodd" d="M155.17 49.8001L153.031 43.7061C153.279 44.2625 154.781 45.7806 157.525 48.2604C159.384 49.9082 159.524 51.3993 157.958 52.7337C156.672 54.0735 154.176 54.2788 150.464 53.3496C146.466 52.0151 143.754 51.0859 142.328 50.5727C142.901 47.5851 144.824 46.0399 148.103 45.9427C151.242 45.8401 153.603 47.1259 155.17 49.8001Z" fill="#782E18"/>
<path fill-rule="evenodd" clip-rule="evenodd" d="M86.6833 38.2222L81.3294 37.4497C83.1879 35.8019 85.4678 35.3373 88.1798 36.0558C90.8919 36.7797 91.6753 38.1682 90.5408 40.2266C89.8276 41.4583 87.6126 42.5929 83.901 43.6193C81.3348 44.3433 78.6984 44.8079 75.9863 45.0078C75.4137 42.7441 76.2727 40.9451 78.5525 39.6053C80.8378 38.3789 83.5445 37.9197 86.6833 38.2222Z" fill="#782E18"/>
<path fill-rule="evenodd" clip-rule="evenodd" d="M118.899 26.6484C122.13 27.2589 124.518 27.5182 126.063 27.421C126.063 29.6847 124.632 31.1271 121.784 31.743C118.932 32.3589 116.15 32.0996 113.438 30.9705C113.794 28.3664 115.615 26.9294 118.899 26.6484Z" fill="#782E18"/>
<path fill-rule="evenodd" clip-rule="evenodd" d="M103.802 61.3807H102.197C103.986 61.559 105.731 62.0236 107.443 62.7692C110.442 64.109 111.652 65.908 111.084 68.1717C103.38 67.7611 97.67 66.216 93.9639 63.5417C94.9633 62.0992 96.3194 61.224 98.032 60.9215C99.8796 60.5055 101.808 60.6622 103.802 61.3807Z" fill="#782E18"/>
<path fill-rule="evenodd" clip-rule="evenodd" d="M56.7185 52.1179L54.5791 51.3454C60.4301 50.6214 62.4939 51.756 60.7867 54.7382C59.0741 57.6231 55.9352 58.239 51.37 56.5966C50.7974 53.8143 52.5802 52.3232 56.7185 52.1179Z" fill="#782E18"/>
<path fill-rule="evenodd" clip-rule="evenodd" d="M115.038 13.603C114.849 13.5706 114.676 13.549 114.503 13.5273H115.897C115.611 13.5436 115.33 13.5706 115.038 13.603C117.831 13.8731 123.277 14.1054 131.408 14.2945C131.548 16.8715 128.409 18.6705 121.991 19.697C114.001 21.0369 109.014 22.4793 107.015 24.0245C106.162 21.2422 106.729 18.7732 108.728 16.6122C110.251 14.8834 112.353 13.8785 115.038 13.603Z" fill="#782E18"/>
<path fill-rule="evenodd" clip-rule="evenodd" d="M57.7872 18.1602L56.9282 18.4681C56.5014 18.6734 56.4312 19.03 56.7121 19.5486C59.4242 19.7539 63.2762 19.5486 68.2735 18.9327C69.1325 22.0176 68.3438 25.0538 65.918 28.0414C61.207 26.7016 58.0681 25.6751 56.5014 24.9565C53.9298 23.822 53.6435 21.5583 55.6424 18.1656L57.7872 18.1602Z" fill="#90A701"/>
<path fill-rule="evenodd" clip-rule="evenodd" d="M88.8217 9.6709L86.6823 11.216C89.2485 11.3187 91.1016 12.2425 92.247 13.9983C93.1005 15.5434 93.3166 17.3911 92.8898 19.5521C87.6062 20.0654 84.3268 18.8822 83.0464 16.0027C81.6148 13.1123 83.5435 11.0053 88.8217 9.6709Z" fill="#90A701"/>
<path fill-rule="evenodd" clip-rule="evenodd" d="M127.672 18.8497C129.466 17.9853 131.427 17.753 133.556 18.1582C133.696 21.6536 132.486 23.8146 129.914 24.6358C127.921 25.3597 125.776 25.1004 123.496 23.8632C121.216 22.6261 120.503 21.4483 121.357 20.3138C122.302 19.4062 124.409 18.9199 127.672 18.8497Z" fill="#90A701"/>
<path fill-rule="evenodd" clip-rule="evenodd" d="M139.118 34.3672C137.951 34.7832 136.887 35.5828 135.903 36.7551C135.266 36.4526 134.547 36.1716 133.764 35.9069L139.118 34.3672ZM135.903 36.7605C139.015 38.1814 140.517 39.9534 140.398 42.082C140.258 44.659 137.686 44.551 132.694 41.7741C134.121 39.3051 134.974 37.9167 135.261 37.6087C135.477 37.3008 135.687 37.0198 135.903 36.7605Z" fill="#90A701"/>
<path fill-rule="evenodd" clip-rule="evenodd" d="M127.88 52.3522C128.215 52.4549 128.533 52.5845 128.841 52.7358C130.268 53.4219 131.121 54.6051 131.413 56.2853C131.98 59.4782 129.56 60.1967 124.136 58.4463C119.716 56.9012 118.717 55.356 121.137 53.8163C122.326 53.0113 123.687 52.5251 125.205 52.3522C126.048 52.255 126.945 52.255 127.88 52.3522Z" fill="#90A701"/>
<path fill-rule="evenodd" clip-rule="evenodd" d="M86.6832 62.1506L83.4741 63.6903C88.1797 62.9718 90.8216 63.9496 91.3888 66.6239C91.9615 69.2009 89.7519 70.5407 84.7545 70.638C78.9036 70.638 76.9101 69.0928 78.7631 66.008C80.4757 62.9231 83.1176 61.6319 86.6832 62.1506Z" fill="#90A701"/>
<path fill-rule="evenodd" clip-rule="evenodd" d="M40.7775 50.6484C40.6424 50.7943 40.5019 50.951 40.3453 51.1131C40.113 51.1671 39.8644 51.2427 39.5943 51.3454L40.7775 50.6484ZM40.3453 51.1131C43.992 49.9677 45.8883 51.1779 46.0233 54.7382C46.1638 58.5469 44.3107 60.2487 40.4587 59.8327C36.8876 59.4221 36.1043 57.515 38.1032 54.1223C38.8217 52.9337 39.5673 51.9288 40.3453 51.1131Z" fill="#90A701"/>
<path fill-rule="evenodd" clip-rule="evenodd" d="M27.8287 35.139C30.6812 34.6203 33.4635 35.0849 36.1756 36.5274C38.8823 38.1752 38.6013 39.7203 35.3166 41.1574C32.1777 42.4972 29.752 42.0326 28.0394 39.7689C26.3322 37.6079 26.2565 35.6036 27.8233 33.7451C27.5478 34.3664 27.5478 34.831 27.8287 35.139Z" fill="#90A701"/>
<path fill-rule="evenodd" clip-rule="evenodd" d="M158.376 26.6527H156.242C160.521 26.0368 163.735 27.0633 165.869 29.7375L164.589 34.2108C163.589 33.9029 162.946 33.6976 162.665 33.5949C162.379 33.3896 161.947 32.8764 161.385 32.0552C160.099 32.2605 158.381 32.2065 156.247 31.9039C155.383 29.7375 156.101 27.9871 158.376 26.6527Z" fill="#90A701"/>
<path fill-rule="evenodd" clip-rule="evenodd" d="M144.944 26.0049C146.625 26.0049 146.9 26.3344 145.782 26.9881C144.663 27.4528 143.777 27.9174 143.129 28.3874C141.357 29.8731 139.207 31.0887 136.695 32.0233C130.266 33.7953 124.809 35.3783 120.33 36.7775C114.55 38.6468 108.213 42.4232 101.308 48.112C96.1812 52.4935 90.4437 56.1726 84.1011 59.1602C82.3291 59.9976 80.1843 61.4941 77.6667 63.6335L74.4522 66.4374L72.3506 62.3801V53.5686C69.3684 51.9802 66.7104 50.3054 64.3765 48.528C59.7195 44.9894 59.0658 42.7905 62.4207 41.9531C67.7368 40.6457 95.2465 35.3242 144.944 26.0049Z" fill="#8F7F59"/>
<path fill-rule="evenodd" clip-rule="evenodd" d="M38.0882 55.6611C61.5838 59.297 73.4262 61.5337 73.6153 62.3711L74.5931 66.5634L63.8259 66.2825C60.19 66.0988 53.3342 65.1156 43.2639 63.3489C40.7463 62.9762 37.0672 62.0902 32.2157 60.6909C27.737 59.4753 24.9439 58.5893 23.8256 58.0328L21.1621 56.4985C27.1265 55.9367 32.7721 55.6611 38.0882 55.6611Z" fill="#94845D"/>
<path fill-rule="evenodd" clip-rule="evenodd" d="M116.968 29.3631C133.008 27.0292 141.587 25.873 142.705 25.873C144.477 25.873 145.596 25.9649 146.06 26.154C146.53 26.3377 146.157 26.5214 144.942 26.7104C144.007 26.8995 143.359 27.1805 142.986 27.5532C142.424 28.0179 142.051 28.2988 141.868 28.3906C138.232 30.4436 133.942 31.9293 128.999 32.8639C123.121 34.1713 116.784 36.4512 109.977 39.7197C107.454 40.9353 104.05 43.2638 99.7604 46.716C95.1899 50.4438 91.6026 53.01 88.9932 54.4092C85.541 56.2731 82.0456 58.6502 78.5015 61.5405L74.1633 65.1764C70.8083 65.8302 66.1891 65.7815 60.3166 65.0414C54.5359 64.2904 50.3381 63.734 47.7233 63.3612C43.1528 62.6102 39.6141 61.8647 37.0965 61.1191L20.5918 56.3649C24.5086 53.5664 27.4908 51.3244 29.5438 49.6496C38.0312 47.0402 46.8427 44.3821 55.9838 41.6754C74.2605 36.2675 84.9845 33.4258 88.1504 33.1449C90.7652 32.9558 100.371 31.6916 116.968 29.3631Z" fill="#695322"/>
<path fill-rule="evenodd" clip-rule="evenodd" d="M115.43 8.79897C122.243 10.6682 128.067 12.8563 132.913 15.3738C138.418 18.2642 141.914 20.879 143.399 23.2075C142.654 25.5414 140.325 27.4485 136.408 28.945C134.825 29.5987 131.416 30.6252 126.198 32.019C120.973 33.4183 116.549 34.8175 112.907 36.2114C109.082 37.7025 104.658 40.3659 99.6226 44.1855C94.0256 48.4751 90.7625 50.8523 89.8278 51.3169C87.683 52.4406 84.139 54.8123 79.2011 58.4536C76.7753 60.3175 74.5387 62.0409 72.4857 63.6238L53.042 62.2246C50.8972 62.0409 45.0679 60.8739 35.5594 58.7345L21.8532 55.5146C19.7084 54.3963 18.4496 52.9971 18.0769 51.3169C17.8013 50.3876 18.0336 48.4265 18.7792 45.4443L19.341 44.1855L22.7014 41.252C25.5918 39.1072 29.9246 35.4713 35.7053 30.3389C40.184 26.5139 46.0565 22.4566 53.3284 18.167C60.7892 13.8828 66.7536 11.0842 71.2323 9.77683C77.1967 8.0048 84.7549 6.64876 93.8905 5.71952C100.238 5.62768 107.418 6.65416 115.43 8.79897Z" fill="#F27922"/>
<g opacity="0.6211" clip-path="url(#clip1_805_1933)">
<path fill-rule="evenodd" clip-rule="evenodd" d="M93.4903 7.01263C102.162 7.01263 109.248 7.71198 114.751 9.1107C114.099 9.39044 113.304 9.53031 112.373 9.53031C111.441 9.53031 109.808 9.438 107.477 9.25057C105.239 9.06594 103.329 8.97083 101.743 8.97083C96.7073 8.97083 91.3446 9.67018 85.6575 11.0689C79.5954 12.5599 74.188 14.7503 69.4324 17.6429C66.0755 19.4136 63.7452 20.6725 62.4388 21.4194C60.2932 22.6335 58.5699 24.1693 57.2635 26.0351C56.0495 27.7136 54.0465 29.627 51.2491 31.7699C47.8922 34.2876 45.7018 36.0583 44.6751 37.085C42.9043 38.9509 41.8301 39.9747 41.4581 40.1622C40.8986 40.0699 40.2468 40.0223 39.4999 40.0223C37.3542 40.0223 33.298 40.7692 27.3311 42.2602C25.7449 42.6323 25.4652 42.3078 26.4918 41.2811C28.2626 39.7901 29.4739 38.7159 30.1285 38.0641C33.1133 35.4541 35.3037 33.4959 36.7024 32.1895C37.7291 32.0021 38.3809 31.5824 38.6606 30.9306C43.1365 27.1066 48.8237 23.2377 55.725 19.3213C62.6262 15.3126 68.2658 12.655 72.6494 11.3486C78.6163 9.57787 85.5651 8.1316 93.4903 7.01263Z" fill="#FF9947"/>
</g>
<path fill-rule="evenodd" clip-rule="evenodd" d="M96.2736 7.82235L99.6339 10.7613C102.054 13.0898 103.826 15.186 104.945 17.0553C107.554 21.534 108.397 26.7042 107.462 32.5821C106.9 36.218 106.209 36.3585 105.366 32.9981C105.928 32.9063 106.387 32.4849 106.765 31.7447C107.511 30.3455 107.37 28.2007 106.344 25.3103C104.853 21.0207 101.687 16.9202 96.8354 13.0034L90.1201 8.52468C87.7862 8.34099 85.4091 8.24375 82.9888 8.24375C80.1902 8.24375 77.8131 8.38421 75.8574 8.66514C79.5852 7.82775 83.0374 7.17405 86.2087 6.70943C90.5847 6.61219 93.9451 6.98496 96.2736 7.82235Z" fill="#FF9B4A"/>
<path fill-rule="evenodd" clip-rule="evenodd" d="M134.597 25.0246C136.645 23.2526 137.482 21.6642 137.109 20.265C136.834 19.1466 135.527 17.5583 133.193 15.5107L138.509 18.7306C138.79 20.87 138.276 22.8312 136.969 24.6032L134.03 27.5422C133.009 28.2877 132.398 28.4714 132.215 28.104C132.026 27.7259 132.82 26.6994 134.597 25.0246Z" fill="#FF9B4A"/>
<path fill-rule="evenodd" clip-rule="evenodd" d="M83.1219 10.6143L86.7578 13.4128C89.5563 15.5576 91.6038 17.4701 92.9113 19.1503C96.6444 23.9045 99.0701 29.1287 100.188 34.8122C100.934 38.2644 100.518 38.6858 98.9297 36.071C99.0269 35.0445 98.746 33.6452 98.0923 31.8732C96.8821 28.5182 94.5482 25.1633 91.1014 21.8083C88.3029 19.1016 84.2942 16.8164 79.07 14.9525L72.0791 12.8563L69.5615 13.1372C66.4821 13.51 63.1271 14.1151 59.4912 14.9525L63.9699 12.7158C70.9554 11.5975 77.3412 10.9006 83.1219 10.6143Z" fill="#FF9B4A"/>
<path fill-rule="evenodd" clip-rule="evenodd" d="M76.266 54.6752L75.1477 56.4958C75.0504 54.9831 73.9807 52.7843 71.9278 49.9155C69.5939 46.5606 64.8396 43.2056 57.6597 39.8506L47.5894 35.6529C40.4094 35.7501 34.3478 36.7712 29.4099 38.7323C27.7297 39.3806 25.6767 40.4125 23.251 41.8063C23.9965 40.969 25.493 39.5697 27.7297 37.614C35.0015 34.5345 42.8838 32.622 51.3657 31.8711L56.6764 34.3941C60.7823 36.5335 64.1859 38.6351 66.8872 40.688C71.0958 44.043 74.2184 48.7108 76.266 54.6752Z" fill="#FF9B4A"/>
<path fill-rule="evenodd" clip-rule="evenodd" d="M72.0714 32.8568C74.6809 34.6288 77.2957 37.1464 79.9051 40.4095C83.071 44.3264 85.5453 48.4701 87.3174 52.857L82.8441 55.796C82.7522 55.515 82.9845 54.629 83.541 53.1379C84.1029 51.7386 84.2866 50.804 84.1029 50.3394C81.4016 43.1594 75.3346 37.0978 65.9233 32.1599L52.6331 26.9843C49.0891 27.3516 45.3127 28.0053 41.304 28.94C39.1592 29.4046 37.1549 30.0097 35.291 30.7552L35.707 30.3392L40.4612 26.6979C46.4256 25.115 52.3036 24.1803 58.0843 23.8994L72.0714 32.8568Z" fill="#FF9B4A"/>
<path fill-rule="evenodd" clip-rule="evenodd" d="M73.4714 24.3257L61.5804 19.9875C56.8262 20.4575 52.0233 21.1544 47.1719 22.0891L52.3475 18.8691C57.6636 18.0317 62.931 17.6104 68.1553 17.6104L74.3088 20.6898C78.7821 23.2074 82.1424 25.4926 84.3791 27.5456C90.0679 32.7644 93.7471 38.691 95.4273 45.3091L95.8432 47.1244L94.1685 48.3832C93.8875 48.0104 93.5148 46.6597 93.0447 44.3259C92.5801 41.8083 91.8346 39.6635 90.8081 37.8914C87.8313 32.8563 82.0506 28.3344 73.4714 24.3257Z" fill="#FF9B4A"/>
<path fill-rule="evenodd" clip-rule="evenodd" d="M128.017 19.4285C127.553 17.0946 124.662 13.972 119.352 10.0605L125.089 11.8758C127.607 14.3015 129.049 16.8191 129.422 19.4285C129.795 21.4815 129.519 23.2535 128.584 24.7392C127.936 25.9548 127.563 26.4248 127.472 26.1439L127.607 25.3011C128.72 25.3011 128.865 23.34 128.017 19.4285Z" fill="#FF9B4A"/>
<path fill-rule="evenodd" clip-rule="evenodd" d="M108.295 7.12289C113.984 11.0397 117.345 13.8814 118.366 15.6589C119.203 17.3337 119.668 19.5757 119.765 22.3742C119.765 24.7946 119.581 26.4315 119.203 27.2689C119.063 27.5552 118.874 27.8308 118.641 28.1063C118.528 29.0301 118.247 29.5866 117.804 29.7865L116.27 29.5056C117.296 29.1166 118.09 28.652 118.641 28.1063C118.728 27.2365 118.679 26.0696 118.506 24.6109C117.852 19.7648 115.427 15.4266 111.229 11.6016L105.216 7.26335C103.352 7.07426 101.256 6.75011 98.922 6.2855L97.3877 5.72363C101.585 6.09641 105.221 6.56102 108.295 7.12289Z" fill="#FF9B4A"/>
<path fill-rule="evenodd" clip-rule="evenodd" d="M121.445 23.6264C124.054 23.259 128.02 22.9295 133.336 22.6485C136.226 22.3676 139.581 22.5999 143.401 23.3455C142.471 25.6794 140.138 27.5432 136.41 28.9425C134.827 29.5962 131.418 30.6227 126.199 32.0165C120.975 33.4158 116.55 34.815 112.909 36.2089C109.084 37.7 104.659 40.3634 99.624 44.183C94.027 48.4726 90.7639 50.8497 89.8292 51.3144C87.6844 52.4381 84.1404 54.8098 79.2025 58.4511C76.7767 60.315 74.5401 62.0384 72.4871 63.6213L68.1543 63.3458L69.5536 56.0686C70.4828 55.6958 73.8432 52.7568 79.6239 47.257C82.5142 44.5504 86.4311 40.774 91.3744 35.9225C95.7558 32.1948 100.375 29.3963 105.221 27.5324C110.073 25.6794 115.48 24.3773 121.445 23.6264Z" fill="#C25B10"/>
<path fill-rule="evenodd" clip-rule="evenodd" d="M71.6555 63.6228L52.3522 62.3694C50.3047 62.1857 44.5672 61.0134 35.1452 58.874L21.7253 55.7945C20.607 54.7681 19.8128 53.4606 19.3482 51.8723C18.9754 50.5703 19.0186 48.8901 19.4887 46.8371L20.0505 45.8593C24.0592 43.6172 29.0025 42.3639 34.8751 42.0829C42.1469 41.802 49.4241 43.6172 56.6959 47.5395C60.8018 49.6789 65.4156 52.2937 70.5426 55.3677L71.2395 58.3067C71.6123 60.5434 71.8014 62.2668 71.8014 63.4823L71.6555 63.6228Z" fill="#D16211"/>
<path fill-rule="evenodd" clip-rule="evenodd" d="M109.84 7.82348C113.665 8.19625 116.182 8.7095 117.387 9.3632L113.335 9.08227C112.033 8.89318 111.001 8.80134 110.261 8.80134C108.77 8.61766 107.419 8.61766 106.204 8.80134C105.177 8.99043 104.102 9.08227 102.984 9.08227C100.747 9.08227 98.9266 9.1309 97.5273 9.22274C93.7023 9.41183 91.0011 9.68735 89.4181 10.0655C88.3916 10.2492 87.1761 10.6706 85.7822 11.3243C84.1993 11.978 82.8 12.4426 81.5898 12.7236C80.0069 13.0045 78.4186 13.561 76.8356 14.4038C74.8745 15.6193 73.1997 16.5486 71.8005 17.2023C70.7794 17.7641 69.7043 18.5529 68.5806 19.5794C67.9269 20.044 66.9004 20.4114 65.5065 20.6977C63.8263 20.9786 62.6162 21.4865 61.8706 22.232C60.8441 23.4476 59.769 24.6578 58.6507 25.8733C58.0888 26.4352 56.0413 28.7151 52.4972 32.7291C52.0326 33.3774 51.7085 33.7988 51.5194 33.9825C51.3303 34.1716 50.8224 34.4958 49.9797 34.9658L46.2033 37.4834C45.085 38.3208 43.5452 39.2068 41.5895 40.1414C40.563 40.0442 40.0498 39.8605 40.0498 39.5795L40.1903 39.1582L41.4491 37.6238L50.2606 29.2283C50.7306 28.7583 51.8003 27.829 53.4805 26.4298C54.5988 25.4952 55.3444 24.7442 55.7225 24.1877C56.9327 22.6048 58.8938 21.2055 61.5951 19.9954C62.8107 19.5308 63.929 18.8771 64.9555 18.0397C65.6092 17.6669 66.4033 17.105 67.3326 16.3595C68.17 15.7058 70.0825 14.7279 73.0647 13.4205C76.1441 12.0212 78.2835 11.2271 79.4991 11.0434C80.0609 10.9461 82.1571 10.3897 85.793 9.3632C89.1534 8.33672 91.5737 7.77486 93.0648 7.68301C99.6775 7.2184 105.269 7.26162 109.84 7.82348Z" fill="#FFC17A"/>
<path fill-rule="evenodd" clip-rule="evenodd" d="M60.1819 48.664C54.3093 45.12 50.1602 43.067 47.7345 42.5051C43.6339 41.4841 39.9008 41.1059 36.5458 41.3868C30.3923 41.5759 25.7786 42.2728 22.6991 43.4884C20.738 44.3258 20.3653 44.0935 21.5754 42.7861C24.0012 41.4841 27.2157 40.4576 31.2297 39.712C36.3567 38.691 40.9759 38.7342 45.0764 39.8525C49.0851 40.9708 53.6989 42.8347 58.9231 45.4441C62.8399 47.3998 65.8221 49.08 67.8751 50.4793C70.7708 52.6241 72.397 55.4712 72.7698 59.0099C73.0507 61.6193 72.9589 63.1644 72.4888 63.6236L55.2872 62.6458L51.0894 61.9488L55.9841 62.2244C59.7119 62.3216 62.6022 62.3216 64.6552 62.2244C67.4537 62.0407 69.1285 61.7111 69.6903 61.2465C70.5277 60.501 70.2522 59.0045 68.853 56.7678C67.0809 53.9693 65.9194 52.2945 65.3575 51.7327C64.5201 50.9979 62.7967 49.966 60.1819 48.664Z" fill="#F27922"/>
<path fill-rule="evenodd" clip-rule="evenodd" d="M75.1553 51.6038C75.1553 51.0419 75.1985 50.3882 75.2957 49.6426C75.5713 48.1569 76.0413 47.0764 76.695 46.4227C77.8133 45.4935 79.3963 45.2126 81.4492 45.5853L80.466 49.2266C80.2823 50.1613 80.5632 51.0419 81.3088 51.8793C81.6815 52.3493 82.2866 53.0516 83.124 53.9809C83.4968 54.7264 83.3563 55.2883 82.7026 55.6665C82.0489 56.0338 81.3952 56.0825 80.7469 55.8015C80.3741 55.6178 80.1418 54.9155 80.05 53.6999C79.9527 52.0198 79.769 50.8582 79.4881 50.2099C79.1153 49.3725 78.5589 49.1834 77.8079 49.648C76.8733 50.48 75.9927 51.1337 75.1553 51.6038Z" fill="#F27922"/>
<path fill-rule="evenodd" clip-rule="evenodd" d="M117.953 23.7692C117.672 24.0501 117.348 24.3311 116.97 24.6066C116.408 25.3521 116.084 26.0059 115.987 26.5623C115.987 26.9351 116.127 27.3997 116.408 27.9616C116.592 28.3343 116.549 28.8476 116.273 29.5013C115.9 30.3387 115.338 30.4359 114.588 29.7822C113.939 29.1285 113.518 28.383 113.334 27.5456C113.237 26.7946 112.54 26.33 111.233 26.1463C110.114 25.9572 108.899 26.0059 107.597 26.2814L109.833 24.7417C111.514 23.7206 112.675 23.1587 113.329 23.0615C114.458 22.8832 115.992 23.1101 117.953 23.7692Z" fill="#F27922"/>
<path fill-rule="evenodd" clip-rule="evenodd" d="M116.273 31.7402L117.251 33.4204L118.229 33.7014C118.883 33.8904 119.255 34.0741 119.353 34.2632C119.536 34.636 119.445 34.9655 119.072 35.2465C118.699 35.6138 118.089 35.7111 117.251 35.5274C116.506 35.3383 116.133 34.6414 116.133 33.4258L116.273 31.7402Z" fill="#F27922"/>
<path fill-rule="evenodd" clip-rule="evenodd" d="M140.893 21.9489C140.606 21.387 140.893 21.3006 141.725 21.6679C142.562 22.0407 143.129 22.6026 143.405 23.3481C143.594 24.2828 143.405 25.0715 142.848 25.7252C142.097 26.4708 140.655 27.3082 138.51 28.2428C136.554 29.0802 134.782 29.7339 133.194 30.1985L131.238 30.4794L134.734 29.2261C137.44 28.3887 139.445 27.1731 140.747 25.5848C141.309 24.8392 141.535 24.1423 141.449 23.4886C141.454 23.3049 141.26 22.7862 140.893 21.9489Z" fill="#F27922"/>
<path fill-rule="evenodd" clip-rule="evenodd" d="M110.401 14.395C112.918 15.4215 114.69 16.0266 115.717 16.2103C117.392 16.4912 119.353 15.8861 121.589 14.395L122.011 14.9569C122.286 15.4215 122.475 15.8915 122.573 16.3561C122.854 17.3772 121.822 18.3119 119.493 19.1547C116.884 20.1757 113.853 19.992 110.401 18.5928C106.581 16.7289 103.405 15.2378 100.887 14.1141C96.7864 12.2502 92.4482 10.7105 87.8831 9.50034L80.1899 7.54463C79.9143 7.45278 80.0062 7.26369 80.4708 6.98276C81.0327 6.60999 81.4973 6.4209 81.87 6.4209L91.103 8.51708C97.5374 10.0082 101.73 11.0833 103.696 11.737L110.401 14.395Z" fill="#BD7400"/>
<path fill-rule="evenodd" clip-rule="evenodd" d="M106.482 1.10857C106.947 1.20042 107.136 1.5732 107.044 2.2269C107.044 2.88061 106.812 3.57753 106.342 4.32308C105.974 4.97679 105.455 5.44681 104.802 5.72233L104.105 6.00327C103.64 6.2842 103.17 6.46788 102.706 6.56513C98.3187 6.65697 95.0124 6.79744 92.7758 6.98653C91.3765 7.17562 90.631 7.3593 90.5391 7.54839L90.8146 7.82392L88.4375 7.26205C88.0648 7.17021 87.7406 6.9325 87.4543 6.56513L87.3138 6.14373H101.16C96.4981 5.2145 93.1431 4.60401 91.0902 4.32308C87.0815 3.76662 84.6558 3.57753 83.8184 3.76662L84.5153 3.0697C84.9799 2.50783 85.4013 2.27552 85.7741 2.36737L95.2879 3.49109L102.7 5.30634L99.0643 4.04755C97.1032 2.83198 95.6121 2.13506 94.5856 1.95137L92.3436 1.24904L92.9054 0.827642C93.4673 0.546711 94.0291 0.40625 94.5856 0.40625C95.3311 0.498093 96.6818 1.1518 98.6375 2.36196C99.2912 2.82658 100.923 3.71259 103.532 5.02L103.813 4.18261L104.931 1.94597L104.791 1.38411C104.526 0.924891 105.083 0.827643 106.482 1.10857Z" fill="#C7BE91"/>
<path fill-rule="evenodd" clip-rule="evenodd" d="M118.227 7.6814L111.933 6.98447H107.6L116.271 10.4799C118.875 11.5982 120.188 12.5275 120.188 13.2784C120.091 13.8403 119.253 14.4886 117.67 15.2395C117.67 14.3049 117.065 13.3703 115.85 12.441C114.634 11.6036 112.446 10.3881 109.275 8.80512L105.92 6.98988L109.837 10.3502C110.118 10.723 110.35 11.2795 110.533 12.0304C110.82 12.776 110.863 13.2406 110.674 13.4297C110.49 13.8025 109.604 13.7592 108.016 13.2892C108.205 12.5437 108.065 11.7981 107.6 11.0526L104.24 6.85481L104.104 6.01742L105.363 5.87695C106.012 6.06064 109.086 6.06064 114.591 5.87695C116.363 5.9688 117.389 6.15789 117.67 6.43882L118.227 7.6814Z" fill="#C7BE91"/>
<path fill-rule="evenodd" clip-rule="evenodd" d="M110.677 3.07006C113.665 3.81561 115.621 4.42069 116.555 4.88531C118.976 6.28456 120.796 8.05659 122.012 10.196C122.477 10.8497 122.525 11.3629 122.147 11.7357C121.963 11.9194 121.445 12.2003 120.607 12.5731C120.143 12.854 119.91 12.8054 119.91 12.4326C120.002 11.7789 120.002 11.1252 119.91 10.4769C119.91 9.73137 119.122 8.79674 117.533 7.67842C115.578 6.371 114.227 5.44176 113.476 4.8799C112.266 3.94526 108.673 2.87557 102.709 1.66C99.5375 0.914448 94.4105 1.42769 87.3223 3.19972C85.2748 3.76158 83.9188 4.50713 83.2651 5.44177L82.9895 6.70056C82.3358 6.51687 81.8226 5.95501 81.4498 5.02037C81.1689 4.36666 81.2607 3.8048 81.7253 3.34018C82.0063 3.15109 82.7086 2.82694 83.8269 2.35692C84.6643 1.8923 86.2526 1.47091 88.5811 1.09813C91.0987 0.633515 93.384 0.352585 95.437 0.260742C100.656 0.071654 104.059 0.49305 105.642 1.51953C106.112 1.81127 107.787 2.32451 110.677 3.07006Z" fill="#C7BE91"/>
<path fill-rule="evenodd" clip-rule="evenodd" d="M108.3 13.8343C112.034 15.1417 115.156 15.6064 117.674 15.2336C118.792 15.0445 119.91 14.3908 121.029 13.2725L122.709 11.1763C122.893 12.6674 122.806 13.8775 122.428 14.8122C121.677 16.7679 119.538 17.7512 115.994 17.7512C114.038 17.6539 111.661 17.1893 108.862 16.3519C106.345 15.5091 104.157 14.5799 102.293 13.5534C98.1869 11.5058 92.9194 9.7284 86.485 8.23731C84.713 7.86453 83.2219 7.49176 82.0117 7.11898L80.888 6.55712L80.7529 5.86019V3.76401L81.7308 3.20215C80.8934 4.50956 82.9464 5.67651 87.8897 6.69759C89.2889 7.07036 92.8762 8.14546 98.6569 9.91209C101.542 10.6684 104.762 11.9704 108.3 13.8343Z" fill="#F7CE00"/>
<path fill-rule="evenodd" clip-rule="evenodd" d="M101.028 8.6619C102.146 8.00819 102.892 7.12217 103.264 6.00385C99.6284 6.37662 97.1541 6.51709 95.8467 6.42525C89.8823 6.05247 87.4079 6.14432 88.4344 6.70618C88.9963 7.07895 91.2761 7.68404 95.2902 8.52143C98.0887 9.17514 100.001 9.22376 101.028 8.6619ZM95.9925 5.72832C98.0401 5.91741 100.282 5.86879 102.708 5.58786L91.0979 3.21074L84.6634 2.65428C84.1988 2.74613 83.7774 2.88659 83.4047 3.07568C82.6591 3.35661 82.3782 3.72939 82.5619 4.194C82.9346 4.75587 83.3074 5.08002 83.6856 5.17186C84.0584 5.35555 85.1335 5.50142 86.9055 5.59326H91.5193C93.2913 5.49602 94.777 5.53923 95.9925 5.72832ZM102.562 4.88553L97.5269 2.08702C95.4793 1.24963 93.891 0.876849 92.7726 0.968692C88.2993 1.34147 86.4787 1.71425 87.3161 2.08702C88.1535 2.45979 91.2815 2.97303 96.6895 3.62674L102.562 4.88553ZM102.843 9.36423C102.476 9.92069 103.264 10.5744 105.22 11.3199C108.019 12.7192 109.558 13.1838 109.834 12.7192C110.298 12.1573 109.65 10.9958 107.878 9.22376L104.237 6.42525L102.843 9.36423ZM106.344 2.22749C106.533 1.95196 106.295 1.71424 105.641 1.53056C103.875 0.87685 101.492 0.5527 98.5155 0.5527H96.5544C96.2789 0.741788 97.2081 1.39009 99.3529 2.50842L104.809 5.44739L105.793 3.07028C106.155 2.69751 106.344 2.41657 106.344 2.22749ZM119.91 15.5177C116.646 16.7333 113.011 16.3119 108.996 14.2589C105.08 12.2114 99.6717 10.2989 92.7726 8.52143C86.3436 6.84125 82.5619 5.6797 81.4435 5.02599C79.5743 3.90767 80.9789 2.6921 85.6359 1.39009C90.2983 0.179924 94.8688 -0.241473 99.3421 0.131302C110.628 1.15778 118.089 4.23182 121.725 9.36423C123.778 12.1627 123.173 14.2157 119.91 15.5177ZM111.093 11.6009C111.93 12.8164 112.351 13.4647 112.351 13.5566C113.189 14.394 114.221 14.864 115.425 14.9558C116.917 15.1449 117.9 15.0045 118.364 14.5344C118.829 14.0644 118.597 13.3675 117.667 12.4383C116.825 11.6009 114.588 10.3853 110.952 8.80236L105.777 6.56571L111.093 11.6009ZM112.778 5.30693C114.177 5.39877 114.918 5.44739 115.015 5.44739C115.577 5.44739 115.62 5.2583 115.15 4.88553C113.848 3.7672 111.93 2.97303 109.418 2.50842C108.764 2.41657 108.343 2.50842 108.159 2.78935C107.878 3.35121 107.646 3.67536 107.457 3.77261C107.084 4.05354 106.668 4.46954 106.203 5.0314L105.782 5.86879L112.778 5.30693ZM118.651 7.26264L116.555 6.28478L106.9 6.42525L113.897 8.80236C114.734 9.17514 116.133 9.82884 118.089 10.7635C119.769 11.509 120.698 11.6927 120.887 11.3253C121.174 10.7635 121.071 10.1098 120.606 9.36963C120.234 8.42959 119.585 7.73266 118.651 7.26264Z" fill="#FFFF9C"/>
<g opacity="0.4219" clip-path="url(#clip2_805_1933)">
<path fill-rule="evenodd" clip-rule="evenodd" d="M103.341 5.3572C100.916 5.63695 98.6776 5.6845 96.6271 5.49708C95.4158 5.30965 93.922 5.26489 92.1512 5.3572H87.5355C85.7647 5.26489 84.6905 5.12502 84.3184 4.93759C83.9464 4.84527 83.5715 4.51797 83.1994 3.95849C82.8274 3.21158 83.5267 2.69965 85.2975 2.4199C87.4431 2.4199 89.586 2.60733 91.7316 2.97939L103.341 5.3572Z" fill="#FFFF00"/>
</g>
<g opacity="0.4219" clip-path="url(#clip3_805_1933)">
<path fill-rule="evenodd" clip-rule="evenodd" d="M103.836 7.01304C103.464 8.13202 102.717 9.0188 101.599 9.6706C100.572 10.2301 98.6612 10.1825 95.8638 9.53073C95.3043 9.3433 93.9531 9.0188 91.8075 8.55163C90.2242 8.17957 89.2898 7.89983 89.0101 7.7124C87.9834 7.15292 90.4564 7.0606 96.4233 7.43266C97.7297 7.52497 100.2 7.3851 103.836 7.01304Z" fill="#FFFF00"/>
</g>
<g opacity="0.4219" clip-path="url(#clip4_805_1933)">
<path fill-rule="evenodd" clip-rule="evenodd" d="M103.915 7.012C105.501 8.03865 106.712 8.9702 107.551 9.80943C109.322 11.5802 109.977 12.7467 109.51 13.3062C109.23 13.7734 107.691 13.3062 104.894 11.9075C102.936 11.1606 102.144 10.5088 102.516 9.9493L103.915 7.012Z" fill="#FFFF00"/>
</g>
<g opacity="0.4219" clip-path="url(#clip5_805_1933)">
<path fill-rule="evenodd" clip-rule="evenodd" d="M106.7 7.01061C113.322 9.62061 117.283 11.5788 118.589 12.8852C119.521 13.8168 119.756 14.5161 119.289 14.9833C118.821 15.4505 117.842 15.5903 116.351 15.4029C115.137 15.3106 114.113 14.8434 113.274 14.0042C113.274 13.9119 112.855 13.2573 112.015 12.046C111.736 11.4865 109.965 9.80804 106.7 7.01061Z" fill="#FFFF00"/>
</g>
<g opacity="0.4219" clip-path="url(#clip6_805_1933)">
<path fill-rule="evenodd" clip-rule="evenodd" d="M108.589 7.15063L118.24 7.01076L120.338 7.98986C121.27 8.45703 121.924 9.15639 122.296 10.0879C122.763 10.8348 122.856 11.4866 122.576 12.0461C122.389 12.4182 121.457 12.2336 119.779 11.4866C117.82 10.5551 116.422 9.90051 115.582 9.52845C113.996 8.87665 111.666 8.08218 108.589 7.15063Z" fill="#FFFF00"/>
</g>
<g opacity="0.4219" clip-path="url(#clip7_805_1933)">
<path fill-rule="evenodd" clip-rule="evenodd" d="M106.7 5.77734C107.167 4.75069 107.727 4.05133 108.379 3.67927C108.566 3.58696 108.798 3.25966 109.078 2.70017C109.265 2.42043 109.685 2.32811 110.337 2.42043C112.855 2.8876 114.765 3.67927 116.072 4.79824C116.539 5.1703 116.491 5.35773 115.932 5.35773C115.839 5.35773 115.092 5.31017 113.694 5.21786C112.482 5.12554 110.149 5.31017 106.7 5.77734Z" fill="#FFFF00"/>
</g>
<g opacity="0.4219" clip-path="url(#clip8_805_1933)">
<path fill-rule="evenodd" clip-rule="evenodd" d="M104.558 5.02246L99.1027 2.08516C96.9571 0.966189 96.0255 0.314387 96.3053 0.12696H98.2635C101.248 0.12696 103.626 0.454259 105.397 1.10606C106.049 1.29349 106.284 1.52567 106.096 1.80542C105.817 2.17748 105.629 2.45722 105.537 2.64465L104.558 5.02246Z" fill="#FFFF00"/>
</g>
<g opacity="0.4219" clip-path="url(#clip9_805_1933)">
<path fill-rule="evenodd" clip-rule="evenodd" d="M103.046 4.17285L97.1717 2.91401C95.4009 2.54195 92.2762 2.02722 87.8003 1.37542C86.9611 1.00336 88.7794 0.628509 93.2553 0.256451C94.3743 0.164135 95.9604 0.536193 98.0109 1.37542L103.046 4.17285Z" fill="#FFFF00"/>
</g>
<path fill-rule="evenodd" clip-rule="evenodd" d="M87.6039 27.5445C88.1604 28.29 88.5818 29.0302 88.8573 29.7811C89.4192 31.4613 88.5818 33.3198 86.3451 35.3728C85.2214 36.3992 83.5952 37.1448 81.4504 37.6148C79.3975 38.0794 77.485 38.128 75.7129 37.7499C74.3137 37.3771 72.4012 36.7666 69.9755 35.9292C67.0851 34.8109 64.8485 33.9735 63.2655 33.4116C58.0413 31.6396 52.4496 30.5213 46.4799 30.0567C41.6338 29.6839 38.5057 29.4948 37.1119 29.4948C36.7391 29.4948 36.7823 29.122 37.2523 28.3765C37.6251 27.6255 38.0411 27.2095 38.5111 27.1177L49.6998 27.3986C57.7171 27.5877 62.9414 27.9605 65.3617 28.517C66.6691 28.7979 69.6027 29.5002 74.1732 30.6185C77.4363 31.5532 79.6784 31.9692 80.8886 31.8719C82.9415 31.7801 84.9459 30.0567 86.907 26.6963L87.6039 27.5445Z" fill="#BD7400"/>
<path fill-rule="evenodd" clip-rule="evenodd" d="M62.5666 15.7915L63.1285 11.7396L62.5666 10.9022C62.1938 10.2485 62.8421 9.91895 64.5223 9.91895C64.9869 9.91895 65.3597 10.4322 65.6406 11.4587C65.8243 12.577 65.7811 13.8358 65.5002 15.235C65.2193 17.1908 64.5709 18.3577 63.5445 18.7305C63.2635 19.2869 62.8421 19.8002 62.2857 20.2648C57.3424 21.7559 53.6146 23.1065 51.097 24.3221C49.6059 25.0676 48.855 25.6241 48.855 26.0023C48.855 26.2616 48.9738 26.3967 49.2062 26.4237L46.3374 26.2832C45.7756 26.186 45.3109 25.9104 44.9382 25.4458L44.5168 24.7435L60.3246 19.9893C54.6357 20.0865 50.5784 20.2216 48.1527 20.4053C43.7712 20.778 40.9295 21.2967 39.6221 21.945C39.7139 21.4804 39.903 21.0103 40.1839 20.5457C40.5567 19.5246 40.9781 19.006 41.4427 19.006C42.1883 19.006 45.9646 18.59 52.7718 17.7526L61.8643 18.1686C59.5304 17.8877 57.9474 17.6067 57.1101 17.3312C53.9388 15.9374 52.0263 15.235 51.3726 15.235L48.4336 14.9541L48.9955 14.1167C49.4601 13.463 50.0165 13.047 50.6756 12.8579C51.9777 12.4851 53.7497 13.0902 55.9917 14.6732C56.921 15.235 59.1144 16.1643 62.5666 17.4717V15.7915Z" fill="#C7BE91"/>
<path fill-rule="evenodd" clip-rule="evenodd" d="M82.7057 29.5015C82.333 27.9132 81.3065 26.6112 79.6263 25.5793C78.3189 24.7419 75.3367 23.4399 70.6743 21.6625L66.201 19.8472L71.798 24.0396C72.3599 24.5042 72.8731 25.293 73.3378 26.4167C73.8996 27.6269 74.1265 28.4643 74.0347 28.9343C73.9428 29.4961 72.965 29.6798 71.1011 29.4961C70.9174 28.1887 70.4042 27.0218 69.5614 26.0007C66.2983 22.5485 64.483 20.5928 64.1048 20.1282L63.543 18.7289L65.0827 18.167C65.9255 18.167 69.4209 17.146 75.569 15.093C76.3145 15.0012 77.1087 14.8121 77.9461 14.5311C78.508 14.4393 78.924 14.5798 79.2049 14.9525C79.7614 15.5144 80.1341 16.0763 80.3232 16.6327C77.1573 17.0055 74.683 17.3783 72.911 17.751L68.0163 19.1503L79.2049 22.0893C82.5599 23.0239 84.4237 24.1422 84.7965 25.4442C84.9856 26.3789 84.2887 27.7295 82.7057 29.5015Z" fill="#C7BE91"/>
<path fill-rule="evenodd" clip-rule="evenodd" d="M85.0834 24.1877C84.6188 24.8414 84.2946 24.8414 84.1056 24.1877C83.9165 22.9775 83.6841 21.8592 83.4086 20.8327C83.1277 19.6171 81.8257 18.3151 79.4918 16.9159C76.7905 15.5166 74.9213 14.4415 73.8948 13.696C72.1227 12.5777 67.6008 12.0158 60.329 12.0158C58.2761 12.0158 55.5748 12.8532 52.2144 14.5334C49.3241 16.0245 46.4337 17.8451 43.5434 19.9899C41.3986 21.5783 40.1398 23.253 39.767 25.0305C39.5779 25.9597 39.6265 26.7053 39.9075 27.2671C39.0701 27.078 38.2273 26.2839 37.3899 24.89C36.828 23.8635 36.7848 22.9343 37.2494 22.0915C37.3413 21.8106 37.995 20.9732 39.2051 19.5739C40.0425 18.6393 41.7227 17.4291 44.2403 15.938C46.8497 14.3551 49.3187 13.1395 51.6526 12.3021C57.4333 10.1573 61.4419 9.64408 63.6786 10.7624C64.2405 11.0433 66.3853 11.3243 70.113 11.5998C73.7489 11.7889 76.2179 12.1617 77.5253 12.7181C80.3238 13.8364 83.0737 16.1217 85.7749 19.5739C86.4286 20.595 86.6609 21.4864 86.4719 22.2266C86.2936 22.6047 85.829 23.2585 85.0834 24.1877Z" fill="#C7BE91"/>
<path fill-rule="evenodd" clip-rule="evenodd" d="M87.8824 27.265C87.8824 30.6199 85.8294 32.9052 81.7235 34.1208C79.5787 34.8663 76.6883 34.9582 73.0524 34.4017C69.973 33.8399 67.1312 33.0511 64.5218 32.0246C62.2798 31.1872 59.2057 30.4417 55.2943 29.788C51.3775 29.1342 47.7848 28.7615 44.5217 28.6696C42.285 28.5724 40.4644 28.4319 39.0651 28.2482L37.5254 27.8322L36.9635 26.5735C36.688 26.0116 36.4989 25.2714 36.4071 24.3368L36.2666 23.078L37.1094 21.8246C36.9203 22.943 37.6659 23.8722 39.346 24.6231C40.8371 25.185 42.8415 25.5092 45.3591 25.601C47.2229 25.601 51.7448 26.1629 58.9248 27.2866C60.9778 27.3784 62.8849 27.7512 64.6623 28.4049C67.2717 29.3341 69.557 29.9879 71.5181 30.3606C74.5921 31.0143 77.0665 31.198 78.9304 30.9225C79.9568 30.7388 81.2156 30.2688 82.7067 29.5232C83.636 29.0532 84.3383 28.4049 84.8029 27.5675C84.9002 27.3784 85.2243 26.5843 85.7808 25.1904L86.9045 20.998L87.461 23.2347C87.8337 24.8879 87.9742 26.2385 87.8824 27.265Z" fill="#F7CE00"/>
<path fill-rule="evenodd" clip-rule="evenodd" d="M54.3142 17.4783C56.6481 17.662 59.0684 17.6134 61.586 17.3379L54.5951 14.6798C52.0775 13.9343 50.165 13.7938 48.8576 14.2584C43.8224 16.4032 41.8667 17.662 42.9851 18.0348C43.6388 18.2185 45.3135 18.1698 48.0202 17.8943C51.2833 17.6134 53.3795 17.4783 54.3142 17.4783ZM54.3142 20.9738C56.8317 20.601 59.3493 19.8554 61.8669 18.7371C55.0597 18.548 50.3487 18.4994 47.7393 18.5966C46.1563 18.6939 44.4329 18.9262 42.5637 19.2936L40.327 19.9959C39.8624 20.2768 39.441 20.601 39.0682 20.9792C38.2308 21.7247 38.0417 22.427 38.5064 23.0753C39.0682 23.9127 39.6247 24.3828 40.1865 24.4746C40.6512 24.5718 41.8667 24.3828 43.8224 23.9127C45.0326 23.6318 46.8046 23.124 49.1331 22.3784C51.2833 21.6221 53.0067 21.1574 54.3142 20.9738ZM61.17 24.1883C62.191 22.789 62.7097 21.1142 62.7097 19.1531C58.6956 20.9251 55.9025 21.9948 54.3142 22.373C47.977 23.956 45.2217 24.9392 46.0645 25.3066C46.5291 25.5875 47.7447 25.7766 49.7004 25.8684H54.5951C56.648 25.9603 57.9555 25.9603 58.5119 25.8684C59.6302 25.6794 60.5163 25.1229 61.17 24.1883ZM63.9631 19.434L63.4012 24.7447C63.4012 25.8684 64.6168 26.7004 67.0371 27.2677C67.7827 27.5486 68.9982 27.9646 70.673 28.5211C71.9804 28.802 72.6828 28.6616 72.7746 28.1051C73.1474 26.9868 71.9804 25.2634 69.2792 22.9295C68.4418 22.1785 67.2748 21.3898 65.7837 20.5524L63.9631 19.434ZM55.292 11.6004C53.8009 11.9731 53.0067 12.2541 52.9149 12.4378C52.7258 12.7187 54.0819 13.4642 56.9722 14.6744L64.3845 17.7539V13.4156C64.6654 12.5782 64.8059 12.0164 64.8059 11.7354C64.8977 11.1736 64.5249 10.8494 63.6821 10.7576C62.0992 10.5739 59.3007 10.8548 55.292 11.6004ZM66.6265 13.837C66.2538 14.3989 65.9728 15.2363 65.7837 16.3546C65.6865 16.9165 65.5946 17.4243 65.5028 17.8889L68.5768 16.3546C70.9107 15.3281 72.4937 14.7717 73.3311 14.6744C74.914 14.3016 75.7568 14.1125 75.8486 14.1125C76.5023 13.9289 76.5023 13.5993 75.8486 13.1347C75.1031 12.6701 73.8875 12.2055 72.2127 11.7354C70.5325 11.2708 69.2251 11.0817 68.2905 11.1736C67.5449 11.2654 67.1236 11.5463 67.0317 12.011C66.8588 13.0483 66.7184 13.6533 66.6265 13.837ZM85.087 18.3157C88.4473 22.3244 88.5392 25.9603 85.3679 29.2288C82.1048 32.4919 77.8152 33.097 72.4991 31.0441C67.183 28.9047 60.284 27.5054 51.7966 26.8517C43.5901 26.198 38.7873 25.5497 37.388 24.896C34.8705 23.5886 36.0374 21.1196 40.8835 17.4837C45.6377 13.756 50.6783 11.4707 55.9889 10.6279C69.2305 8.47771 78.9281 11.0439 85.087 18.3157ZM80.0518 29.9203C81.8238 29.6394 82.8935 29.083 83.2663 28.2402C83.6391 27.3055 83.0826 26.1872 81.5915 24.8852C80.376 23.7669 77.3938 22.4595 72.6395 20.9684L65.7837 19.1477L73.8929 25.7226C75.9459 28.802 77.9988 30.2013 80.0518 29.9203ZM84.806 21.9516C84.9951 20.9305 84.6656 19.8122 83.8282 18.5966C82.9908 17.2892 81.9157 16.4032 80.6137 15.9386L77.9556 14.9553L67.0425 18.4508L75.9945 19.9905C77.0156 20.2714 78.8362 20.9251 81.4511 21.9462C83.5959 22.6053 84.7088 22.6053 84.806 21.9516Z" fill="#FFFF9C"/>
<g opacity="0.4219" clip-path="url(#clip10_805_1933)">
<path fill-rule="evenodd" clip-rule="evenodd" d="M61.7252 19.8467C59.2075 20.9657 56.6899 21.7126 54.1722 22.0847C52.8658 22.2721 51.1426 22.7365 48.9969 23.4834C46.6667 24.2303 44.8931 24.7422 43.6818 25.022C41.7236 25.4891 40.5123 25.6738 40.0452 25.5814C39.4857 25.4891 38.9262 25.022 38.3667 24.1827C37.6198 23.1561 38.2268 22.1322 40.185 21.1056C42.5153 20.2663 44.9882 19.7992 47.5982 19.7068C50.2082 19.6145 54.9191 19.6593 61.7252 19.8467Z" fill="#FFFF00"/>
</g>
<g opacity="0.4219" clip-path="url(#clip11_805_1933)">
<path fill-rule="evenodd" clip-rule="evenodd" d="M61.8973 19.7062C61.8973 21.6644 61.3854 23.3428 60.3588 24.7416C59.707 25.6731 58.8202 26.2326 57.7012 26.42C57.1417 26.5123 55.8353 26.5123 53.7848 26.42H48.8893C46.9311 26.3277 45.7198 26.1403 45.2526 25.8605C44.4134 25.4885 47.1633 24.5094 53.5051 22.9232C55.0912 22.5512 57.8886 21.477 61.8973 19.7062Z" fill="#FFFF00"/>
</g>
<g opacity="0.4219" clip-path="url(#clip12_805_1933)">
<path fill-rule="evenodd" clip-rule="evenodd" d="M64.5771 19.707C66.7227 20.8259 68.4935 21.9925 69.8922 23.2037C72.5973 25.534 73.761 27.26 73.389 28.379C73.2967 28.9385 72.5973 29.0783 71.2909 28.7986C69.6124 28.2391 68.4011 27.8195 67.6542 27.5398C65.2289 26.9803 64.0176 26.141 64.0176 25.0221L64.5771 19.707Z" fill="#FFFF00"/>
</g>
<g opacity="0.4219" clip-path="url(#clip13_805_1933)">
<path fill-rule="evenodd" clip-rule="evenodd" d="M65.3682 19.7076C73.9479 21.7581 79.2154 23.6716 81.1736 25.4424C82.6647 26.7488 83.2242 27.8677 82.8521 28.7993C82.48 29.6385 81.4058 30.198 79.6351 30.4777C77.5845 30.7575 75.5312 29.3588 73.4807 26.2816C72.9212 25.5347 70.2161 23.3443 65.3682 19.7076Z" fill="#FFFF00"/>
</g>
<g opacity="0.4219" clip-path="url(#clip14_805_1933)">
<path fill-rule="evenodd" clip-rule="evenodd" d="M69.1514 20.2351L80.0613 16.7383L82.7189 17.7174C84.0253 18.1846 85.0967 19.0685 85.9359 20.3749C86.7752 21.589 87.1025 22.7052 86.915 23.7319C86.8227 24.3837 85.701 24.3837 83.5581 23.7319C80.9481 22.7052 79.1298 22.0534 78.1031 21.7737C75.9575 21.3065 72.9755 20.7946 69.1514 20.2351Z" fill="#FFFF00"/>
</g>
<g opacity="0.4219" clip-path="url(#clip15_805_1933)">
<path fill-rule="evenodd" clip-rule="evenodd" d="M65.3682 19.3994C65.5556 17.6286 65.9276 16.2747 66.4871 15.3431C66.5795 15.1557 66.7193 14.5515 66.9068 13.5248C66.9991 13.0576 67.4187 12.7779 68.1656 12.6856C69.0971 12.5933 70.4035 12.7779 72.082 13.2451C73.7605 13.7122 74.9717 14.1766 75.7187 14.6438C76.3705 15.111 76.3705 15.4355 75.7187 15.6229C75.6235 15.6229 74.7871 15.8103 73.201 16.1824C71.8023 16.3698 69.1922 17.4412 65.3682 19.3994Z" fill="#FFFF00"/>
</g>
<g opacity="0.4219" clip-path="url(#clip16_805_1933)">
<path fill-rule="evenodd" clip-rule="evenodd" d="M65.7639 19.8164L58.3507 16.7392C55.461 15.5279 54.107 14.781 54.2944 14.5013C54.3868 14.3167 55.1812 14.0341 56.6723 13.6621C60.681 12.9151 63.4784 12.6354 65.0645 12.8228C65.9038 12.9179 66.2758 13.2424 66.1835 13.8019C65.9961 14.4537 65.8562 15.0132 65.7639 15.4804V19.8164Z" fill="#FFFF00"/>
</g>
<g opacity="0.4219" clip-path="url(#clip17_805_1933)">
<path fill-rule="evenodd" clip-rule="evenodd" d="M62.37 17.9344C59.8523 18.2142 57.4269 18.2617 55.0967 18.0743C54.1651 18.0743 52.0671 18.2142 48.8025 18.4939C46.0973 18.7737 44.4189 18.8212 43.7671 18.6338C42.6481 18.2617 44.6063 17.0029 49.6417 14.8573C50.9453 14.3901 52.8587 14.53 55.3764 15.2769L62.37 17.9344Z" fill="#FFFF00"/>
</g>
<defs>
<linearGradient id="paint0_linear_805_1933" x1="31.8795" y1="77.529" x2="96.7103" y2="77.73" gradientUnits="userSpaceOnUse">
<stop stop-color="white"/>
<stop offset="1"/>
</linearGradient>
<linearGradient id="paint1_linear_805_1933" x1="4.4609" y1="45.9111" x2="187" y2="45.9111" gradientUnits="userSpaceOnUse">
<stop stop-color="#9CADB5"/>
<stop offset="1" stop-color="#E0E0E0"/>
</linearGradient>
<radialGradient id="paint2_radial_805_1933" cx="0" cy="0" r="1" gradientUnits="userSpaceOnUse" gradientTransform="translate(85.896 24.632) rotate(96.2465) scale(85.1331 79.6251)">
<stop stop-color="#F2DB8A"/>
<stop offset="1" stop-color="#877531"/>
</radialGradient>
<radialGradient id="paint3_radial_805_1933" cx="0" cy="0" r="1" gradientUnits="userSpaceOnUse" gradientTransform="translate(64.8284 20.7916) rotate(96.3149) scale(11.9758 11.1807)">
<stop stop-color="#D4C17D"/>
<stop offset="1" stop-color="#B3A051"/>
</radialGradient>
<radialGradient id="paint4_radial_805_1933" cx="0" cy="0" r="1" gradientUnits="userSpaceOnUse" gradientTransform="translate(61.5835 41.0486) rotate(96.3157) scale(13.3501 12.5067)">
<stop stop-color="#D4C17D"/>
<stop offset="1" stop-color="#B3A051"/>
</radialGradient>
<radialGradient id="paint5_radial_805_1933" cx="0" cy="0" r="1" gradientUnits="userSpaceOnUse" gradientTransform="translate(144.66 42.0534) rotate(96.2153) scale(10.2915 9.59727)">
<stop stop-color="#D4C17D"/>
<stop offset="1" stop-color="#B3A051"/>
</radialGradient>
<radialGradient id="paint6_radial_805_1933" cx="0" cy="0" r="1" gradientUnits="userSpaceOnUse" gradientTransform="translate(83.8656 32.7372) rotate(96.2465) scale(77.6942 72.6322)">
<stop stop-color="#D4C17D"/>
<stop offset="1" stop-color="#B3A051"/>
</radialGradient>
<radialGradient id="paint7_radial_805_1933" cx="0" cy="0" r="1" gradientUnits="userSpaceOnUse" gradientTransform="translate(90.3533 13.8978) rotate(96.2617) scale(79.8926 74.7277)">
<stop stop-color="#C7B577"/>
<stop offset="1" stop-color="#BDAA57"/>
</radialGradient>
<radialGradient id="paint8_radial_805_1933" cx="0" cy="0" r="1" gradientUnits="userSpaceOnUse" gradientTransform="translate(88.9374 12.2758) rotate(96.2617) scale(79.8926 74.7277)">
<stop stop-color="#E3D49D"/>
<stop offset="1" stop-color="#E0CA70"/>
</radialGradient>
<radialGradient id="paint9_radial_805_1933" cx="0" cy="0" r="1" gradientUnits="userSpaceOnUse" gradientTransform="translate(89.5414 12.885) rotate(96.2541) scale(99.0438 92.6464)">
<stop stop-color="#E6D189"/>
<stop offset="1" stop-color="#BDAA57"/>
</radialGradient>
<radialGradient id="paint10_radial_805_1933" cx="0" cy="0" r="1" gradientUnits="userSpaceOnUse" gradientTransform="translate(88.3274 11.4662) rotate(96.2541) scale(99.0438 92.6464)">
<stop stop-color="#FFF6D4"/>
<stop offset="1" stop-color="#E0CA70"/>
</radialGradient>
<radialGradient id="paint11_radial_805_1933" cx="0" cy="0" r="1" gradientUnits="userSpaceOnUse" gradientTransform="translate(96.4387 34.9689) rotate(96.2693) scale(72.8598 68.1402)">
<stop stop-color="#D6C894"/>
<stop offset="1" stop-color="#A89642"/>
</radialGradient>
<radialGradient id="paint12_radial_805_1933" cx="0" cy="0" r="1" gradientUnits="userSpaceOnUse" gradientTransform="translate(95.222 33.1407) rotate(96.2693) scale(72.8598 68.1402)">
<stop stop-color="#FFF6D4"/>
<stop offset="1" stop-color="#E0CA70"/>
</radialGradient>
<radialGradient id="paint13_radial_805_1933" cx="0" cy="0" r="1" gradientUnits="userSpaceOnUse" gradientTransform="translate(104.142 34.9645) rotate(96.2693) scale(66.7982 62.4713)">
<stop stop-color="#FFF6D4"/>
<stop offset="1" stop-color="#E0CA70"/>
</radialGradient>
<clipPath id="clip0_805_1933">
<rect width="100.487" height="43.9631" fill="white" transform="matrix(1 0 0 -1 17.2891 99.5986)"/>
</clipPath>
<clipPath id="clip1_805_1933">
<rect width="88.8631" height="35.3959" fill="white" transform="matrix(1 0 0 -1 25.8887 42.4082)"/>
</clipPath>
<clipPath id="clip2_805_1933">
<rect width="20.2394" height="3.18907" fill="white" transform="matrix(1 0 0 -1 83.1006 5.6084)"/>
</clipPath>
<clipPath id="clip3_805_1933">
<rect width="15.053" height="3.0436" fill="white" transform="matrix(1 0 0 -1 88.7832 10.0557)"/>
</clipPath>
<clipPath id="clip4_805_1933">
<rect width="7.22856" height="6.46766" fill="white" transform="matrix(1 0 0 -1 102.427 13.4795)"/>
</clipPath>
<clipPath id="clip5_805_1933">
<rect width="12.8206" height="8.47341" fill="white" transform="matrix(1 0 0 -1 106.7 15.4844)"/>
</clipPath>
<clipPath id="clip6_805_1933">
<rect width="14.1438" height="5.2228" fill="white" transform="matrix(1 0 0 -1 108.589 12.2344)"/>
</clipPath>
<clipPath id="clip7_805_1933">
<rect width="9.6903" height="3.39328" fill="white" transform="matrix(1 0 0 -1 106.7 5.77734)"/>
</clipPath>
<clipPath id="clip8_805_1933">
<rect width="9.9029" height="4.8955" fill="white" transform="matrix(1 0 0 -1 96.2588 5.02246)"/>
</clipPath>
<clipPath id="clip9_805_1933">
<rect width="15.4446" height="3.93039" fill="white" transform="matrix(1 0 0 -1 87.6016 4.17285)"/>
</clipPath>
<clipPath id="clip10_805_1933">
<rect width="23.6663" height="5.94454" fill="white" transform="matrix(1 0 0 -1 38.0605 25.6035)"/>
</clipPath>
<clipPath id="clip11_805_1933">
<rect width="16.793" height="6.78377" fill="white" transform="matrix(1 0 0 -1 45.1035 26.4902)"/>
</clipPath>
<clipPath id="clip12_805_1933">
<rect width="9.43853" height="9.23152" fill="white" transform="matrix(1 0 0 -1 64.0176 28.9385)"/>
</clipPath>
<clipPath id="clip13_805_1933">
<rect width="17.5958" height="10.8065" fill="white" transform="matrix(1 0 0 -1 65.3682 30.5156)"/>
</clipPath>
<clipPath id="clip14_805_1933">
<rect width="17.814" height="7.48312" fill="white" transform="matrix(1 0 0 -1 69.1514 24.2217)"/>
</clipPath>
<clipPath id="clip15_805_1933">
<rect width="10.84" height="6.73621" fill="white" transform="matrix(1 0 0 -1 65.3682 19.3994)"/>
</clipPath>
<clipPath id="clip16_805_1933">
<rect width="11.9198" height="7.04952" fill="white" transform="matrix(1 0 0 -1 54.2783 19.8164)"/>
</clipPath>
<clipPath id="clip17_805_1933">
<rect width="18.9078" height="4.15698" fill="white" transform="matrix(1 0 0 -1 43.4629 18.7451)"/>
</clipPath>
</defs>
</svg>
