<svg width="231" height="100" viewBox="0 0 231 100" fill="none" xmlns="http://www.w3.org/2000/svg">
<path fill-rule="evenodd" clip-rule="evenodd" d="M186.198 32.9284L230.32 25.6055L230.687 33.6607C217.014 42.6937 206.211 49.7107 198.285 54.7161L181.994 64.6021L167.714 52.5193L186.198 32.9284Z" fill="#6B4607"/>
<g opacity="0.2617" clip-path="url(#clip0_805_1782)">
<path fill-rule="evenodd" clip-rule="evenodd" d="M228.097 33.2034C229.807 31.9841 230.723 31.2518 230.844 31.0065V33.5695C217.175 42.5987 206.37 49.6177 198.44 54.6229C192.461 58.4052 187.027 61.7005 182.146 64.5088L175.556 58.8335L180.132 55.5382C180.253 56.0252 180.499 57.2445 180.865 59.1997C181.842 60.6643 183.977 60.602 187.272 59.0166C192.153 56.6989 200.087 51.8768 211.072 44.5539C214.246 42.357 219.921 38.5747 228.097 33.2034Z" fill="#5E4718"/>
</g>
<path fill-rule="evenodd" clip-rule="evenodd" d="M180.16 46.2917L181.99 64.599C150.498 59.348 125.604 54.5925 107.297 50.3193C90.8204 46.5373 72.7587 43.3023 53.1074 40.6187C52.2545 39.8864 51.8841 38.3615 52.009 36.0397C52.009 34.6957 52.2545 33.6016 52.7413 32.7401C52.9868 32.2533 53.2281 31.9475 53.4736 31.8269L88.4383 23.2246L180.16 46.2917Z" fill="#613F09"/>
<g opacity="0.2617" clip-path="url(#clip1_805_1782)">
<path fill-rule="evenodd" clip-rule="evenodd" d="M181.976 64.5713C150.487 59.3244 125.589 54.5645 107.282 50.2916C90.8056 46.5094 72.7436 43.2726 53.0926 40.5888L52.3604 38.7581C52.8473 39.4904 55.5348 40.0396 60.4155 40.4057C65.1754 40.6474 100.508 47.1172 166.415 59.8114C169.589 60.2984 173.126 60.9721 177.033 61.8252C179.596 62.0705 181.123 61.276 181.61 59.4453L181.976 64.5713Z" fill="#5E4718"/>
</g>
<path fill-rule="evenodd" clip-rule="evenodd" d="M230.322 25.6087L181.259 52.1564C149.4 47.3965 121.271 43.0027 96.8645 38.9708L53.4785 31.8332C59.0913 29.0289 67.5729 24.997 78.9234 19.7504C85.3934 16.7006 92.0444 13.7671 98.8762 10.9629C124.631 13.7671 148.607 16.5154 170.822 19.2033C188.642 21.2753 208.478 23.4118 230.322 25.6087Z" fill="#9E6A10"/>
<path fill-rule="evenodd" clip-rule="evenodd" d="M163.314 28.3524C169.172 30.0625 176.499 32.1991 185.287 34.7578C192.485 36.4679 200.178 37.3811 208.354 37.506L205.235 39.3367C197.426 38.85 188.763 37.6309 179.243 35.6753C173.872 34.5769 168.259 32.8711 162.401 30.5536C158.252 28.7185 152.881 27.6804 146.295 27.4392C109.801 26.0952 87.6511 25.0614 79.8371 24.3291L71.5967 23.0454L77.2741 20.4824C83.4986 21.3353 94.9697 22.2528 111.692 23.2307C118.648 23.5925 127.617 23.8983 138.601 24.1439C147.509 24.7556 155.75 26.1598 163.314 28.3524Z" fill="#BD7C13"/>
<path fill-rule="evenodd" clip-rule="evenodd" d="M163.685 39.8859C167.833 40.252 174.303 40.4329 183.091 40.4329C191.025 40.4329 197.125 40.7388 201.398 41.3504L194.075 45.378C188.458 43.9134 183.517 43.2458 179.248 43.3664C171.073 43.7325 164.908 43.7325 160.76 43.3664C154.165 42.7547 148.186 41.2298 142.819 38.7874C135.617 35.617 131.344 33.782 130 33.2952C126.829 32.3174 122.436 31.71 116.818 31.4645C105.468 31.0984 96.1334 30.7925 88.8105 30.5513C75.0176 30.0645 65.8683 29.203 61.3496 27.984L65.9286 25.7871C70.5635 26.7649 80.2685 27.4369 95.0349 27.8031C110.654 28.2898 119.989 28.7809 123.039 29.2676C125.727 29.6338 131.525 31.3999 140.433 34.5746C148.492 37.3831 156.241 39.1536 163.685 39.8859Z" fill="#BD7C13"/>
<path fill-rule="evenodd" clip-rule="evenodd" d="M136.223 41.7191C137.929 42.572 140.492 44.1572 143.912 46.4746L132.191 44.6439C129.508 41.9603 127.436 40.1942 125.971 39.337C123.288 37.6312 119.807 36.593 115.534 36.2226C111.265 35.8564 104.735 35.6755 95.9474 35.6755C85.9409 35.7961 79.4106 35.7961 76.3608 35.6755L53.4746 31.8288L56.589 30.3643C74.039 32.9273 88.5039 33.9654 99.975 33.4786C108.883 33.1125 115.293 33.358 119.2 34.2109C122.982 35.0681 128.659 37.5709 136.223 41.7191Z" fill="#BD7C13"/>
<path fill-rule="evenodd" clip-rule="evenodd" d="M188.579 48.3098L183.091 51.2389C180.894 50.9934 178.693 51.0537 176.5 51.4199L161.122 49.0421C165.275 48.7965 170.34 48.3098 176.319 47.5775C180.954 47.332 185.042 47.5775 188.579 48.3098Z" fill="#BD7C13"/>
<path fill-rule="evenodd" clip-rule="evenodd" d="M226.11 27.8061L222.996 29.4516C217.012 28.8399 209.022 27.6812 199.015 25.9754C192.666 24.8769 187.113 23.6579 182.358 22.3139C181.746 22.1933 178.511 21.2155 172.657 19.3848L187.48 21.0346C202.25 24.5711 215.13 26.8283 226.11 27.8061Z" fill="#BD7C13"/>
<path fill-rule="evenodd" clip-rule="evenodd" d="M160.754 22.4962C184.425 28.3545 203.348 31.7101 217.507 32.563L214.939 34.0276C207.983 33.7821 203.102 33.4806 200.298 33.1144C194.074 32.5027 185.471 30.8572 174.487 28.1693C163.132 25.4857 155.809 23.9608 152.514 23.5946C149.58 23.2328 137.872 22.4962 117.364 21.3978C98.4494 20.42 87.0386 19.5067 83.1316 18.6538L81.667 18.2877L86.9782 16.0908C87.9561 16.2114 95.826 16.5173 110.592 17.004C123.287 17.3702 130.972 17.676 133.66 17.9172C142.081 18.6495 151.11 20.1744 160.754 22.4962Z" fill="#BD7C13"/>
<path fill-rule="evenodd" clip-rule="evenodd" d="M112.427 12.427L131.647 14.6239C118.591 14.0122 109.373 13.7667 104.005 13.8916C100.219 14.0122 96.3767 13.9519 92.4697 13.7107L95.9503 12.2461C100.219 12.4873 105.711 12.5476 112.427 12.427Z" fill="#BD7C13"/>
<path fill-rule="evenodd" clip-rule="evenodd" d="M155.995 30.9139C163.929 33.2314 166.432 34.8209 163.503 35.6738C161.302 36.2854 158.312 36.2208 154.53 35.4885C150.994 34.8769 148 33.9034 145.558 32.5594C143.24 31.461 142.995 30.608 144.825 29.9964C146.777 29.3933 150.503 29.6948 155.995 30.9139Z" fill="#BD7C13"/>
<path fill-rule="evenodd" clip-rule="evenodd" d="M117.916 38.2396C124.265 39.9455 124.015 40.7424 117.183 40.6217C110.227 40.3762 105.342 39.7688 102.538 38.791C100.216 38.0587 101.56 37.628 106.565 37.5074C111.45 37.3867 115.232 37.6323 117.916 38.2396Z" fill="#BD7C13"/>
<g opacity="0.25" clip-path="url(#clip2_805_1782)">
<path fill-rule="evenodd" clip-rule="evenodd" d="M53.4365 31.845C59.0495 29.0366 67.5331 25.009 78.8836 19.7622C85.3534 16.7122 92.0026 13.783 98.8385 10.9747C124.589 13.783 148.572 16.5291 170.786 19.213C188.606 21.289 208.437 23.4236 230.285 25.6205L181.221 52.166C149.367 47.4061 121.236 43.0124 96.8247 38.9848L53.4365 31.845Z" fill="url(#paint0_radial_805_1782)"/>
</g>
<path fill-rule="evenodd" clip-rule="evenodd" d="M179.611 64.4204C165.335 74.9137 154.101 83.0292 145.925 88.7626L128.902 99.9322L115.354 84.9202L134.941 61.6765L179.611 54.7197V64.4204Z" fill="#6B4607"/>
<g opacity="0.2617" clip-path="url(#clip3_805_1782)">
<path fill-rule="evenodd" clip-rule="evenodd" d="M176.977 63.9347C178.566 62.8363 179.481 61.9795 179.723 61.3717V64.4839C165.443 74.9813 154.217 83.0951 146.037 88.8326L129.012 100L122.787 93.0432L127.547 89.1987C127.671 89.6857 127.792 91.1503 127.913 93.5925C128.766 95.4232 130.905 95.4232 134.321 93.5925C141.523 89.8102 149.761 84.318 159.035 77.1159C162.452 74.4321 168.434 70.0384 176.977 63.9347Z" fill="#5E4718"/>
</g>
<path fill-rule="evenodd" clip-rule="evenodd" d="M37.3692 45.7471L128.169 77.7826L128.901 99.9365C97.6625 92.2475 72.9456 85.4157 54.7633 79.4324C38.528 74.1815 20.6515 69.4819 1.12085 65.338C0.267947 64.3602 -0.0981978 62.5294 0.0224147 59.8458C0.143027 58.1357 0.509172 56.7271 1.12085 55.6287L1.85314 54.7155L37.3692 45.7471Z" fill="#80520B"/>
<g opacity="0.2617" clip-path="url(#clip4_805_1782)">
<path fill-rule="evenodd" clip-rule="evenodd" d="M128.971 99.8945C97.7278 92.2055 73.0131 85.3732 54.8266 79.3904C38.5954 74.1435 20.7129 69.4422 1.18639 65.2938L0.454102 63.0969C0.941074 64.0746 3.62858 64.8068 8.50929 65.2938C13.1484 65.9053 48.1738 75.3006 113.593 93.487C116.767 94.2193 120.304 95.1969 124.211 96.4162C126.653 96.7823 128.176 95.9292 128.788 93.8531L128.971 99.8945Z" fill="#5E4718"/>
</g>
<path fill-rule="evenodd" clip-rule="evenodd" d="M1.85059 54.714L28.0321 40.9814C34.7433 37.5654 41.6398 34.3304 48.7172 31.2764C74.3473 35.795 98.207 40.1285 120.292 44.2767C138.117 47.5763 157.884 51.0482 179.612 54.714L128.903 84.9188C97.1732 77.7165 69.161 71.1862 44.8748 65.3322L1.85059 54.714Z" fill="#9E6A10"/>
<path fill-rule="evenodd" clip-rule="evenodd" d="M156.907 68.2609L153.797 70.2768C146.108 69.4239 137.441 67.5889 127.801 64.7847C122.434 63.3244 116.942 60.938 111.324 57.647C107.176 55.3295 101.805 53.8649 95.2141 53.2532C56.4027 49.7124 34.1885 47.5155 28.5757 46.6626C25.2804 46.051 22.5925 45.4436 20.5205 44.8319L26.3788 41.8984C31.7461 43.1218 43.2215 44.707 60.7965 46.6583C67.7532 47.3906 76.7216 48.1832 87.706 49.0404C96.6184 50.0182 104.79 52.0299 112.238 55.0797C117.975 57.3971 125.178 60.3263 133.84 63.8671C141.043 66.3095 148.727 67.7741 156.907 68.2609Z" fill="#BD7C13"/>
<path fill-rule="evenodd" clip-rule="evenodd" d="M111.877 69.3607C115.909 69.9767 122.374 70.4591 131.282 70.8296C139.217 71.1914 145.377 71.8074 149.775 72.6603L142.267 77.2393C136.65 75.1673 131.713 74.1249 127.44 74.1249C119.139 74.1249 112.98 73.819 108.952 73.2074C102.361 72.2295 96.4427 70.2179 91.1961 67.1681C83.9938 62.8993 79.7853 60.4526 78.5619 59.8495C75.3915 58.5013 70.9935 57.5277 65.3807 56.9161C54.0302 56.0632 44.6913 55.3309 37.3727 54.7192C23.7048 53.5001 14.6114 52.0356 10.0928 50.3211L14.6674 47.9434C19.3067 49.2873 29.0074 50.5624 43.7738 51.79C59.2725 53.0091 68.6114 53.9826 71.7818 54.7192C74.7109 55.3309 80.3883 57.7044 88.8054 61.8569C96.8649 65.6389 104.554 68.1416 111.877 69.3607Z" fill="#BD7C13"/>
<path fill-rule="evenodd" clip-rule="evenodd" d="M84.2299 70.2759C87.159 72.2272 89.6618 74.2432 91.7337 76.3151L80.0214 73.7521C77.579 70.3319 75.6233 68.0144 74.1631 66.7953C71.6 64.7234 68.1841 63.3191 63.911 62.5825C59.6379 61.8502 53.1119 61.4238 44.3244 61.2989C34.1929 60.9327 27.6023 60.6312 24.5526 60.3856L1.85156 54.7126L4.96595 52.8818C20.5853 56.7845 35.0501 58.7402 48.352 58.7402C57.5056 58.7402 63.911 59.2872 67.5724 60.3856C71.4794 61.609 77.0319 64.9043 84.2299 70.2759Z" fill="#BD7C13"/>
<path fill-rule="evenodd" clip-rule="evenodd" d="M136.59 80.5306L130.736 83.8259C128.048 83.5847 125.847 83.5847 124.146 83.8259L108.768 80.3454C112.911 80.1042 118.042 79.738 124.146 79.247C128.901 79.0058 133.049 79.4322 136.59 80.5306Z" fill="#BD7C13"/>
<path fill-rule="evenodd" clip-rule="evenodd" d="M175.215 57.2744L172.105 59.1051C165.268 57.8861 157.334 56.1199 148.305 53.7982C139.152 51.4807 130.424 48.4309 122.128 44.6445L136.955 47.3928C150.872 52.0277 163.619 55.323 175.215 57.2744Z" fill="#BD7C13"/>
<path fill-rule="evenodd" clip-rule="evenodd" d="M166.431 62.5897L163.683 64.2395C156.726 63.7528 151.846 63.2014 149.037 62.5897C143.054 61.4913 134.516 59.1092 123.411 55.452C112.427 51.67 105.164 49.4688 101.624 48.8614C98.8151 48.3747 87.0984 47.0307 66.4737 44.8338C47.6797 42.8825 36.3292 41.293 32.4265 40.0739L30.9619 39.5269L36.4541 36.9639C36.5747 36.9639 44.4447 37.6962 60.0683 39.1607C72.5172 40.1386 80.2063 40.8062 83.1354 41.1767C91.4362 42.3914 100.405 44.6529 110.045 47.9482C133.353 55.9991 152.147 60.8796 166.431 62.5897Z" fill="#BD7C13"/>
<path fill-rule="evenodd" clip-rule="evenodd" d="M62.0784 33.6619L81.2989 37.1424C67.8721 35.7985 58.6582 35.1308 53.6571 35.1308C49.7501 35.1308 45.8474 34.881 41.9404 34.3942L45.6019 32.5635C48.656 33.1752 54.1438 33.537 62.0784 33.6619Z" fill="#BD7C13"/>
<path fill-rule="evenodd" clip-rule="evenodd" d="M104.732 57.8293C112.546 61.1246 114.928 63.1965 111.874 64.0494C109.677 64.6611 106.753 64.4802 103.087 63.5023C99.4254 62.6494 96.4316 61.3658 94.1141 59.6557C91.9172 58.0705 91.732 56.972 93.5627 56.3604C95.639 55.753 99.365 56.2441 104.732 57.8293Z" fill="#BD7C13"/>
<path fill-rule="evenodd" clip-rule="evenodd" d="M66.1062 65.3295C72.4555 67.7676 72.21 68.6808 65.3782 68.0777C58.2965 67.5867 53.3557 66.6735 50.5471 65.3295C48.3503 64.2311 49.7545 63.6797 54.76 63.6797C59.7611 63.8046 63.5431 64.356 66.1062 65.3295Z" fill="#BD7C13"/>
<g opacity="0.3008" clip-path="url(#clip5_805_1782)">
<path fill-rule="evenodd" clip-rule="evenodd" d="M1.95996 54.6534L28.1393 40.9229C34.8508 37.5068 41.7489 34.2701 48.8265 31.2201C74.4567 35.7347 98.3183 40.0698 120.408 44.2183C138.228 47.5136 158 50.9919 179.723 54.6534L129.012 84.8604C97.2785 77.6583 69.2684 71.1299 44.982 65.2716L1.95996 54.6534Z" fill="url(#paint1_radial_805_1782)"/>
</g>
<g opacity="0.8008" clip-path="url(#clip6_805_1782)">
<path fill-rule="evenodd" clip-rule="evenodd" d="M181.325 26.8389C183.03 26.5547 183.644 26.9355 183.172 27.9756C182.888 28.8281 182.271 29.584 181.325 30.2489C180.378 31.1014 179.478 31.8119 178.625 32.3802C177.204 33.4231 175.69 34.2273 174.078 34.7957L159.87 39.6266C157.881 40.3853 155.701 41.7096 153.334 43.605L150.208 46.1625L139.978 44.7417C138.935 44.5513 138.273 44.5996 137.989 44.8838C137.611 45.1679 137.892 45.5004 138.841 45.8784C140.072 46.4467 142.442 46.9213 145.945 47.2992C145.852 49.3822 144.24 51.6101 141.114 53.9773C139.316 55.3043 136.758 56.7707 133.442 58.3819C129.273 60.3711 127.096 61.414 126.906 61.5078C125.582 62.2665 124.3 63.1645 123.07 64.2074C121.933 65.1537 121.365 65.7221 121.365 65.9125C121.08 67.1458 120.276 68.2796 118.949 69.3225C117.812 70.2688 116.769 70.8372 115.823 71.0276C115.161 71.1213 114.829 71.4055 114.829 71.8801C114.829 72.258 114.971 72.9684 115.255 74.0114C115.442 75.148 115.303 76.6172 114.829 78.416C108.671 77.6573 104.269 76.6627 101.615 75.4322C100.384 74.8639 94.9849 73.4913 85.4168 71.3117C75.9454 69.0383 70.2619 67.4754 68.3665 66.6229C66.0931 65.58 64.246 63.7329 62.8252 61.0815L61.4043 57.3873L67.2298 57.6715C67.514 57.6715 69.1735 56.9127 72.2028 55.3981C75.6129 53.7869 78.2187 52.6985 80.0175 52.1301C144.902 35.8386 178.673 27.4072 181.325 26.8389Z" fill="#634107"/>
</g>
<path fill-rule="evenodd" clip-rule="evenodd" d="M181.566 26.418C183.272 26.418 183.556 26.7497 182.419 27.413C181.277 27.8826 180.377 28.3607 179.718 28.8302C177.917 30.3508 175.738 31.5828 173.179 32.5261C166.64 34.3267 161.101 35.9334 156.556 37.3549C150.685 39.2503 144.241 43.084 137.232 48.8648C132.024 53.3189 126.196 57.0578 119.756 60.0904C117.956 60.939 115.776 62.4596 113.213 64.6392L109.948 67.4779L107.816 63.3555V54.4087C104.787 52.7933 102.082 51.0875 99.7174 49.2913C94.979 45.6901 94.32 43.4588 97.7273 42.6102C103.129 41.2921 131.077 35.8904 181.566 26.418Z" fill="#8F7F59"/>
<path fill-rule="evenodd" clip-rule="evenodd" d="M73.0051 56.541C96.8777 60.2369 108.905 62.5113 109.098 63.3599L110.089 67.6244L99.1478 67.3401C95.4562 67.1549 88.4908 66.1599 78.2603 64.3593C75.7016 63.9802 71.9626 63.0799 67.0391 61.6584C62.4902 60.4265 59.6515 59.5305 58.5143 58.9576L55.8135 57.3982C61.8743 56.8296 67.6034 56.541 73.0051 56.541Z" fill="#94845D"/>
<path fill-rule="evenodd" clip-rule="evenodd" d="M153.148 29.8282C169.44 27.459 178.154 26.2744 179.287 26.2744C181.087 26.2744 182.229 26.3692 182.698 26.5587C183.172 26.7482 182.789 26.9378 181.561 27.1273C180.614 27.3169 179.95 27.6012 179.571 27.9802C179.003 28.4497 178.623 28.7383 178.434 28.8288C174.742 30.9137 170.383 32.43 165.36 33.3776C159.39 34.7087 152.95 37.0262 146.041 40.343C143.478 41.5707 140.023 43.9398 135.668 47.4462C131.025 51.2326 127.376 53.8387 124.727 55.2559C121.225 57.1469 117.667 59.5678 114.07 62.5055L109.663 66.1971C106.256 66.8605 101.565 66.8131 95.5947 66.055C89.7235 65.2969 85.4589 64.7283 82.8055 64.3492C78.1619 63.5911 74.5651 62.8286 72.0063 62.0748L55.2412 57.246C59.2171 54.4073 62.2497 52.1286 64.3345 50.4271C72.954 47.7736 81.9095 45.0727 91.188 42.3245C109.758 36.8323 120.648 33.9462 123.87 33.6576C126.523 33.4767 136.284 32.1973 153.148 29.8282Z" fill="#695322"/>
<path fill-rule="evenodd" clip-rule="evenodd" d="M151.58 8.94293C158.498 10.8383 164.417 13.0653 169.345 15.6197C174.932 18.5575 178.485 21.2109 180.002 23.5758C179.244 25.945 176.874 27.8834 172.898 29.404C171.292 30.063 167.833 31.1098 162.53 32.5313C157.223 33.9528 152.726 35.37 149.03 36.7915C145.145 38.3078 140.648 41.0086 135.53 44.8898C129.848 49.249 126.527 51.6656 125.58 52.1394C123.404 53.2766 119.803 55.6889 114.781 59.3891C112.321 61.2801 110.046 63.0376 107.962 64.6487L88.2113 63.2272C86.0317 63.0376 80.113 61.853 70.4511 59.6734L56.5247 56.4039C54.345 55.2667 53.0657 53.8495 52.6866 52.1437C52.4023 51.1961 52.6392 49.206 53.3974 46.1734L53.966 44.8941L57.3776 41.9132C60.3154 39.7336 64.7177 36.042 70.5933 30.8298C75.1378 26.9486 81.1038 22.8263 88.4956 18.467C96.077 14.112 102.138 11.269 106.682 9.94229C112.747 8.14172 120.419 6.7676 129.702 5.81993C136.142 5.72085 143.435 6.76329 151.58 8.94293Z" fill="#F27922"/>
<g opacity="0.6211" clip-path="url(#clip7_805_1782)">
<path fill-rule="evenodd" clip-rule="evenodd" d="M129.387 7.09874C138.196 7.09874 145.394 7.80917 150.984 9.23003C150.322 9.5142 149.515 9.65628 148.568 9.65628C147.622 9.65628 145.962 9.56251 143.595 9.37211C141.322 9.18456 139.381 9.08794 137.77 9.08794C132.655 9.08794 127.207 9.79837 121.43 11.2192C115.272 12.7339 109.779 14.9589 104.948 17.8973C101.538 19.6961 99.1707 20.9748 97.8436 21.7336C95.664 22.9669 93.9135 24.527 92.5865 26.4224C91.3532 28.1274 89.3185 30.0712 86.4768 32.2479C83.0667 34.8055 80.8416 36.6043 79.7987 37.6472C77.9999 39.5426 76.9087 40.5827 76.5308 40.7731C75.9624 40.6793 75.3003 40.631 74.5416 40.631C72.362 40.631 68.2415 41.3897 62.1801 42.9044C60.5688 43.2823 60.2847 42.9527 61.3276 41.9098C63.1264 40.3951 64.3569 39.3039 65.0218 38.6418C68.0539 35.9905 70.279 34.0013 71.6998 32.6742C72.7428 32.4838 73.4049 32.0575 73.689 31.3954C78.2358 27.5108 84.013 23.5807 91.0235 19.6023C98.034 15.5301 103.763 12.8305 108.216 11.5034C114.277 9.70459 121.336 8.23543 129.387 7.09874Z" fill="#FF9947"/>
</g>
<path fill-rule="evenodd" clip-rule="evenodd" d="M132.115 7.94536L135.527 10.9305C137.987 13.2954 139.787 15.4276 140.924 17.323C143.578 21.8718 144.427 27.1271 143.483 33.0974C142.915 36.789 142.204 36.9354 141.355 33.5238C141.924 33.4334 142.393 33.0026 142.772 32.2445C143.535 30.823 143.393 28.6476 142.346 25.7056C140.83 21.3506 137.608 17.1808 132.684 13.2049L125.865 8.65612C123.496 8.46658 121.079 8.37181 118.615 8.37181C115.777 8.37181 113.36 8.51397 111.37 8.79827C115.156 7.94536 118.663 7.282 121.885 6.80816C126.339 6.71339 129.746 7.09246 132.115 7.94536Z" fill="#FF9B4A"/>
<path fill-rule="evenodd" clip-rule="evenodd" d="M171.045 25.424C173.13 23.6235 173.983 22.0124 173.604 20.5909C173.324 19.4537 171.993 17.8427 169.628 15.7578L175.025 19.0273C175.309 21.2069 174.788 23.1927 173.461 24.9933C171.855 26.6043 170.86 27.5994 170.481 27.9784C169.442 28.7366 168.822 28.9261 168.633 28.547C168.443 28.168 169.244 27.1255 171.045 25.424Z" fill="#FF9B4A"/>
<path fill-rule="evenodd" clip-rule="evenodd" d="M118.757 10.79L122.449 13.6331C125.292 15.8127 127.376 17.7554 128.699 19.4612C132.494 24.2943 134.954 29.597 136.091 35.3735C136.849 38.8755 136.422 39.3063 134.811 36.6528C134.902 35.6104 134.622 34.1932 133.963 32.3926C132.731 28.981 130.362 25.5737 126.86 22.1621C124.017 19.4138 119.946 17.092 114.635 15.201L107.531 13.0688L104.973 13.3531C101.845 13.7321 98.4338 14.3438 94.7422 15.201L99.291 12.9266C106.399 11.7851 112.886 11.0743 118.757 10.79Z" fill="#FF9B4A"/>
<path fill-rule="evenodd" clip-rule="evenodd" d="M111.795 55.5482L110.663 57.3962C110.563 55.8627 109.474 53.6313 107.393 50.7151C105.028 47.3078 100.195 43.8962 92.9024 40.4846L82.6719 36.2244C75.3791 36.3148 69.2193 37.3616 64.2009 39.3517C62.4951 40.0151 60.4102 41.0575 57.9463 42.479C58.7044 41.6261 60.2207 40.2089 62.4951 38.2188C69.8826 35.0915 77.8861 33.1488 86.5099 32.3906L91.9073 34.9493C96.0771 37.129 99.5318 39.2612 102.28 41.3418C106.54 44.7491 109.711 49.4831 111.795 55.5482Z" fill="#FF9B4A"/>
<path fill-rule="evenodd" clip-rule="evenodd" d="M107.53 33.3785C110.184 35.179 112.837 37.7378 115.487 41.0546C118.709 45.0305 121.22 49.2433 123.016 53.7017L118.472 56.6825C118.377 56.3982 118.61 55.4979 119.178 53.9817C119.751 52.5602 119.941 51.6125 119.751 51.143C117.003 43.8502 110.843 37.6904 101.276 32.6677L87.7801 27.4125C84.179 27.7915 80.3409 28.4506 76.2703 29.4026C74.0906 29.8721 72.0531 30.4924 70.1621 31.2505L70.5886 30.8198L75.4174 27.1282C81.4781 25.5171 87.4485 24.5695 93.324 24.2852L107.53 33.3785Z" fill="#FF9B4A"/>
<path fill-rule="evenodd" clip-rule="evenodd" d="M108.951 24.7138L96.8721 20.3072C92.039 20.781 87.1628 21.4918 82.2393 22.4394L87.4945 19.17C92.8962 18.3171 98.2506 17.8906 103.553 17.8906L109.804 21.0179C114.352 23.5766 117.764 25.8984 120.034 27.9833C125.815 33.2859 129.554 39.3036 131.26 46.0278L131.686 47.8758L129.98 49.1551C129.7 48.776 129.321 47.4019 128.843 45.0327C128.374 42.474 127.615 40.2944 126.573 38.4938C123.54 33.3764 117.669 28.7845 108.951 24.7138Z" fill="#FF9B4A"/>
<path fill-rule="evenodd" clip-rule="evenodd" d="M164.371 19.7415C163.897 17.3723 160.959 14.1976 155.562 10.2217L161.385 12.0696C163.948 14.5336 165.417 17.0923 165.788 19.7458C166.171 21.8263 165.882 23.6269 164.939 25.1432C164.276 26.3751 163.897 26.849 163.802 26.5647L163.944 25.7118C165.077 25.7075 165.228 23.7217 164.371 19.7415Z" fill="#FF9B4A"/>
<path fill-rule="evenodd" clip-rule="evenodd" d="M144.337 7.23498C150.113 11.2152 153.525 14.1056 154.567 15.9019C155.42 17.6077 155.894 19.8821 155.989 22.7208C155.989 25.1847 155.799 26.8431 155.42 27.6917C155.274 27.9846 155.084 28.2689 154.851 28.5446C154.731 29.4837 154.442 30.0523 153.998 30.2504L152.439 29.9704C153.482 29.5741 154.291 29.1046 154.856 28.5489C154.942 27.6659 154.894 26.4813 154.714 24.9952C154.05 20.0673 151.582 15.6649 147.322 11.7795L141.214 7.37713C139.318 7.1876 137.186 6.85591 134.821 6.38208L133.262 5.81348C137.518 6.19254 141.209 6.66638 144.337 7.23498Z" fill="#FF9B4A"/>
<path fill-rule="evenodd" clip-rule="evenodd" d="M157.692 24.0039C160.346 23.6249 164.373 23.2932 169.771 23.0089C172.708 22.7246 176.12 22.9615 180.001 23.7196C179.053 26.0888 176.684 27.9841 172.898 29.4057C171.291 30.0647 167.832 31.1115 162.529 32.533C157.223 33.9545 152.725 35.3717 149.03 36.7932C145.144 38.3094 140.647 41.0103 135.53 44.8914C129.848 49.2507 126.527 51.6673 125.579 52.1411C123.404 53.2783 119.803 55.6906 114.78 59.3908C112.32 61.2818 110.046 63.0393 107.961 64.6503L103.559 64.366L104.98 56.9742C105.928 56.5995 109.339 53.6143 115.211 48.0231C118.148 45.2748 122.124 41.4454 127.147 36.5175C131.597 32.7268 136.288 29.8838 141.216 27.9928C146.135 26.0845 151.627 24.7578 157.692 24.0039Z" fill="#C25B10"/>
<path fill-rule="evenodd" clip-rule="evenodd" d="M107.106 64.6419L87.4933 63.3583C85.4128 63.173 79.5846 61.9884 70.0175 59.8088L56.3753 56.6815C55.2381 55.6391 54.4326 54.3123 53.9588 52.7013C53.5797 51.3745 53.6271 49.673 54.1009 47.5839L54.6695 46.5931C58.7402 44.3187 63.7628 43.0393 69.7332 42.755C77.1207 42.4707 84.5125 44.3144 91.9 48.2946C96.0698 50.4743 100.756 53.1277 105.969 56.255L106.679 59.2359C107.058 61.5103 107.248 63.2635 107.248 64.4955L107.106 64.6419Z" fill="#D16211"/>
<path fill-rule="evenodd" clip-rule="evenodd" d="M145.894 7.94471C149.78 8.32378 152.338 8.845 153.57 9.50837L149.448 9.22407C148.121 9.03453 147.079 8.93976 146.321 8.93976C144.804 8.75023 143.43 8.75023 142.198 8.93976C141.16 9.1293 140.07 9.22407 138.933 9.22407C136.659 9.22407 134.811 9.27145 133.389 9.36622C129.508 9.55575 126.76 9.84005 125.149 10.2191C124.106 10.4087 122.879 10.8351 121.457 11.4985C119.846 12.1618 118.425 12.6357 117.193 12.92C115.586 13.2043 113.971 13.7729 112.364 14.6258C110.374 15.8578 108.672 16.8054 107.246 17.4688C106.204 18.0374 105.114 18.8429 103.977 19.8853C103.314 20.3592 102.271 20.7383 100.85 21.0226C99.1439 21.3069 97.9119 21.8281 97.1581 22.5862C96.1156 23.8182 95.0258 25.0501 93.8886 26.2778C93.3243 26.8464 91.2394 29.1639 87.6383 33.2432C87.1645 33.9022 86.8328 34.333 86.6432 34.5225C86.4537 34.7121 85.9325 35.0437 85.0796 35.5133L81.2415 38.072C80.1043 38.9249 78.5407 39.8252 76.5549 40.7728C75.5124 40.6781 74.9912 40.4885 74.9912 40.2042L75.1334 39.7735L76.4127 38.2141L85.3639 29.6894C85.8377 29.2156 86.9275 28.2679 88.6333 26.8464C89.7705 25.8987 90.5287 25.1406 90.9078 24.572C92.1397 22.961 94.1298 21.5395 96.8738 20.3075C98.1057 19.8337 99.2429 19.1703 100.285 18.3217C100.949 17.9426 101.754 17.374 102.702 16.6159C103.555 15.9525 105.498 14.9575 108.53 13.6307C111.657 12.2092 113.833 11.4037 115.069 11.2142C115.638 11.1194 117.77 10.5508 121.461 9.50837C124.873 8.46593 127.333 7.89733 128.849 7.80256C135.573 7.32873 141.255 7.37611 145.894 7.94471Z" fill="#FFC17A"/>
<path fill-rule="evenodd" clip-rule="evenodd" d="M95.4545 49.4383C89.4842 45.8415 85.2714 43.7566 82.8074 43.188C78.6377 42.1456 74.8513 41.7665 71.4397 42.0508C65.1894 42.2403 60.4984 42.9511 57.3711 44.1787C55.381 45.0316 55.0019 44.799 56.2339 43.468C58.6979 42.1413 61.9673 41.1031 66.038 40.345C71.2459 39.3026 75.9368 39.3499 80.1066 40.4828C84.1772 41.62 88.8682 43.5154 94.1752 46.1645C98.1511 48.1546 101.184 49.8561 103.268 51.282C106.206 53.4616 107.865 56.352 108.239 59.9531C108.524 62.6023 108.429 64.1703 107.959 64.6441L90.4792 63.649L86.219 62.9383L91.19 63.2226C94.9764 63.3131 97.9184 63.3131 99.999 63.2226C102.842 63.0331 104.544 62.7014 105.116 62.2319C105.969 61.4694 105.685 59.9574 104.264 57.6787C102.463 54.84 101.278 53.1342 100.71 52.5613C99.8569 51.8075 98.108 50.7694 95.4545 49.4383Z" fill="#F27922"/>
<path fill-rule="evenodd" clip-rule="evenodd" d="M110.659 52.4214C110.659 51.8528 110.707 51.1894 110.801 50.4313C111.081 48.915 111.559 47.8295 112.223 47.1618C113.364 46.2142 114.971 45.9299 117.056 46.3089L116.061 50.0005C115.871 50.9482 116.156 51.8528 116.914 52.7014C117.293 53.1752 117.905 53.886 118.762 54.8337C119.141 55.5918 119.003 56.1604 118.335 56.5395C117.668 56.9185 117.009 56.9659 116.345 56.6816C115.966 56.4921 115.725 55.7813 115.634 54.5494C115.544 52.8436 115.35 51.6633 115.066 50.9999C114.682 50.147 114.118 49.9575 113.36 50.4313C112.408 51.2842 111.508 51.9476 110.659 52.4214Z" fill="#F27922"/>
<path fill-rule="evenodd" clip-rule="evenodd" d="M154.137 24.1457C153.853 24.43 153.517 24.7143 153.146 24.9986C152.573 25.7568 152.242 26.4201 152.151 26.9887C152.151 27.3635 152.289 27.8416 152.578 28.4102C152.767 28.7893 152.72 29.3105 152.44 29.9739C152.056 30.8225 151.488 30.9216 150.734 30.2539C150.071 29.5905 149.644 28.8324 149.455 27.9838C149.36 27.2257 148.645 26.7518 147.322 26.5623C146.185 26.3728 144.953 26.4201 143.631 26.7044L145.901 25.1451C147.607 24.1027 148.791 23.5341 149.455 23.4393C150.583 23.2411 152.147 23.4824 154.137 24.1457Z" fill="#F27922"/>
<path fill-rule="evenodd" clip-rule="evenodd" d="M152.435 32.2441L153.426 33.9499L154.416 34.2299C155.08 34.4195 155.459 34.609 155.558 34.7985C155.743 35.1776 155.648 35.5093 155.274 35.7936C154.895 36.1727 154.279 36.2631 153.426 36.0736C152.668 35.8841 152.284 35.1733 152.284 33.9456L152.435 32.2441Z" fill="#F27922"/>
<path fill-rule="evenodd" clip-rule="evenodd" d="M177.442 22.2979C177.162 21.7293 177.442 21.6345 178.295 22.0136C179.148 22.3926 179.717 22.9612 180.001 23.7194C180.195 24.667 180.001 25.4726 179.437 26.1359C178.674 26.8941 177.205 27.7427 175.03 28.6946C173.044 29.5432 171.239 30.2109 169.633 30.6804L167.643 30.9647L171.192 29.6854C173.94 28.8325 175.973 27.6048 177.304 25.9938C177.869 25.2356 178.11 24.5249 178.015 23.8615C178.011 23.672 177.817 23.1508 177.442 22.2979Z" fill="#F27922"/>
<path fill-rule="evenodd" clip-rule="evenodd" d="M146.467 14.6227C149.025 15.6651 150.822 16.2811 151.864 16.4706C153.57 16.7549 155.56 16.139 157.834 14.6227L158.261 15.1913C158.545 15.6651 158.735 16.139 158.834 16.6128C159.114 17.6552 158.076 18.6029 155.702 19.4558C153.049 20.4982 149.973 20.3087 146.467 18.8872C142.585 16.9919 139.363 15.4756 136.805 14.3384C132.635 12.443 128.233 10.8837 123.589 9.65172L115.779 7.66162C115.495 7.56685 115.59 7.37732 116.059 7.09302C116.628 6.71395 117.102 6.52441 117.481 6.52441L126.863 8.65667C133.397 10.1729 137.662 11.2628 139.652 11.9261L146.467 14.6227Z" fill="#BD7400"/>
<path fill-rule="evenodd" clip-rule="evenodd" d="M140.924 1.97967L140.782 1.41107C140.502 0.937234 141.067 0.842467 142.488 1.12677C142.958 1.22153 143.151 1.60061 143.057 2.26397C143.057 2.92734 142.82 3.6381 142.346 4.39623C141.967 5.0596 141.446 5.53343 140.782 5.81773L140.076 6.10204C139.602 6.38634 139.128 6.57587 138.654 6.67064C134.205 6.7654 130.84 6.90755 128.566 7.09709C127.144 7.28662 126.386 7.47616 126.292 7.66569L126.576 7.94999L124.159 7.38139C123.776 7.28662 123.449 7.0497 123.164 6.67064L123.022 6.24419H137.091C132.352 5.29652 128.945 4.68053 126.864 4.39623C122.789 3.82763 120.321 3.6381 119.473 3.82763L120.183 3.11688C120.653 2.54828 121.079 2.31136 121.463 2.40613L131.125 3.54333L138.654 5.39128L134.963 4.11193C132.973 2.87996 131.456 2.16921 130.414 1.97967L128.14 1.26892L128.708 0.842467C129.281 0.558166 129.85 0.416016 130.414 0.416016C131.172 0.506475 132.546 1.17415 134.532 2.40613C135.195 2.87996 136.854 3.78024 139.503 5.10267L139.787 4.24977L140.924 1.97967Z" fill="#C7BE91"/>
<path fill-rule="evenodd" clip-rule="evenodd" d="M154.421 7.80458L148.028 7.09383H143.626L152.439 10.6476C155.089 11.7848 156.415 12.7325 156.415 13.4906C156.325 14.0592 155.468 14.7226 153.857 15.4807C153.857 14.533 153.241 13.5854 152.009 12.6377C150.777 11.7848 148.55 10.5528 145.332 8.94179L141.92 7.09383L145.896 10.5054C146.18 10.8845 146.417 11.4531 146.607 12.2113C146.891 12.9694 146.939 13.4432 146.753 13.6328C146.559 14.0118 145.659 13.9644 144.052 13.4906C144.238 12.7325 144.1 11.9743 143.622 11.2162L140.21 6.95599L140.072 6.10309L141.352 5.96094C142.011 6.15047 145.138 6.15047 150.729 5.96094C152.53 6.0557 153.572 6.24524 153.857 6.52954L154.421 7.80458Z" fill="#C7BE91"/>
<path fill-rule="evenodd" clip-rule="evenodd" d="M146.75 3.11429C149.778 3.87242 151.769 4.48841 152.716 4.96224C155.176 6.38375 157.028 8.18432 158.256 10.3597C158.73 11.023 158.777 11.5442 158.398 11.9233C158.208 12.1128 157.687 12.3971 156.839 12.7762C156.365 13.0605 156.128 13.0131 156.128 12.6341C156.218 11.9707 156.218 11.3073 156.128 10.644C156.128 9.88582 155.318 8.93815 153.707 7.80094C151.721 6.47421 150.347 5.52654 149.589 4.95794C148.357 4.01027 144.708 2.92044 138.648 1.69278C135.43 0.934646 130.218 1.45586 123.015 3.25644C120.935 3.82504 119.556 4.58317 118.897 5.53084L118.613 6.8102C117.954 6.62066 117.433 6.05206 117.054 5.10439C116.769 4.44102 116.864 3.87242 117.334 3.39859C117.618 3.20905 118.329 2.87737 119.466 2.40353C120.315 1.9297 121.93 1.50325 124.295 1.12418C126.858 0.650345 129.175 0.366045 131.26 0.271278C136.558 0.0817438 140.017 0.508195 141.628 1.55063C142.107 1.83924 143.812 2.36046 146.75 3.11429Z" fill="#C7BE91"/>
<path fill-rule="evenodd" clip-rule="evenodd" d="M144.333 14.0593C148.124 15.386 151.295 15.8599 153.853 15.4808C154.99 15.2913 156.128 14.6279 157.265 13.4907L158.971 11.3584C159.16 12.8747 159.065 14.1067 158.686 15.05C157.928 17.0401 155.749 18.0352 152.152 18.0352C150.162 17.9404 147.749 17.4666 144.902 16.6137C142.343 15.7608 140.121 14.8174 138.225 13.7707C134.056 11.6858 128.701 9.88954 122.167 8.37327C120.366 7.99421 118.845 7.61514 117.618 7.23607L116.485 6.66747L116.343 5.95672V3.82446L117.334 3.25586C116.485 4.5826 118.565 5.76718 123.584 6.80962C125.005 7.18869 128.654 8.27851 134.525 10.0748C137.467 10.8372 140.732 12.164 144.333 14.0593Z" fill="#F7CE00"/>
<path fill-rule="evenodd" clip-rule="evenodd" d="M136.947 8.80066C138.084 8.13729 138.838 7.237 139.217 6.0998C135.526 6.47887 133.014 6.62102 131.687 6.52625C125.627 6.14718 123.115 6.24626 124.158 6.81055C124.726 7.18962 127.044 7.80561 131.119 8.65851C133.966 9.32188 135.905 9.36926 136.947 8.80066ZM131.834 5.8155C133.914 6.00503 136.193 5.95765 138.653 5.67335L126.863 3.25679L120.32 2.68819C119.85 2.78296 119.424 2.92511 119.045 3.11464C118.287 3.39894 118.002 3.77801 118.192 4.25185C118.571 4.82045 118.95 5.15213 119.329 5.2469C119.708 5.43212 120.798 5.57858 122.598 5.67335H127.289C129.086 5.57858 130.598 5.62597 131.834 5.8155ZM138.506 4.9626L133.389 2.11959C131.308 1.26669 129.697 0.887619 128.56 0.982386C124.011 1.36145 122.168 1.74052 123.016 2.11959C123.869 2.49866 127.044 3.01987 132.54 3.68324L138.506 4.9626ZM138.791 9.51141C138.416 10.08 139.221 10.7434 141.212 11.5015C144.055 12.923 145.614 13.3969 145.898 12.923C146.372 12.3587 145.709 11.1698 143.912 9.36926L140.216 6.52625L138.791 9.51141ZM142.344 2.26605C142.534 1.98175 142.297 1.74483 141.634 1.55529C139.837 0.891924 137.417 0.56024 134.384 0.56024H132.394C132.114 0.749774 133.057 1.41315 135.237 2.55035L140.776 5.53551L141.772 3.11895C142.155 2.73988 142.344 2.45558 142.344 2.26605ZM156.129 15.7617C152.808 16.9937 149.116 16.5716 145.045 14.4867C141.065 12.4018 135.573 10.4591 128.564 8.65851C122.026 6.9527 118.192 5.76812 117.055 5.10475C115.159 3.96754 116.581 2.73557 121.315 1.41314C126.053 0.181172 130.692 -0.245279 135.237 0.133789C146.699 1.17623 154.276 4.30353 157.968 9.51141C160.057 12.3544 159.441 14.435 156.129 15.7617ZM147.173 11.7858C148.026 13.0178 148.457 13.6812 148.457 13.7759C149.305 14.6288 150.348 15.1027 151.58 15.1974C153.1 15.3827 154.096 15.2448 154.565 14.771C155.039 14.2971 154.802 13.5864 153.854 12.6387C153.001 11.7858 150.727 10.5538 147.035 8.94281L141.776 6.6684L147.173 11.7858ZM148.883 5.38905C150.305 5.48382 151.063 5.5312 151.158 5.5312C151.726 5.5312 151.774 5.34166 151.296 4.9626C149.969 3.82539 148.026 3.02418 145.467 2.54604C144.808 2.45127 144.378 2.54604 144.188 2.83034C143.908 3.39894 143.667 3.73063 143.477 3.82539C143.098 4.10969 142.672 4.53615 142.198 5.10475L141.772 5.95765L148.883 5.38905ZM154.849 7.37915L152.717 6.3841L142.913 6.52625L150.016 8.94281C150.869 9.32188 152.286 9.98524 154.276 10.9329C155.982 11.691 156.93 11.8806 157.119 11.5015C157.404 10.9329 157.309 10.2695 156.839 9.51141C156.456 8.56374 155.797 7.85299 154.849 7.37915Z" fill="#FFFF9C"/>
<g opacity="0.4219" clip-path="url(#clip8_805_1782)">
<path fill-rule="evenodd" clip-rule="evenodd" d="M138.94 5.12958C136.476 5.41375 134.203 5.46206 132.12 5.27166C130.889 5.08127 129.372 5.0358 127.573 5.12958H122.884C121.085 5.0358 119.994 4.89372 119.616 4.70332C119.238 4.60954 118.857 4.27706 118.479 3.70872C118.101 2.94998 118.812 2.42995 120.611 2.14578C122.79 2.14578 124.967 2.33617 127.147 2.71412L138.94 5.12958Z" fill="#FFFF00"/>
</g>
<g opacity="0.4219" clip-path="url(#clip9_805_1782)">
<path fill-rule="evenodd" clip-rule="evenodd" d="M139.93 7.09766C139.552 8.23434 138.794 9.13517 137.657 9.79729C136.614 10.3656 134.673 10.3173 131.831 9.6552C131.263 9.46481 129.89 9.13517 127.711 8.6606C126.102 8.28265 125.153 7.99848 124.869 7.80809C123.826 7.23974 126.338 7.14597 132.4 7.52391C133.727 7.61769 136.236 7.47561 139.93 7.09766Z" fill="#FFFF00"/>
</g>
<g opacity="0.4219" clip-path="url(#clip10_805_1782)">
<path fill-rule="evenodd" clip-rule="evenodd" d="M140.288 7.09805C141.899 8.14096 143.13 9.08725 143.982 9.93977C145.781 11.7386 146.446 12.9236 145.971 13.4919C145.687 13.9665 144.124 13.4919 141.282 12.0711C139.293 11.3123 138.489 10.6502 138.867 10.0819L140.288 7.09805Z" fill="#FFFF00"/>
</g>
<g opacity="0.4219" clip-path="url(#clip11_805_1782)">
<path fill-rule="evenodd" clip-rule="evenodd" d="M141.957 7.09523C148.683 9.74655 152.707 11.7357 154.034 13.0628C154.981 14.0091 155.219 14.7196 154.745 15.1941C154.27 15.6687 153.276 15.8108 151.761 15.6204C150.528 15.5266 149.488 15.052 148.635 14.1995C148.635 14.1057 148.209 13.4408 147.356 12.2103C147.072 11.642 145.273 9.93694 141.957 7.09523Z" fill="#FFFF00"/>
</g>
<g opacity="0.4219" clip-path="url(#clip12_805_1782)">
<path fill-rule="evenodd" clip-rule="evenodd" d="M144.11 7.23717L153.914 7.09509L156.046 8.08969C156.992 8.56425 157.657 9.27468 158.035 10.221C158.509 10.9797 158.603 11.6418 158.319 12.2102C158.129 12.5881 157.182 12.4006 155.477 11.6418C153.488 10.6955 152.067 10.0306 151.215 9.65263C149.603 8.99051 147.236 8.18346 144.11 7.23717Z" fill="#FFFF00"/>
</g>
<g opacity="0.4219" clip-path="url(#clip13_805_1782)">
<path fill-rule="evenodd" clip-rule="evenodd" d="M141.957 5.55273C142.432 4.50982 143 3.7994 143.662 3.42145C143.852 3.32767 144.088 2.99519 144.372 2.42685C144.563 2.14267 144.989 2.0489 145.651 2.14267C148.209 2.61724 150.15 3.42145 151.477 4.55813C151.951 4.93608 151.903 5.12648 151.335 5.12648C151.241 5.12648 150.482 5.07817 149.061 4.98439C147.831 4.89061 145.461 5.07817 141.957 5.55273Z" fill="#FFFF00"/>
</g>
<g opacity="0.4219" clip-path="url(#clip14_805_1782)">
<path fill-rule="evenodd" clip-rule="evenodd" d="M140.574 5.10645L135.033 2.12264C132.853 0.985957 131.907 0.323837 132.191 0.133442H134.18C137.212 0.133442 139.628 0.465923 141.426 1.12804C142.089 1.31844 142.327 1.5543 142.137 1.83847C141.853 2.21642 141.662 2.50059 141.568 2.69099L140.574 5.10645Z" fill="#FFFF00"/>
</g>
<g opacity="0.4219" clip-path="url(#clip15_805_1782)">
<path fill-rule="evenodd" clip-rule="evenodd" d="M138.99 4.8291L133.022 3.55033C131.224 3.17238 128.049 2.64951 123.503 1.98739C122.65 1.60944 124.497 1.22865 129.044 0.850699C130.181 0.756922 131.792 1.13487 133.875 1.98739L138.99 4.8291Z" fill="#FFFF00"/>
</g>
<path fill-rule="evenodd" clip-rule="evenodd" d="M123.304 27.982C123.873 28.7402 124.295 29.4983 124.584 30.2521C125.152 31.9579 124.299 33.8533 122.025 35.9338C120.888 36.9763 119.234 37.7344 117.054 38.2082C114.969 38.6778 113.026 38.7295 111.226 38.3504C109.804 37.9713 107.862 37.3553 105.398 36.5024C102.464 35.3609 100.19 34.5123 98.5788 33.9437C93.2761 32.1432 87.5901 31.0017 81.5293 30.5321C76.6014 30.1531 73.4311 29.9635 72.0095 29.9635C71.6305 29.9635 71.6779 29.5802 72.1517 28.822C72.5308 28.0639 72.9572 27.6417 73.4311 27.547L84.7988 27.827C92.9444 28.0165 98.2514 28.3956 100.715 28.9642C102.042 29.2485 105.023 29.9592 109.666 31.0964C112.983 32.0441 115.258 32.4662 116.49 32.3758C118.57 32.281 120.608 30.5278 122.598 27.1162L123.304 27.982Z" fill="#BD7400"/>
<path fill-rule="evenodd" clip-rule="evenodd" d="M97.8662 16.0455L98.4348 11.9232L97.8662 11.0702C97.4871 10.4069 98.1505 10.0752 99.8563 10.0752C100.33 10.0752 100.709 10.5964 100.993 11.6388C101.183 12.7761 101.136 14.0554 100.851 15.4769C100.567 17.4627 99.9036 18.6516 98.8612 19.0307C98.5769 19.5993 98.1505 20.1205 97.5819 20.5943C92.5592 22.1106 88.7728 23.4804 86.2141 24.7167C84.6979 25.4748 83.9397 26.0434 83.9397 26.4225C83.9397 26.6853 84.0603 26.8274 84.2973 26.8489L81.3853 26.7068C80.8167 26.6163 80.3429 26.3277 79.9638 25.8539L79.5374 25.1431L95.5961 20.31C89.8196 20.4048 85.6972 20.5469 83.2333 20.7365C78.7792 21.1155 75.8931 21.6368 74.5664 22.3001C74.6612 21.8263 74.8507 21.3525 75.135 20.8786C75.5141 19.8362 75.9405 19.315 76.4144 19.315C77.1725 19.315 81.0063 18.8885 87.9242 18.0399L97.1597 18.4664C94.7905 18.1821 93.1795 17.8978 92.3266 17.6135C89.1045 16.192 87.1618 15.4812 86.4984 15.4812L83.5133 15.1969L84.0819 14.344C84.5557 13.6806 85.1243 13.2542 85.7877 13.0647C87.1144 12.6856 88.915 13.3016 91.1851 14.9126C92.1328 15.4812 94.3598 16.4289 97.8618 17.7556L97.8662 16.0455Z" fill="#C7BE91"/>
<path fill-rule="evenodd" clip-rule="evenodd" d="M118.335 29.9696C117.956 28.3585 116.913 27.0318 115.203 25.9894C113.877 25.1365 110.848 23.8097 106.11 22.0091L101.566 20.1612L107.247 24.4257C107.816 24.8995 108.337 25.7008 108.811 26.8423C109.379 28.0742 109.616 28.9271 109.522 29.401C109.427 29.9696 108.432 30.1591 106.536 29.9696C106.347 28.6428 105.826 27.4582 104.973 26.4158C101.656 22.9137 99.808 20.9236 99.429 20.4498L98.8604 19.0283L100.424 18.4597C101.277 18.4597 104.831 17.4173 111.081 15.3324C111.839 15.2376 112.649 15.0481 113.498 14.7638C114.07 14.669 114.493 14.8112 114.777 15.1902C115.345 15.7545 115.725 16.3274 115.914 16.896C112.696 17.2751 110.185 17.6542 108.384 18.0332L103.409 19.4547L114.777 22.4399C118.189 23.3876 120.08 24.5248 120.463 25.8515C120.652 26.7949 119.946 28.169 118.335 29.9696Z" fill="#C7BE91"/>
<path fill-rule="evenodd" clip-rule="evenodd" d="M120.746 24.5696C120.272 25.233 119.94 25.233 119.755 24.5696C119.561 23.3377 119.324 22.2048 119.044 21.158C118.76 19.926 117.433 18.5993 115.064 17.1778C112.316 15.7563 110.42 14.6665 109.378 13.9083C107.577 12.7711 102.985 12.2025 95.5935 12.2025C93.5086 12.2025 90.7647 13.0554 87.3531 14.7612C84.4153 16.2775 81.4775 18.1255 78.5441 20.3008C76.3687 21.9118 75.0851 23.6176 74.706 25.4182C74.5208 26.3659 74.5638 27.124 74.8481 27.6883C73.9952 27.4988 73.1423 26.6933 72.2894 25.2718C71.7208 24.2293 71.6735 23.2816 72.1473 22.4287C72.2421 22.1444 72.9054 21.2915 74.1374 19.87C74.9903 18.9224 76.6961 17.6904 79.2548 16.1784C81.9083 14.5674 84.4196 13.3354 86.7888 12.4825C92.66 10.3029 96.735 9.78598 99.0094 10.9189C99.578 11.2032 101.758 11.4875 105.548 11.7718C109.24 11.9613 111.751 12.3404 113.078 12.909C115.917 14.0462 118.717 16.368 121.461 19.8744C122.12 20.9168 122.361 21.8171 122.171 22.5752C121.982 22.9629 121.504 23.6263 120.746 24.5696Z" fill="#C7BE91"/>
<path fill-rule="evenodd" clip-rule="evenodd" d="M123.587 27.6946C123.587 31.1062 121.506 33.428 117.337 34.6557C115.157 35.4181 112.219 35.5086 108.528 34.94C105.4 34.3714 102.514 33.5702 99.8606 32.5234C97.5862 31.6705 94.4632 30.9124 90.483 30.249C86.5071 29.5856 82.8586 29.2066 79.5418 29.1118C77.2717 29.0214 75.4194 28.8749 74.0022 28.6854L72.4385 28.2546L71.8699 26.9796C71.5899 26.411 71.3961 25.6528 71.3013 24.7052L71.1592 23.4258L72.0121 22.1464C71.8225 23.2837 72.5807 24.227 74.2865 24.9895C75.8028 25.5581 77.8403 25.8897 80.3947 25.9845C82.29 25.9845 86.8819 26.5531 94.1789 27.6903C96.2638 27.7851 98.2065 28.1641 100.007 28.8275C102.661 29.7795 104.978 30.4386 106.968 30.8176C110.095 31.481 112.607 31.6705 114.502 31.3862C115.545 31.1967 116.82 30.7272 118.34 29.969C119.288 29.4952 119.999 28.8275 120.472 27.9789C120.563 27.7894 120.899 26.9839 121.463 25.5624L122.6 21.2979L123.169 23.5723C123.539 25.2781 123.682 26.6522 123.587 27.6946Z" fill="#F7CE00"/>
<path fill-rule="evenodd" clip-rule="evenodd" d="M89.4861 17.7515C91.8553 17.9411 94.3193 17.8937 96.8737 17.6094L89.7704 14.9085C87.2117 14.1504 85.269 14.0082 83.9423 14.4821C78.8292 16.6617 76.8391 17.9411 77.9763 18.3201C78.6353 18.5097 80.3411 18.4623 83.0894 18.178C86.4062 17.8937 88.5385 17.7515 89.4861 17.7515ZM89.4861 21.3053C92.0449 20.9262 94.6036 20.1681 97.1623 19.0352C90.2486 18.8457 85.4629 18.7983 82.8094 18.8931C81.1984 18.9878 79.4495 19.2247 77.5498 19.6038L75.2797 20.3146C74.8059 20.5989 74.3794 20.9305 74.0004 21.3096C73.1475 22.0678 72.9579 22.7785 73.4318 23.4419C74.0004 24.2948 74.569 24.7686 75.1376 24.8634C75.6114 24.9581 76.8434 24.7686 78.8335 24.2948C80.0655 24.0105 81.866 23.4893 84.2309 22.7311C86.4062 21.9687 88.1594 21.4948 89.4861 21.3053ZM96.4515 24.5705C97.494 23.149 98.0152 21.4431 98.0152 19.453C93.9402 21.2536 91.1015 22.3434 89.4905 22.7225C83.0506 24.3335 80.255 25.3243 81.1079 25.7034C81.5817 25.9877 82.8137 26.1772 84.8038 26.272H89.7791C91.8639 26.3667 93.1907 26.3667 93.755 26.272C94.8836 26.0867 95.7882 25.5224 96.4515 24.5705ZM99.2902 19.7417L98.7216 25.1391C98.7216 26.2763 99.9536 27.1249 102.413 27.6935C103.171 27.9778 104.403 28.4042 106.105 28.9728C107.432 29.2571 108.142 29.115 108.237 28.5464C108.616 27.4092 107.432 25.656 104.683 23.2868C103.83 22.5287 102.65 21.7231 101.134 20.8702L99.2902 19.7417ZM90.4812 11.7855C88.9649 12.1646 88.1594 12.4489 88.0646 12.6384C87.8751 12.9184 89.2492 13.6809 92.187 14.9085L99.721 18.0358V13.6292C100.005 12.7763 100.147 12.2077 100.147 11.9234C100.242 11.3548 99.8631 11.0231 99.0102 10.9283C97.3949 10.7431 94.5562 11.0274 90.4812 11.7855ZM101.991 14.0599C101.612 14.6285 101.328 15.4814 101.138 16.6186C101.043 17.1873 100.949 17.7085 100.854 18.1823L103.981 16.6186C106.35 15.5762 107.961 15.0076 108.814 14.9128C110.425 14.5338 111.278 14.3442 111.373 14.3442C112.036 14.1547 112.036 13.823 111.373 13.3535C110.615 12.8797 109.383 12.4058 107.681 11.932C105.976 11.4582 104.649 11.2686 103.701 11.3634C102.943 11.4538 102.517 11.7425 102.422 12.2163C102.228 13.2544 102.086 13.8704 101.991 14.0599ZM120.746 18.6044C124.158 22.6794 124.248 26.371 121.026 29.6879C117.709 33.0047 113.359 33.6207 107.957 31.5358C102.56 29.3562 95.5469 27.939 86.9274 27.2756C78.588 26.6123 73.7118 25.9489 72.2903 25.2855C69.7316 23.9588 70.9161 21.4475 75.844 17.7559C80.6771 13.9652 85.7902 11.6477 91.192 10.7905C104.645 8.61084 114.496 11.2169 120.746 18.6044ZM115.633 30.3986C117.434 30.1186 118.524 29.5457 118.903 28.6928C119.282 27.7408 118.713 26.6079 117.197 25.2812C115.969 24.144 112.937 22.8173 108.104 21.301L101.142 19.453L109.383 26.1341C111.463 29.2614 113.548 30.6786 115.633 30.3986ZM120.466 22.3004C120.652 21.2579 120.32 20.125 119.471 18.8888C118.618 17.562 117.529 16.6617 116.202 16.1922L113.501 15.1971L102.418 18.7509L111.511 20.3103C112.553 20.5946 114.397 21.2579 117.055 22.3004C119.234 22.9637 120.367 22.9637 120.466 22.3004Z" fill="#FFFF9C"/>
<g opacity="0.4219" clip-path="url(#clip16_805_1782)">
<path fill-rule="evenodd" clip-rule="evenodd" d="M97.0462 19.7321C94.4887 20.8688 91.9311 21.6275 89.3736 22.0055C88.0465 22.1959 86.296 22.6676 84.1164 23.4263C81.7493 24.1851 79.9476 24.7051 78.7171 24.9893C76.7279 25.4639 75.4975 25.6514 75.0229 25.5576C74.4546 25.4639 73.8862 24.9893 73.3179 24.1368C72.5591 23.0939 73.1758 22.0538 75.165 21.0109C77.5322 20.1584 80.0442 19.6838 82.6955 19.59C85.3469 19.4963 90.1323 19.5417 97.0462 19.7321Z" fill="#FFFF00"/>
</g>
<g opacity="0.4219" clip-path="url(#clip17_805_1782)">
<path fill-rule="evenodd" clip-rule="evenodd" d="M98.0538 19.589C98.0538 21.5782 97.5338 23.2833 96.4909 24.7041C95.8287 25.6504 94.9279 26.2188 93.7912 26.4092C93.2229 26.5029 91.8958 26.5029 89.8128 26.4092H84.8398C82.8506 26.3154 81.6202 26.125 81.1456 25.8408C80.2931 25.4629 83.0865 24.4683 89.5287 22.857C91.1399 22.4791 93.9816 21.3878 98.0538 19.589Z" fill="#FFFF00"/>
</g>
<g opacity="0.4219" clip-path="url(#clip18_805_1782)">
<path fill-rule="evenodd" clip-rule="evenodd" d="M99.8789 19.5891C102.058 20.7258 103.857 21.9108 105.278 23.1413C108.026 25.5084 109.208 27.2618 108.83 28.3985C108.737 28.9668 108.026 29.1089 106.699 28.8247C104.994 28.2564 103.764 27.8301 103.005 27.5459C100.541 26.9776 99.3105 26.1251 99.3105 24.9884L99.8789 19.5891Z" fill="#FFFF00"/>
</g>
<g opacity="0.4219" clip-path="url(#clip19_805_1782)">
<path fill-rule="evenodd" clip-rule="evenodd" d="M101.249 19.5873C109.965 21.6703 115.316 23.6141 117.305 25.4129C118.819 26.7399 119.388 27.8766 119.01 28.8229C118.632 29.6754 117.541 30.2438 115.742 30.528C113.659 30.8121 111.573 29.3913 109.49 26.2654C108.922 25.5066 106.174 23.2816 101.249 19.5873Z" fill="#FFFF00"/>
</g>
<g opacity="0.4219" clip-path="url(#clip20_805_1782)">
<path fill-rule="evenodd" clip-rule="evenodd" d="M103.618 20.1261L114.701 16.5739L117.4 17.5685C118.728 18.0431 119.816 18.9411 120.668 20.2682C121.521 21.5015 121.853 22.6353 121.663 23.6782C121.569 24.3403 120.43 24.3403 118.253 23.6782C115.602 22.6353 113.755 21.9732 112.712 21.689C110.532 21.2144 107.503 20.6944 103.618 20.1261Z" fill="#FFFF00"/>
</g>
<g opacity="0.4219" clip-path="url(#clip21_805_1782)">
<path fill-rule="evenodd" clip-rule="evenodd" d="M100.82 18.8711C101.011 17.0723 101.389 15.6969 101.957 14.7506C102.051 14.5602 102.193 13.9464 102.383 12.9035C102.477 12.4289 102.903 12.1448 103.662 12.051C104.608 11.9572 105.935 12.1448 107.64 12.6193C109.345 13.0939 110.576 13.5656 111.335 14.0402C111.997 14.5147 111.997 14.8444 111.335 15.0348C111.238 15.0348 110.388 15.2252 108.777 15.6031C107.356 15.7935 104.705 16.8819 100.82 18.8711Z" fill="#FFFF00"/>
</g>
<g opacity="0.4219" clip-path="url(#clip22_805_1782)">
<path fill-rule="evenodd" clip-rule="evenodd" d="M100.408 19.2959L92.8771 16.17C89.9416 14.9395 88.5662 14.1808 88.7566 13.8966C88.8504 13.7091 89.6574 13.4221 91.1721 13.0441C95.2443 12.2854 98.086 12.0012 99.6972 12.1916C100.55 12.2882 100.928 12.6179 100.834 13.1862C100.644 13.8483 100.501 14.4167 100.408 14.8912V19.2959Z" fill="#FFFF00"/>
</g>
<g opacity="0.4219" clip-path="url(#clip23_805_1782)">
<path fill-rule="evenodd" clip-rule="evenodd" d="M97.3881 17.614C94.8305 17.8981 92.3668 17.9465 89.9996 17.7561C89.0533 17.7561 86.922 17.8981 83.6058 18.1823C80.8578 18.4665 79.1528 18.5148 78.4907 18.3244C77.354 17.9465 79.3432 16.6677 84.4583 14.4881C85.7825 14.0135 87.7262 14.1556 90.2838 14.9143L97.3881 17.614Z" fill="#FFFF00"/>
</g>
<defs>
<radialGradient id="paint0_radial_805_1782" cx="0" cy="0" r="1" gradientUnits="userSpaceOnUse" gradientTransform="translate(111.232 -14.7212) rotate(27.6772) scale(115.097 115.097)">
<stop stop-color="white"/>
<stop offset="0.3725" stop-color="#FDFDFD"/>
<stop offset="0.5059" stop-color="#F6F6F6"/>
<stop offset="0.6039" stop-color="#EBEBEB"/>
<stop offset="0.6784" stop-color="#DADADA"/>
<stop offset="0.7451" stop-color="#C4C4C4"/>
<stop offset="0.8039" stop-color="#A8A8A8"/>
<stop offset="0.8588" stop-color="#888888"/>
<stop offset="0.9059" stop-color="#626262"/>
<stop offset="0.9529" stop-color="#373737"/>
<stop offset="0.9922" stop-color="#090909"/>
<stop offset="1"/>
</radialGradient>
<radialGradient id="paint1_radial_805_1782" cx="0" cy="0" r="1" gradientUnits="userSpaceOnUse" gradientTransform="translate(102.019 -0.855956) rotate(77.3438) scale(88.3726)">
<stop stop-color="white"/>
<stop offset="0.3725" stop-color="#FDFDFD"/>
<stop offset="0.5059" stop-color="#F6F6F6"/>
<stop offset="0.6039" stop-color="#EBEBEB"/>
<stop offset="0.6784" stop-color="#DADADA"/>
<stop offset="0.7451" stop-color="#C4C4C4"/>
<stop offset="0.8039" stop-color="#A8A8A8"/>
<stop offset="0.8588" stop-color="#888888"/>
<stop offset="0.9059" stop-color="#626262"/>
<stop offset="0.9529" stop-color="#373737"/>
<stop offset="0.9922" stop-color="#090909"/>
<stop offset="1"/>
</radialGradient>
<clipPath id="clip0_805_1782">
<rect width="55.2879" height="33.5023" fill="white" transform="matrix(1 0 0 -1 175.556 64.5088)"/>
</clipPath>
<clipPath id="clip1_805_1782">
<rect width="129.615" height="25.8132" fill="white" transform="matrix(1 0 0 -1 52.3604 64.5713)"/>
</clipPath>
<clipPath id="clip2_805_1782">
<rect width="176.848" height="41.1913" fill="white" transform="matrix(1 0 0 -1 53.4365 52.166)"/>
</clipPath>
<clipPath id="clip3_805_1782">
<rect width="56.9356" height="38.6283" fill="white" transform="matrix(1 0 0 -1 122.787 100)"/>
</clipPath>
<clipPath id="clip4_805_1782">
<rect width="128.517" height="36.7976" fill="white" transform="matrix(1 0 0 -1 0.454102 99.8945)"/>
</clipPath>
<clipPath id="clip5_805_1782">
<rect width="177.763" height="53.6402" fill="white" transform="matrix(1 0 0 -1 1.95996 84.8604)"/>
</clipPath>
<clipPath id="clip6_805_1782">
<rect width="121.921" height="51.6681" fill="white" transform="matrix(1 0 0 -1 61.4043 78.416)"/>
</clipPath>
<clipPath id="clip7_805_1782">
<rect width="90.27" height="35.9562" fill="white" transform="matrix(1 0 0 -1 60.7139 43.0547)"/>
</clipPath>
<clipPath id="clip8_805_1782">
<rect width="20.5598" height="3.23956" fill="white" transform="matrix(1 0 0 -1 118.379 5.38477)"/>
</clipPath>
<clipPath id="clip9_805_1782">
<rect width="15.2913" height="3.09179" fill="white" transform="matrix(1 0 0 -1 124.639 10.1885)"/>
</clipPath>
<clipPath id="clip10_805_1782">
<rect width="7.343" height="6.57005" fill="white" transform="matrix(1 0 0 -1 138.776 13.667)"/>
</clipPath>
<clipPath id="clip11_805_1782">
<rect width="13.0236" height="8.60756" fill="white" transform="matrix(1 0 0 -1 141.957 15.7031)"/>
</clipPath>
<clipPath id="clip12_805_1782">
<rect width="14.3677" height="5.30548" fill="white" transform="matrix(1 0 0 -1 144.11 12.4014)"/>
</clipPath>
<clipPath id="clip13_805_1782">
<rect width="9.84371" height="3.447" fill="white" transform="matrix(1 0 0 -1 141.957 5.55273)"/>
</clipPath>
<clipPath id="clip14_805_1782">
<rect width="10.0597" height="4.973" fill="white" transform="matrix(1 0 0 -1 132.143 5.10645)"/>
</clipPath>
<clipPath id="clip15_805_1782">
<rect width="15.6891" height="3.99261" fill="white" transform="matrix(1 0 0 -1 123.301 4.8291)"/>
</clipPath>
<clipPath id="clip16_805_1782">
<rect width="24.0409" height="6.03865" fill="white" transform="matrix(1 0 0 -1 73.0059 25.5801)"/>
</clipPath>
<clipPath id="clip17_805_1782">
<rect width="17.0588" height="6.89116" fill="white" transform="matrix(1 0 0 -1 80.9941 26.4805)"/>
</clipPath>
<clipPath id="clip18_805_1782">
<rect width="9.58795" height="9.37766" fill="white" transform="matrix(1 0 0 -1 99.3105 28.9668)"/>
</clipPath>
<clipPath id="clip19_805_1782">
<rect width="17.8744" height="10.9776" fill="white" transform="matrix(1 0 0 -1 101.249 30.5654)"/>
</clipPath>
<clipPath id="clip20_805_1782">
<rect width="18.0961" height="7.60159" fill="white" transform="matrix(1 0 0 -1 103.618 24.1758)"/>
</clipPath>
<clipPath id="clip21_805_1782">
<rect width="11.0117" height="6.84285" fill="white" transform="matrix(1 0 0 -1 100.82 18.8711)"/>
</clipPath>
<clipPath id="clip22_805_1782">
<rect width="12.1086" height="7.16113" fill="white" transform="matrix(1 0 0 -1 88.7393 19.2959)"/>
</clipPath>
<clipPath id="clip23_805_1782">
<rect width="19.2072" height="4.22279" fill="white" transform="matrix(1 0 0 -1 78.1807 18.4375)"/>
</clipPath>
</defs>
</svg>
